<svg xmlns="http://www.w3.org/2000/svg" xmlns:xlink="http://www.w3.org/1999/xlink" width="500" zoomAndPan="magnify" viewBox="0 0 375 374.999991" height="500" preserveAspectRatio="xMidYMid meet" version="1.0"><defs><clipPath id="c8a5c37f89"><path d="M 121.382812 25.070312 L 233.6875 25.070312 L 233.6875 73.988281 L 121.382812 73.988281 Z M 121.382812 25.070312 " clip-rule="nonzero"/></clipPath><clipPath id="77e55c91e1"><path d="M 141.3125 17.453125 L 206.957031 17.453125 L 206.957031 66.371094 L 141.3125 66.371094 Z M 141.3125 17.453125 " clip-rule="nonzero"/></clipPath><clipPath id="99e3378675"><path d="M 96.546875 49.527344 L 256.886719 49.527344 L 256.886719 90.828125 L 96.546875 90.828125 Z M 96.546875 49.527344 " clip-rule="nonzero"/></clipPath><clipPath id="323d341cec"><path d="M 107.285156 32.6875 L 244.382812 32.6875 L 244.382812 73.988281 L 107.285156 73.988281 Z M 107.285156 32.6875 " clip-rule="nonzero"/></clipPath><clipPath id="5047ed5bc3"><path d="M 6.109375 60.859375 L 368.800781 60.859375 L 368.800781 310.128906 L 6.109375 310.128906 Z M 6.109375 60.859375 " clip-rule="nonzero"/></clipPath><clipPath id="6b2cfbe7c2"><path d="M 141.3125 313.230469 L 233.6875 313.230469 L 233.6875 362.777344 L 141.3125 362.777344 Z M 141.3125 313.230469 " clip-rule="nonzero"/></clipPath><clipPath id="ec585dc16e"><path d="M 0 7.265625 L 375 7.265625 L 375 367.265625 L 0 367.265625 Z M 0 7.265625 " clip-rule="nonzero"/></clipPath></defs><g clip-path="url(#c8a5c37f89)"><path fill="#93c5fd" d="M 121.382812 25.070312 L 233.738281 25.070312 L 233.738281 73.988281 L 121.382812 73.988281 Z M 121.382812 25.070312 " fill-opacity="1" fill-rule="nonzero"/></g><g clip-path="url(#77e55c91e1)"><path fill="#93c5fd" d="M 141.3125 17.453125 L 207.046875 17.453125 L 207.046875 66.371094 L 141.3125 66.371094 Z M 141.3125 17.453125 " fill-opacity="1" fill-rule="nonzero"/></g><g clip-path="url(#99e3378675)"><path fill="#93c5fd" d="M 96.546875 49.527344 L 256.910156 49.527344 L 256.910156 90.828125 L 96.546875 90.828125 Z M 96.546875 49.527344 " fill-opacity="1" fill-rule="nonzero"/></g><g clip-path="url(#323d341cec)"><path fill="#93c5fd" d="M 107.285156 32.6875 L 244.414062 32.6875 L 244.414062 73.988281 L 107.285156 73.988281 Z M 107.285156 32.6875 " fill-opacity="1" fill-rule="nonzero"/></g><g clip-path="url(#5047ed5bc3)"><path fill="#93c5fd" d="M 6.109375 60.859375 L 368.328125 60.859375 L 368.328125 310.128906 L 6.109375 310.128906 Z M 6.109375 60.859375 " fill-opacity="1" fill-rule="nonzero"/></g><g clip-path="url(#6b2cfbe7c2)"><path fill="#93c5fd" d="M 141.3125 313.230469 L 233.628906 313.230469 L 233.628906 362.777344 L 141.3125 362.777344 Z M 141.3125 313.230469 " fill-opacity="1" fill-rule="nonzero"/></g><g clip-path="url(#ec585dc16e)"><path fill="#172554" d="M 350.929688 52.832031 L 262.617188 52.832031 C 260.160156 49.304688 257.496094 45.9375 254.632812 42.726562 C 251.765625 39.519531 248.71875 36.496094 245.488281 33.65625 C 242.257812 30.816406 238.871094 28.179688 235.320312 25.75 C 231.773438 23.316406 228.089844 21.109375 224.277344 19.121094 C 220.460938 17.136719 216.542969 15.386719 212.515625 13.871094 C 208.488281 12.359375 204.386719 11.09375 200.207031 10.074219 C 196.027344 9.054688 191.804688 8.292969 187.53125 7.785156 C 183.261719 7.273438 178.976562 7.027344 174.675781 7.035156 C 170.433594 7.054688 166.207031 7.332031 162 7.863281 C 157.792969 8.394531 153.632812 9.175781 149.519531 10.210938 C 145.40625 11.242188 141.371094 12.523438 137.410156 14.042969 C 133.453125 15.5625 129.597656 17.320312 125.851562 19.304688 C 122.105469 21.292969 118.488281 23.496094 115.007812 25.921875 C 111.527344 28.34375 108.207031 30.96875 105.042969 33.792969 C 101.878906 36.617188 98.898438 39.621094 96.097656 42.808594 C 93.296875 45.992188 90.695312 49.335938 88.300781 52.832031 L 24.070312 52.832031 C 23.285156 52.832031 22.503906 52.871094 21.722656 52.949219 C 20.941406 53.023438 20.167969 53.140625 19.398438 53.292969 C 18.628906 53.445312 17.867188 53.636719 17.117188 53.863281 C 16.367188 54.089844 15.628906 54.355469 14.90625 54.652344 C 14.179688 54.953125 13.472656 55.289062 12.78125 55.65625 C 12.085938 56.027344 11.414062 56.429688 10.761719 56.863281 C 10.109375 57.296875 9.480469 57.765625 8.875 58.261719 C 8.265625 58.757812 7.683594 59.285156 7.128906 59.835938 C 6.574219 60.390625 6.046875 60.972656 5.550781 61.578125 C 5.050781 62.183594 4.582031 62.8125 4.144531 63.460938 C 3.710938 64.113281 3.304688 64.785156 2.933594 65.476562 C 2.5625 66.167969 2.226562 66.875 1.925781 67.597656 C 1.625 68.324219 1.359375 69.058594 1.128906 69.8125 C 0.898438 70.5625 0.707031 71.320312 0.554688 72.089844 C 0.398438 72.859375 0.28125 73.632812 0.203125 74.414062 C 0.125 75.195312 0.0820312 75.976562 0.0820312 76.761719 L 0.0820312 297.289062 C 0.0820312 298.074219 0.125 298.855469 0.203125 299.636719 C 0.28125 300.417969 0.398438 301.191406 0.554688 301.960938 C 0.707031 302.730469 0.898438 303.488281 1.128906 304.238281 C 1.359375 304.988281 1.625 305.726562 1.925781 306.449219 C 2.226562 307.175781 2.5625 307.882812 2.933594 308.574219 C 3.304688 309.265625 3.710938 309.9375 4.144531 310.585938 C 4.582031 311.238281 5.050781 311.867188 5.550781 312.472656 C 6.046875 313.078125 6.574219 313.660156 7.128906 314.210938 C 7.683594 314.765625 8.265625 315.292969 8.875 315.789062 C 9.480469 316.285156 10.109375 316.753906 10.761719 317.1875 C 11.414062 317.621094 12.085938 318.023438 12.78125 318.394531 C 13.472656 318.761719 14.179688 319.097656 14.90625 319.398438 C 15.628906 319.695312 16.367188 319.960938 17.117188 320.1875 C 17.867188 320.414062 18.628906 320.605469 19.398438 320.757812 C 20.167969 320.910156 20.941406 321.023438 21.722656 321.101562 C 22.503906 321.179688 23.285156 321.21875 24.070312 321.21875 L 141.300781 321.21875 L 127.375 358.933594 C 127.289062 359.167969 127.21875 359.40625 127.160156 359.652344 C 127.101562 359.894531 127.058594 360.140625 127.03125 360.390625 C 127 360.640625 126.988281 360.890625 126.992188 361.140625 C 126.992188 361.390625 127.007812 361.640625 127.039062 361.890625 C 127.074219 362.136719 127.121094 362.382812 127.179688 362.625 C 127.242188 362.871094 127.320312 363.109375 127.410156 363.339844 C 127.5 363.574219 127.601562 363.804688 127.71875 364.023438 C 127.839844 364.246094 127.96875 364.460938 128.113281 364.664062 C 128.253906 364.871094 128.410156 365.066406 128.578125 365.253906 C 128.746094 365.441406 128.921875 365.617188 129.109375 365.785156 C 129.296875 365.949219 129.496094 366.101562 129.703125 366.246094 C 129.910156 366.386719 130.125 366.515625 130.347656 366.632812 C 130.566406 366.746094 130.796875 366.851562 131.03125 366.9375 C 131.265625 367.027344 131.503906 367.101562 131.75 367.160156 C 131.992188 367.21875 132.238281 367.265625 132.488281 367.296875 C 132.734375 367.324219 132.984375 367.339844 133.234375 367.339844 L 241.765625 367.339844 C 242.015625 367.339844 242.265625 367.324219 242.511719 367.296875 C 242.761719 367.265625 243.007812 367.21875 243.25 367.160156 C 243.496094 367.101562 243.734375 367.027344 243.96875 366.9375 C 244.203125 366.851562 244.433594 366.746094 244.652344 366.632812 C 244.875 366.515625 245.089844 366.386719 245.296875 366.246094 C 245.503906 366.101562 245.703125 365.949219 245.890625 365.785156 C 246.078125 365.617188 246.253906 365.441406 246.421875 365.253906 C 246.589844 365.066406 246.746094 364.871094 246.886719 364.664062 C 247.03125 364.460938 247.160156 364.246094 247.28125 364.023438 C 247.398438 363.804688 247.5 363.574219 247.589844 363.339844 C 247.679688 363.109375 247.757812 362.871094 247.820312 362.625 C 247.878906 362.382812 247.925781 362.136719 247.957031 361.890625 C 247.992188 361.640625 248.007812 361.390625 248.007812 361.140625 C 248.011719 360.890625 248 360.640625 247.96875 360.390625 C 247.941406 360.140625 247.898438 359.894531 247.839844 359.652344 C 247.78125 359.40625 247.710938 359.167969 247.625 358.933594 L 233.730469 321.21875 L 350.929688 321.21875 C 351.714844 321.21875 352.496094 321.179688 353.277344 321.101562 C 354.058594 321.023438 354.832031 320.910156 355.601562 320.757812 C 356.371094 320.605469 357.132812 320.414062 357.882812 320.1875 C 358.632812 319.960938 359.371094 319.695312 360.09375 319.398438 C 360.820312 319.097656 361.527344 318.761719 362.21875 318.394531 C 362.914062 318.023438 363.585938 317.621094 364.238281 317.1875 C 364.890625 316.75 365.519531 316.285156 366.125 315.789062 C 366.734375 315.292969 367.316406 314.765625 367.871094 314.210938 C 368.425781 313.660156 368.953125 313.078125 369.449219 312.472656 C 369.949219 311.867188 370.417969 311.238281 370.855469 310.585938 C 371.289062 309.9375 371.695312 309.265625 372.066406 308.574219 C 372.4375 307.882812 372.773438 307.175781 373.074219 306.449219 C 373.375 305.726562 373.640625 304.988281 373.871094 304.238281 C 374.101562 303.488281 374.292969 302.730469 374.445312 301.960938 C 374.601562 301.191406 374.71875 300.417969 374.796875 299.636719 C 374.875 298.855469 374.917969 298.074219 374.917969 297.289062 L 374.917969 76.761719 C 374.917969 75.976562 374.875 75.195312 374.796875 74.414062 C 374.71875 73.632812 374.601562 72.859375 374.445312 72.089844 C 374.292969 71.320312 374.101562 70.5625 373.871094 69.8125 C 373.640625 69.058594 373.375 68.324219 373.074219 67.597656 C 372.773438 66.875 372.4375 66.167969 372.066406 65.476562 C 371.695312 64.785156 371.289062 64.113281 370.855469 63.460938 C 370.417969 62.8125 369.949219 62.183594 369.449219 61.578125 C 368.953125 60.972656 368.425781 60.390625 367.871094 59.835938 C 367.316406 59.285156 366.734375 58.757812 366.125 58.261719 C 365.519531 57.765625 364.890625 57.296875 364.238281 56.863281 C 363.585938 56.429688 362.914062 56.027344 362.21875 55.65625 C 361.527344 55.289062 360.820312 54.953125 360.09375 54.652344 C 359.371094 54.355469 358.632812 54.089844 357.882812 53.863281 C 357.132812 53.636719 356.371094 53.445312 355.601562 53.292969 C 354.832031 53.140625 354.058594 53.023438 353.277344 52.949219 C 352.496094 52.871094 351.714844 52.832031 350.929688 52.832031 Z M 142.207031 354.847656 L 154.613281 321.242188 L 220.386719 321.242188 L 232.792969 354.847656 Z M 174.691406 19.527344 C 176.144531 19.523438 177.59375 19.554688 179.042969 19.617188 C 180.492188 19.679688 181.941406 19.773438 183.386719 19.902344 C 184.832031 20.03125 186.273438 20.195312 187.710938 20.390625 C 189.148438 20.585938 190.582031 20.8125 192.007812 21.074219 C 193.433594 21.335938 194.855469 21.628906 196.269531 21.957031 C 197.683594 22.285156 199.089844 22.644531 200.484375 23.035156 C 201.882812 23.425781 203.269531 23.851562 204.648438 24.304688 C 206.023438 24.761719 207.390625 25.25 208.746094 25.769531 C 210.101562 26.285156 211.445312 26.835938 212.773438 27.417969 C 214.105469 27.996094 215.417969 28.609375 216.722656 29.25 C 218.023438 29.890625 219.308594 30.5625 220.578125 31.261719 C 221.851562 31.960938 223.105469 32.691406 224.339844 33.449219 C 225.578125 34.207031 226.796875 34.996094 228 35.808594 C 229.199219 36.625 230.378906 37.464844 231.542969 38.332031 C 232.703125 39.203125 233.847656 40.097656 234.96875 41.019531 C 236.085938 41.941406 237.1875 42.886719 238.265625 43.859375 C 239.339844 44.832031 240.394531 45.828125 241.425781 46.847656 C 242.457031 47.871094 243.464844 48.914062 244.449219 49.980469 C 245.429688 51.046875 246.390625 52.136719 247.320312 53.25 C 248.253906 54.359375 249.160156 55.492188 250.042969 56.644531 C 250.921875 57.796875 251.777344 58.972656 252.601562 60.164062 C 253.429688 61.355469 254.230469 62.566406 255 63.796875 C 255.769531 65.027344 256.511719 66.273438 257.226562 67.535156 C 257.941406 68.800781 258.625 70.078125 259.277344 71.375 C 259.933594 72.667969 260.554688 73.976562 261.152344 75.300781 C 261.746094 76.625 262.308594 77.960938 262.839844 79.3125 C 263.371094 80.660156 263.875 82.023438 264.34375 83.394531 C 264.8125 84.769531 265.25 86.152344 265.65625 87.542969 C 266.0625 88.9375 266.4375 90.339844 266.777344 91.75 C 267.121094 93.160156 267.429688 94.578125 267.703125 96 C 267.980469 97.425781 268.222656 98.855469 268.433594 100.292969 C 268.644531 101.726562 268.820312 103.167969 268.964844 104.609375 C 269.324219 108.617188 270.109375 112.539062 271.320312 116.375 C 272.527344 120.210938 274.132812 123.875 276.136719 127.363281 L 290.4375 151.652344 L 274.300781 151.652344 C 273.890625 151.652344 273.484375 151.691406 273.082031 151.773438 C 272.679688 151.851562 272.289062 151.972656 271.910156 152.128906 C 271.53125 152.285156 271.171875 152.476562 270.828125 152.707031 C 270.488281 152.933594 270.171875 153.191406 269.882812 153.484375 C 269.59375 153.773438 269.332031 154.089844 269.105469 154.429688 C 268.878906 154.769531 268.683594 155.128906 268.527344 155.507812 C 268.371094 155.886719 268.253906 156.277344 268.171875 156.679688 C 268.09375 157.082031 268.050781 157.488281 268.050781 157.898438 L 268.050781 188.898438 C 268.050781 189.5625 267.988281 190.222656 267.855469 190.871094 C 267.726562 191.523438 267.535156 192.15625 267.28125 192.769531 C 267.027344 193.382812 266.714844 193.964844 266.347656 194.515625 C 265.976562 195.070312 265.558594 195.578125 265.089844 196.050781 C 264.617188 196.519531 264.109375 196.9375 263.554688 197.308594 C 263.003906 197.675781 262.421875 197.988281 261.808594 198.242188 C 261.195312 198.496094 260.5625 198.6875 259.910156 198.820312 C 259.261719 198.949219 258.601562 199.011719 257.9375 199.015625 L 228.914062 199.015625 C 228.503906 199.015625 228.097656 199.054688 227.695312 199.132812 C 227.292969 199.214844 226.902344 199.332031 226.523438 199.488281 C 226.144531 199.644531 225.785156 199.839844 225.441406 200.066406 C 225.101562 200.292969 224.785156 200.554688 224.496094 200.84375 C 224.207031 201.132812 223.945312 201.449219 223.71875 201.789062 C 223.492188 202.132812 223.296875 202.492188 223.140625 202.871094 C 222.984375 203.25 222.867188 203.640625 222.785156 204.042969 C 222.707031 204.445312 222.667969 204.851562 222.667969 205.261719 L 222.667969 231.148438 L 122.960938 231.148438 L 122.960938 230.832031 C 122.953125 225.636719 122.339844 220.519531 121.113281 215.472656 C 119.890625 210.425781 118.089844 205.59375 115.710938 200.976562 L 104.742188 179.734375 C 102.363281 175.136719 99.707031 170.707031 96.765625 166.445312 C 94.070312 162.671875 91.679688 158.710938 89.59375 154.566406 C 87.507812 150.425781 85.75 146.144531 84.320312 141.734375 C 82.886719 137.320312 81.800781 132.824219 81.0625 128.246094 C 80.320312 123.667969 79.929688 119.058594 79.898438 114.417969 C 80.527344 69.527344 119.609375 19.527344 174.675781 19.527344 Z M 24.070312 65.328125 L 80.496094 65.328125 C 76.402344 72.839844 73.25 80.730469 71.03125 88.992188 C 68.8125 97.257812 67.59375 105.667969 67.378906 114.21875 C 67.402344 119.503906 67.828125 124.75 68.660156 129.96875 C 69.488281 135.1875 70.714844 140.308594 72.332031 145.339844 C 73.949219 150.367188 75.9375 155.242188 78.304688 159.96875 C 80.671875 164.691406 83.382812 169.207031 86.445312 173.511719 C 89.089844 177.335938 91.480469 181.3125 93.621094 185.4375 L 104.585938 206.679688 C 106.507812 210.410156 107.964844 214.316406 108.957031 218.394531 C 109.945312 222.472656 110.441406 226.609375 110.445312 230.804688 L 110.445312 237.371094 C 110.445312 237.78125 110.484375 238.1875 110.566406 238.589844 C 110.644531 238.992188 110.765625 239.382812 110.921875 239.761719 C 111.078125 240.140625 111.269531 240.5 111.5 240.84375 C 111.726562 241.183594 111.984375 241.5 112.277344 241.789062 C 112.566406 242.078125 112.882812 242.339844 113.222656 242.566406 C 113.5625 242.792969 113.921875 242.988281 114.300781 243.144531 C 114.679688 243.300781 115.070312 243.417969 115.472656 243.5 C 115.875 243.578125 116.28125 243.621094 116.691406 243.621094 L 228.894531 243.621094 C 229.304688 243.621094 229.710938 243.578125 230.113281 243.5 C 230.515625 243.417969 230.90625 243.300781 231.285156 243.144531 C 231.664062 242.988281 232.023438 242.792969 232.367188 242.566406 C 232.707031 242.339844 233.023438 242.078125 233.3125 241.789062 C 233.601562 241.5 233.859375 241.183594 234.089844 240.84375 C 234.316406 240.5 234.507812 240.140625 234.667969 239.761719 C 234.824219 239.382812 234.941406 238.992188 235.023438 238.589844 C 235.101562 238.1875 235.140625 237.78125 235.140625 237.371094 L 235.140625 211.507812 L 257.917969 211.507812 C 258.660156 211.507812 259.398438 211.472656 260.136719 211.398438 C 260.871094 211.324219 261.601562 211.214844 262.328125 211.070312 C 263.054688 210.925781 263.773438 210.746094 264.480469 210.53125 C 265.1875 210.316406 265.886719 210.066406 266.570312 209.78125 C 267.253906 209.5 267.921875 209.183594 268.574219 208.832031 C 269.226562 208.484375 269.859375 208.105469 270.476562 207.691406 C 271.089844 207.28125 271.683594 206.839844 272.257812 206.371094 C 272.828125 205.902344 273.378906 205.40625 273.902344 204.878906 C 274.425781 204.355469 274.921875 203.808594 275.390625 203.238281 C 275.859375 202.664062 276.300781 202.070312 276.710938 201.457031 C 277.125 200.839844 277.503906 200.207031 277.851562 199.554688 C 278.203125 198.902344 278.519531 198.230469 278.800781 197.546875 C 279.085938 196.863281 279.335938 196.167969 279.550781 195.460938 C 279.765625 194.753906 279.945312 194.035156 280.089844 193.308594 C 280.234375 192.582031 280.34375 191.851562 280.417969 191.113281 C 280.492188 190.378906 280.527344 189.640625 280.527344 188.898438 L 280.527344 164.148438 L 301.34375 164.148438 C 301.894531 164.148438 302.4375 164.074219 302.96875 163.933594 C 303.5 163.789062 304.003906 163.582031 304.480469 163.304688 C 304.957031 163.027344 305.386719 162.695312 305.777344 162.304688 C 306.164062 161.914062 306.496094 161.480469 306.765625 161.003906 C 307.039062 160.523438 307.246094 160.019531 307.386719 159.488281 C 307.527344 158.953125 307.59375 158.414062 307.59375 157.863281 C 307.589844 157.3125 307.515625 156.769531 307.367188 156.242188 C 307.222656 155.710938 307.007812 155.207031 306.730469 154.734375 L 286.914062 121.027344 C 283.78125 115.539062 281.941406 109.644531 281.398438 103.347656 C 280.730469 96.722656 279.460938 90.210938 277.582031 83.820312 C 275.707031 77.425781 273.257812 71.265625 270.234375 65.328125 L 350.929688 65.328125 C 351.683594 65.328125 352.425781 65.398438 353.164062 65.542969 C 353.902344 65.6875 354.621094 65.902344 355.316406 66.191406 C 356.011719 66.476562 356.675781 66.828125 357.300781 67.246094 C 357.929688 67.660156 358.507812 68.132812 359.042969 68.664062 C 359.578125 69.195312 360.054688 69.773438 360.472656 70.398438 C 360.894531 71.023438 361.246094 71.683594 361.539062 72.375 C 361.828125 73.070312 362.046875 73.789062 362.195312 74.523438 C 362.347656 75.261719 362.421875 76.007812 362.425781 76.761719 L 362.425781 257.363281 L 12.574219 257.363281 L 12.574219 76.761719 C 12.578125 76.007812 12.652344 75.261719 12.804688 74.523438 C 12.953125 73.789062 13.171875 73.070312 13.460938 72.375 C 13.753906 71.683594 14.105469 71.023438 14.527344 70.398438 C 14.945312 69.773438 15.421875 69.195312 15.957031 68.664062 C 16.492188 68.132812 17.070312 67.660156 17.699219 67.246094 C 18.324219 66.828125 18.988281 66.476562 19.683594 66.191406 C 20.378906 65.902344 21.097656 65.6875 21.835938 65.542969 C 22.574219 65.398438 23.316406 65.328125 24.070312 65.328125 Z M 350.929688 308.722656 L 24.070312 308.722656 C 23.316406 308.722656 22.574219 308.652344 21.835938 308.507812 C 21.097656 308.359375 20.378906 308.144531 19.683594 307.859375 C 18.988281 307.570312 18.328125 307.21875 17.699219 306.804688 C 17.074219 306.386719 16.492188 305.914062 15.960938 305.382812 C 15.425781 304.851562 14.949219 304.273438 14.527344 303.652344 C 14.109375 303.027344 13.753906 302.367188 13.464844 301.671875 C 13.171875 300.976562 12.953125 300.261719 12.804688 299.523438 C 12.65625 298.789062 12.578125 298.042969 12.574219 297.289062 L 12.574219 269.859375 L 362.425781 269.859375 L 362.425781 297.289062 C 362.421875 298.042969 362.34375 298.789062 362.195312 299.523438 C 362.046875 300.261719 361.828125 300.976562 361.535156 301.671875 C 361.246094 302.367188 360.890625 303.027344 360.472656 303.652344 C 360.050781 304.273438 359.574219 304.851562 359.039062 305.382812 C 358.507812 305.914062 357.925781 306.386719 357.300781 306.804688 C 356.671875 307.21875 356.011719 307.570312 355.316406 307.859375 C 354.621094 308.144531 353.902344 308.359375 353.164062 308.507812 C 352.425781 308.652344 351.679688 308.722656 350.929688 308.722656 Z M 350.929688 308.722656 " fill-opacity="1" fill-rule="nonzero"/></g><path fill="#172554" d="M 46.75 286.707031 C 46.613281 286.308594 46.425781 285.933594 46.1875 285.582031 L 45.4375 284.644531 C 45.128906 284.359375 44.796875 284.109375 44.4375 283.894531 C 44.117188 283.644531 43.761719 283.457031 43.375 283.332031 C 43 283.140625 42.605469 283.015625 42.1875 282.957031 C 41.375 282.769531 40.5625 282.769531 39.75 282.957031 C 39.359375 283.027344 38.984375 283.152344 38.628906 283.332031 C 38.222656 283.457031 37.847656 283.644531 37.503906 283.894531 C 37.171875 284.125 36.859375 284.375 36.566406 284.644531 C 36.296875 284.941406 36.046875 285.253906 35.816406 285.582031 C 35.582031 285.941406 35.371094 286.316406 35.191406 286.707031 C 35.058594 287.074219 34.953125 287.449219 34.871094 287.832031 C 34.773438 288.242188 34.734375 288.660156 34.753906 289.082031 C 34.734375 289.484375 34.773438 289.878906 34.871094 290.269531 C 34.945312 290.671875 35.050781 291.070312 35.191406 291.453125 C 35.359375 291.832031 35.566406 292.1875 35.816406 292.515625 C 36.03125 292.875 36.28125 293.210938 36.566406 293.515625 L 37.503906 294.265625 C 37.847656 294.515625 38.222656 294.703125 38.628906 294.828125 C 38.984375 295.011719 39.359375 295.136719 39.75 295.203125 C 40.164062 295.277344 40.582031 295.316406 41 295.328125 C 41.398438 295.316406 41.796875 295.277344 42.1875 295.203125 C 42.605469 295.144531 43 295.019531 43.375 294.828125 C 43.761719 294.703125 44.117188 294.515625 44.4375 294.265625 C 44.8125 294.015625 45.125 293.765625 45.4375 293.515625 C 45.75 293.265625 45.9375 292.890625 46.1875 292.515625 C 46.4375 292.195312 46.625 291.84375 46.75 291.453125 C 46.941406 291.082031 47.066406 290.683594 47.125 290.269531 C 47.195312 289.875 47.238281 289.480469 47.25 289.082031 C 47.238281 288.660156 47.195312 288.246094 47.125 287.832031 C 47.054688 287.4375 46.929688 287.0625 46.75 286.707031 Z M 46.75 286.707031 " fill-opacity="1" fill-rule="nonzero"/><path fill="#172554" d="M 74.425781 284.644531 C 74.128906 284.375 73.820312 284.125 73.492188 283.894531 C 73.164062 283.660156 72.808594 283.472656 72.429688 283.332031 C 72.054688 283.152344 71.65625 283.027344 71.246094 282.957031 C 70.226562 282.753906 69.21875 282.800781 68.222656 283.101562 C 67.226562 283.398438 66.359375 283.914062 65.621094 284.644531 C 64.992188 285.21875 64.535156 285.90625 64.246094 286.707031 C 64.011719 287.277344 63.863281 287.871094 63.804688 288.488281 C 63.746094 289.105469 63.777344 289.714844 63.902344 290.320312 C 64.023438 290.925781 64.230469 291.5 64.523438 292.046875 C 64.816406 292.589844 65.183594 293.082031 65.621094 293.515625 C 66.058594 293.953125 66.546875 294.320312 67.089844 294.609375 C 67.636719 294.902344 68.210938 295.105469 68.816406 295.226562 C 69.421875 295.347656 70.03125 295.375 70.644531 295.316406 C 71.261719 295.253906 71.851562 295.105469 72.421875 294.867188 C 72.992188 294.628906 73.515625 294.3125 73.988281 293.917969 C 74.464844 293.523438 74.875 293.070312 75.214844 292.554688 C 75.554688 292.039062 75.8125 291.488281 75.988281 290.894531 C 76.160156 290.304688 76.246094 289.699219 76.242188 289.082031 C 76.257812 288.261719 76.113281 287.46875 75.8125 286.707031 C 75.496094 285.921875 75.03125 285.234375 74.425781 284.644531 Z M 74.425781 284.644531 " fill-opacity="1" fill-rule="nonzero"/><path fill="#172554" d="M 102.472656 283.894531 C 102.152344 283.644531 101.800781 283.457031 101.414062 283.332031 C 101.039062 283.140625 100.640625 283.015625 100.226562 282.957031 C 99.207031 282.785156 98.203125 282.84375 97.214844 283.140625 C 96.226562 283.4375 95.355469 283.9375 94.601562 284.644531 C 94.019531 285.25 93.5625 285.9375 93.226562 286.707031 C 92.921875 287.46875 92.777344 288.261719 92.792969 289.082031 C 92.785156 289.910156 92.941406 290.710938 93.253906 291.480469 C 93.570312 292.246094 94.019531 292.925781 94.601562 293.515625 C 95.195312 294.101562 95.882812 294.539062 96.664062 294.828125 C 97.421875 295.152344 98.214844 295.316406 99.039062 295.328125 C 99.4375 295.316406 99.832031 295.277344 100.226562 295.203125 C 100.640625 295.144531 101.039062 295.019531 101.414062 294.828125 C 101.800781 294.703125 102.152344 294.515625 102.472656 294.265625 C 102.847656 294.015625 103.160156 293.765625 103.472656 293.515625 C 103.761719 293.222656 104.019531 292.90625 104.242188 292.5625 C 104.46875 292.21875 104.660156 291.855469 104.816406 291.476562 C 104.972656 291.097656 105.089844 290.703125 105.167969 290.300781 C 105.246094 289.898438 105.285156 289.492188 105.285156 289.082031 C 105.285156 288.671875 105.246094 288.261719 105.167969 287.859375 C 105.089844 287.457031 104.972656 287.066406 104.816406 286.683594 C 104.660156 286.304688 104.46875 285.941406 104.242188 285.601562 C 104.019531 285.257812 103.761719 284.9375 103.472656 284.644531 C 103.167969 284.359375 102.832031 284.109375 102.472656 283.894531 Z M 102.472656 283.894531 " fill-opacity="1" fill-rule="nonzero"/><path fill="#172554" d="M 125.390625 122.664062 C 125.710938 123.5 126.054688 124.332031 126.421875 125.164062 C 125.683594 126.082031 125.035156 127.058594 124.476562 128.089844 C 123.917969 129.125 123.457031 130.203125 123.097656 131.324219 C 122.734375 132.441406 122.476562 133.585938 122.324219 134.75 C 122.175781 135.917969 122.128906 137.089844 122.191406 138.261719 C 122.253906 139.4375 122.421875 140.597656 122.695312 141.742188 C 122.972656 142.882812 123.347656 143.992188 123.824219 145.066406 C 124.304688 146.144531 124.875 147.164062 125.539062 148.136719 C 126.203125 149.105469 126.953125 150.007812 127.78125 150.839844 C 128.628906 151.648438 129.539062 152.375 130.515625 153.023438 C 131.488281 153.667969 132.515625 154.226562 133.589844 154.6875 C 134.664062 155.152344 135.769531 155.519531 136.910156 155.785156 C 138.046875 156.054688 139.203125 156.21875 140.371094 156.28125 C 141.539062 156.34375 142.703125 156.300781 143.867188 156.15625 C 145.027344 156.007812 146.167969 155.761719 147.285156 155.414062 C 148.402344 155.066406 149.480469 154.625 150.515625 154.082031 C 151.554688 153.542969 152.539062 152.917969 153.464844 152.203125 C 154.289062 152.566406 155.121094 152.914062 155.964844 153.234375 C 156.085938 154.40625 156.316406 155.554688 156.652344 156.683594 C 156.984375 157.8125 157.421875 158.902344 157.957031 159.949219 C 158.492188 161 159.117188 161.992188 159.835938 162.925781 C 160.550781 163.859375 161.347656 164.71875 162.222656 165.507812 C 163.097656 166.296875 164.039062 166.996094 165.042969 167.613281 C 166.046875 168.226562 167.097656 168.746094 168.199219 169.167969 C 169.296875 169.589844 170.425781 169.90625 171.582031 170.121094 C 172.742188 170.335938 173.910156 170.445312 175.085938 170.445312 C 176.265625 170.445312 177.433594 170.335938 178.589844 170.121094 C 179.746094 169.90625 180.875 169.589844 181.976562 169.167969 C 183.074219 168.746094 184.128906 168.226562 185.132812 167.613281 C 186.136719 166.996094 187.074219 166.296875 187.949219 165.507812 C 188.824219 164.71875 189.621094 163.859375 190.339844 162.925781 C 191.054688 161.992188 191.683594 161 192.21875 159.949219 C 192.753906 158.902344 193.1875 157.8125 193.523438 156.683594 C 193.855469 155.554688 194.085938 154.40625 194.210938 153.234375 C 195.058594 152.914062 195.894531 152.566406 196.707031 152.203125 C 197.632812 152.917969 198.617188 153.546875 199.65625 154.085938 C 200.691406 154.625 201.769531 155.070312 202.886719 155.417969 C 204.003906 155.765625 205.144531 156.015625 206.304688 156.160156 C 207.464844 156.304688 208.628906 156.347656 209.800781 156.285156 C 210.96875 156.222656 212.121094 156.058594 213.261719 155.789062 C 214.398438 155.523438 215.507812 155.15625 216.582031 154.691406 C 217.65625 154.226562 218.679688 153.671875 219.65625 153.023438 C 220.628906 152.378906 221.539062 151.648438 222.386719 150.839844 C 223.214844 150.007812 223.960938 149.105469 224.628906 148.136719 C 225.292969 147.164062 225.863281 146.144531 226.34375 145.066406 C 226.820312 143.992188 227.195312 142.882812 227.46875 141.742188 C 227.746094 140.597656 227.914062 139.4375 227.976562 138.261719 C 228.039062 137.089844 227.992188 135.917969 227.839844 134.75 C 227.6875 133.585938 227.433594 132.441406 227.070312 131.324219 C 226.710938 130.203125 226.25 129.125 225.691406 128.089844 C 225.132812 127.054688 224.484375 126.082031 223.746094 125.164062 C 224.109375 124.332031 224.457031 123.503906 224.785156 122.664062 C 225.953125 122.542969 227.105469 122.3125 228.234375 121.976562 C 229.363281 121.644531 230.453125 121.207031 231.5 120.671875 C 232.550781 120.136719 233.542969 119.511719 234.476562 118.796875 C 235.410156 118.078125 236.269531 117.28125 237.058594 116.40625 C 237.847656 115.53125 238.546875 114.589844 239.164062 113.585938 C 239.777344 112.582031 240.296875 111.53125 240.71875 110.433594 C 241.140625 109.332031 241.457031 108.203125 241.671875 107.046875 C 241.886719 105.886719 241.996094 104.71875 241.996094 103.542969 C 241.996094 102.363281 241.886719 101.199219 241.671875 100.039062 C 241.457031 98.882812 241.140625 97.753906 240.71875 96.652344 C 240.296875 95.554688 239.777344 94.503906 239.164062 93.5 C 238.546875 92.492188 237.847656 91.554688 237.058594 90.679688 C 236.269531 89.804688 235.410156 89.007812 234.476562 88.289062 C 233.542969 87.574219 232.550781 86.945312 231.5 86.414062 C 230.453125 85.878906 229.363281 85.441406 228.234375 85.105469 C 227.105469 84.773438 225.953125 84.542969 224.785156 84.417969 C 224.453125 83.578125 224.109375 82.738281 223.746094 81.921875 C 224.484375 81.003906 225.132812 80.027344 225.691406 78.992188 C 226.25 77.957031 226.710938 76.878906 227.074219 75.761719 C 227.433594 74.640625 227.691406 73.496094 227.84375 72.332031 C 227.996094 71.164062 228.039062 69.992188 227.976562 68.820312 C 227.917969 67.644531 227.746094 66.484375 227.472656 65.339844 C 227.199219 64.195312 226.820312 63.085938 226.34375 62.011719 C 225.867188 60.9375 225.292969 59.914062 224.628906 58.945312 C 223.964844 57.972656 223.214844 57.070312 222.386719 56.238281 C 221.539062 55.429688 220.628906 54.703125 219.652344 54.058594 C 218.675781 53.414062 217.652344 52.859375 216.578125 52.394531 C 215.503906 51.929688 214.398438 51.566406 213.257812 51.300781 C 212.121094 51.03125 210.96875 50.867188 209.796875 50.804688 C 208.628906 50.742188 207.464844 50.785156 206.304688 50.929688 C 205.144531 51.074219 204.007812 51.320312 202.890625 51.667969 C 201.773438 52.015625 200.695312 52.460938 199.65625 52.996094 C 198.617188 53.535156 197.636719 54.164062 196.707031 54.875 C 195.875 54.515625 195.042969 54.171875 194.210938 53.84375 C 194.085938 52.675781 193.855469 51.523438 193.523438 50.394531 C 193.1875 49.265625 192.753906 48.175781 192.21875 47.128906 C 191.683594 46.078125 191.054688 45.085938 190.339844 44.152344 C 189.621094 43.21875 188.824219 42.359375 187.949219 41.570312 C 187.074219 40.78125 186.136719 40.082031 185.132812 39.464844 C 184.128906 38.851562 183.074219 38.332031 181.976562 37.910156 C 180.875 37.488281 179.746094 37.171875 178.589844 36.957031 C 177.433594 36.742188 176.265625 36.632812 175.085938 36.632812 C 173.910156 36.632812 172.742188 36.742188 171.582031 36.957031 C 170.425781 37.171875 169.296875 37.488281 168.199219 37.910156 C 167.097656 38.332031 166.046875 38.851562 165.042969 39.464844 C 164.039062 40.082031 163.097656 40.78125 162.222656 41.570312 C 161.347656 42.359375 160.550781 43.21875 159.835938 44.152344 C 159.117188 45.085938 158.492188 46.078125 157.957031 47.128906 C 157.421875 48.175781 156.984375 49.265625 156.652344 50.394531 C 156.316406 51.523438 156.085938 52.675781 155.964844 53.84375 C 155.113281 54.171875 154.28125 54.515625 153.464844 54.875 C 152.539062 54.164062 151.554688 53.535156 150.515625 52.996094 C 149.476562 52.457031 148.398438 52.015625 147.28125 51.667969 C 146.164062 51.320312 145.027344 51.074219 143.863281 50.929688 C 142.703125 50.785156 141.539062 50.742188 140.371094 50.804688 C 139.203125 50.867188 138.046875 51.03125 136.910156 51.296875 C 135.769531 51.566406 134.664062 51.933594 133.589844 52.394531 C 132.515625 52.859375 131.488281 53.414062 130.515625 54.0625 C 129.539062 54.707031 128.628906 55.4375 127.78125 56.246094 C 126.953125 57.078125 126.203125 57.980469 125.539062 58.949219 C 124.875 59.917969 124.304688 60.941406 123.824219 62.015625 C 123.347656 63.089844 122.972656 64.199219 122.699219 65.34375 C 122.421875 66.484375 122.253906 67.644531 122.191406 68.820312 C 122.128906 69.992188 122.175781 71.164062 122.328125 72.328125 C 122.480469 73.496094 122.734375 74.636719 123.097656 75.757812 C 123.457031 76.875 123.917969 77.953125 124.476562 78.988281 C 125.035156 80.023438 125.683594 81 126.421875 81.914062 C 126.050781 82.738281 125.707031 83.582031 125.390625 84.414062 C 124.21875 84.535156 123.066406 84.765625 121.9375 85.101562 C 120.808594 85.4375 119.722656 85.871094 118.671875 86.40625 C 117.625 86.941406 116.632812 87.566406 115.699219 88.285156 C 114.761719 89 113.902344 89.796875 113.113281 90.671875 C 112.328125 91.546875 111.625 92.488281 111.011719 93.492188 C 110.394531 94.496094 109.875 95.546875 109.453125 96.648438 C 109.03125 97.746094 108.714844 98.875 108.5 100.03125 C 108.285156 101.191406 108.179688 102.359375 108.179688 103.535156 C 108.179688 104.714844 108.285156 105.882812 108.5 107.039062 C 108.714844 108.199219 109.03125 109.324219 109.453125 110.425781 C 109.875 111.523438 110.394531 112.578125 111.011719 113.582031 C 111.625 114.585938 112.328125 115.523438 113.113281 116.398438 C 113.902344 117.277344 114.761719 118.070312 115.699219 118.789062 C 116.632812 119.507812 117.625 120.132812 118.671875 120.667969 C 119.722656 121.203125 120.808594 121.636719 121.9375 121.972656 C 123.066406 122.304688 124.21875 122.535156 125.390625 122.660156 Z M 127.417969 96.808594 L 129.917969 96.808594 C 130.597656 96.808594 131.257812 96.699219 131.902344 96.484375 C 132.546875 96.269531 133.140625 95.957031 133.683594 95.550781 C 134.222656 95.140625 134.6875 94.65625 135.070312 94.097656 C 135.457031 93.539062 135.742188 92.929688 135.929688 92.277344 C 136.765625 89.316406 137.929688 86.492188 139.421875 83.800781 C 139.75 83.207031 139.976562 82.574219 140.101562 81.90625 C 140.226562 81.238281 140.242188 80.570312 140.148438 79.894531 C 140.050781 79.222656 139.851562 78.582031 139.550781 77.972656 C 139.246094 77.367188 138.851562 76.820312 138.371094 76.34375 L 136.617188 74.59375 C 136.304688 74.28125 136.027344 73.9375 135.78125 73.570312 C 135.539062 73.203125 135.332031 72.816406 135.164062 72.40625 C 134.996094 72 134.867188 71.578125 134.78125 71.144531 C 134.695312 70.710938 134.652344 70.273438 134.652344 69.832031 C 134.652344 69.390625 134.695312 68.953125 134.78125 68.519531 C 134.867188 68.085938 134.996094 67.664062 135.164062 67.257812 C 135.332031 66.847656 135.539062 66.460938 135.78125 66.09375 C 136.027344 65.726562 136.304688 65.386719 136.617188 65.070312 C 136.933594 64.769531 137.28125 64.5 137.648438 64.265625 C 138.019531 64.027344 138.410156 63.828125 138.816406 63.667969 C 139.226562 63.503906 139.644531 63.382812 140.078125 63.300781 C 140.507812 63.21875 140.941406 63.175781 141.382812 63.175781 C 141.820312 63.175781 142.257812 63.21875 142.6875 63.300781 C 143.121094 63.382812 143.539062 63.503906 143.949219 63.667969 C 144.355469 63.828125 144.746094 64.027344 145.113281 64.265625 C 145.484375 64.5 145.828125 64.769531 146.148438 65.070312 L 147.90625 66.828125 C 148.382812 67.308594 148.929688 67.699219 149.535156 68 C 150.140625 68.300781 150.78125 68.5 151.453125 68.59375 C 152.125 68.6875 152.792969 68.675781 153.460938 68.550781 C 154.128906 68.425781 154.757812 68.199219 155.351562 67.871094 C 158.046875 66.378906 160.878906 65.214844 163.839844 64.371094 C 164.492188 64.183594 165.097656 63.898438 165.65625 63.515625 C 166.214844 63.132812 166.699219 62.667969 167.105469 62.125 C 167.515625 61.585938 167.828125 60.992188 168.042969 60.351562 C 168.257812 59.707031 168.363281 59.046875 168.363281 58.367188 L 168.363281 55.871094 C 168.378906 55.4375 168.433594 55.007812 168.527344 54.585938 C 168.625 54.164062 168.757812 53.753906 168.933594 53.355469 C 169.109375 52.960938 169.320312 52.582031 169.570312 52.226562 C 169.816406 51.871094 170.097656 51.542969 170.40625 51.242188 C 170.71875 50.9375 171.054688 50.667969 171.417969 50.433594 C 171.78125 50.195312 172.164062 49.996094 172.566406 49.832031 C 172.96875 49.671875 173.382812 49.546875 173.808594 49.464844 C 174.234375 49.382812 174.664062 49.339844 175.097656 49.339844 C 175.53125 49.339844 175.960938 49.382812 176.382812 49.464844 C 176.808594 49.546875 177.222656 49.671875 177.625 49.832031 C 178.027344 49.996094 178.410156 50.195312 178.773438 50.433594 C 179.136719 50.667969 179.472656 50.9375 179.785156 51.242188 C 180.097656 51.542969 180.375 51.871094 180.625 52.226562 C 180.871094 52.582031 181.082031 52.960938 181.257812 53.355469 C 181.433594 53.753906 181.566406 54.164062 181.664062 54.585938 C 181.757812 55.007812 181.8125 55.4375 181.828125 55.871094 L 181.828125 58.367188 C 181.828125 59.046875 181.933594 59.707031 182.148438 60.347656 C 182.363281 60.992188 182.675781 61.582031 183.082031 62.125 C 183.488281 62.667969 183.972656 63.128906 184.53125 63.515625 C 185.089844 63.898438 185.691406 64.183594 186.34375 64.371094 C 189.308594 65.214844 192.140625 66.378906 194.839844 67.871094 C 195.433594 68.199219 196.0625 68.425781 196.730469 68.546875 C 197.394531 68.671875 198.0625 68.6875 198.734375 68.59375 C 199.40625 68.5 200.046875 68.300781 200.652344 68 C 201.257812 67.695312 201.800781 67.304688 202.28125 66.828125 L 204.042969 65.070312 C 204.363281 64.769531 204.707031 64.5 205.078125 64.265625 C 205.445312 64.03125 205.835938 63.832031 206.242188 63.667969 C 206.652344 63.503906 207.070312 63.382812 207.5 63.300781 C 207.933594 63.21875 208.367188 63.175781 208.804688 63.175781 C 209.246094 63.175781 209.679688 63.21875 210.113281 63.300781 C 210.542969 63.382812 210.960938 63.503906 211.371094 63.667969 C 211.777344 63.832031 212.167969 64.03125 212.535156 64.265625 C 212.90625 64.5 213.25 64.769531 213.570312 65.070312 C 213.882812 65.386719 214.160156 65.726562 214.40625 66.09375 C 214.648438 66.460938 214.855469 66.847656 215.023438 67.257812 C 215.195312 67.664062 215.320312 68.085938 215.40625 68.519531 C 215.492188 68.953125 215.535156 69.390625 215.535156 69.832031 C 215.535156 70.273438 215.492188 70.710938 215.40625 71.144531 C 215.320312 71.578125 215.195312 72 215.023438 72.40625 C 214.855469 72.816406 214.648438 73.203125 214.40625 73.570312 C 214.160156 73.9375 213.882812 74.28125 213.570312 74.59375 L 211.816406 76.34375 C 211.332031 76.820312 210.941406 77.363281 210.636719 77.972656 C 210.332031 78.578125 210.132812 79.21875 210.039062 79.890625 C 209.941406 80.5625 209.957031 81.234375 210.082031 81.902344 C 210.203125 82.570312 210.429688 83.199219 210.757812 83.796875 C 212.246094 86.492188 213.410156 89.324219 214.257812 92.285156 C 214.445312 92.9375 214.730469 93.542969 215.113281 94.101562 C 215.5 94.660156 215.960938 95.140625 216.503906 95.550781 C 217.042969 95.957031 217.636719 96.269531 218.28125 96.484375 C 218.921875 96.699219 219.582031 96.808594 220.261719 96.808594 L 222.757812 96.808594 C 223.203125 96.808594 223.640625 96.851562 224.074219 96.9375 C 224.507812 97.023438 224.929688 97.152344 225.335938 97.320312 C 225.746094 97.488281 226.132812 97.699219 226.5 97.941406 C 226.867188 98.1875 227.210938 98.46875 227.523438 98.78125 C 227.835938 99.09375 228.113281 99.433594 228.359375 99.800781 C 228.605469 100.167969 228.8125 100.558594 228.980469 100.964844 C 229.152344 101.375 229.277344 101.796875 229.363281 102.230469 C 229.453125 102.664062 229.496094 103.101562 229.496094 103.542969 C 229.496094 103.984375 229.453125 104.421875 229.363281 104.855469 C 229.277344 105.289062 229.152344 105.710938 228.980469 106.121094 C 228.8125 106.527344 228.605469 106.917969 228.359375 107.285156 C 228.113281 107.652344 227.835938 107.992188 227.523438 108.304688 C 227.210938 108.617188 226.867188 108.898438 226.5 109.140625 C 226.132812 109.386719 225.746094 109.59375 225.335938 109.765625 C 224.929688 109.933594 224.507812 110.0625 224.074219 110.148438 C 223.640625 110.234375 223.203125 110.277344 222.757812 110.277344 L 220.261719 110.277344 C 219.582031 110.277344 218.921875 110.386719 218.28125 110.601562 C 217.636719 110.816406 217.042969 111.125 216.503906 111.535156 C 215.960938 111.941406 215.5 112.425781 215.113281 112.984375 C 214.730469 113.542969 214.445312 114.148438 214.257812 114.800781 C 213.414062 117.761719 212.25 120.59375 210.765625 123.289062 C 210.433594 123.882812 210.207031 124.515625 210.085938 125.183594 C 209.960938 125.851562 209.945312 126.519531 210.042969 127.191406 C 210.136719 127.863281 210.335938 128.503906 210.636719 129.113281 C 210.941406 129.71875 211.332031 130.261719 211.816406 130.742188 L 213.5625 132.492188 C 213.875 132.804688 214.15625 133.144531 214.398438 133.511719 C 214.644531 133.882812 214.851562 134.269531 215.019531 134.675781 C 215.1875 135.085938 215.316406 135.507812 215.402344 135.941406 C 215.488281 136.375 215.53125 136.8125 215.53125 137.253906 C 215.53125 137.695312 215.488281 138.132812 215.402344 138.566406 C 215.316406 139 215.1875 139.421875 215.019531 139.828125 C 214.851562 140.238281 214.644531 140.625 214.398438 140.992188 C 214.15625 141.359375 213.875 141.699219 213.5625 142.011719 C 213.246094 142.316406 212.898438 142.585938 212.53125 142.820312 C 212.160156 143.054688 211.769531 143.253906 211.363281 143.417969 C 210.953125 143.582031 210.535156 143.703125 210.101562 143.785156 C 209.671875 143.867188 209.234375 143.910156 208.796875 143.910156 C 208.359375 143.910156 207.921875 143.867188 207.492188 143.785156 C 207.058594 143.703125 206.640625 143.582031 206.230469 143.417969 C 205.824219 143.253906 205.433594 143.054688 205.066406 142.820312 C 204.695312 142.585938 204.347656 142.316406 204.03125 142.011719 L 202.273438 140.257812 C 201.796875 139.777344 201.253906 139.390625 200.644531 139.085938 C 200.039062 138.785156 199.398438 138.585938 198.730469 138.492188 C 198.058594 138.398438 197.390625 138.414062 196.722656 138.535156 C 196.054688 138.660156 195.425781 138.886719 194.835938 139.214844 C 192.136719 140.703125 189.304688 141.871094 186.339844 142.714844 C 185.6875 142.902344 185.082031 143.1875 184.523438 143.570312 C 183.964844 143.957031 183.484375 144.417969 183.078125 144.960938 C 182.667969 145.5 182.359375 146.09375 182.144531 146.738281 C 181.929688 147.378906 181.820312 148.039062 181.820312 148.71875 L 181.820312 151.214844 C 181.808594 151.648438 181.753906 152.078125 181.65625 152.5 C 181.5625 152.921875 181.425781 153.332031 181.25 153.730469 C 181.078125 154.125 180.863281 154.503906 180.617188 154.859375 C 180.371094 155.214844 180.089844 155.542969 179.777344 155.84375 C 179.46875 156.148438 179.128906 156.414062 178.765625 156.652344 C 178.402344 156.890625 178.019531 157.089844 177.621094 157.253906 C 177.21875 157.414062 176.804688 157.539062 176.378906 157.621094 C 175.953125 157.703125 175.523438 157.746094 175.089844 157.746094 C 174.65625 157.746094 174.226562 157.703125 173.800781 157.621094 C 173.375 157.539062 172.960938 157.414062 172.558594 157.253906 C 172.15625 157.089844 171.777344 156.890625 171.414062 156.652344 C 171.050781 156.414062 170.710938 156.148438 170.402344 155.84375 C 170.089844 155.542969 169.808594 155.214844 169.5625 154.859375 C 169.316406 154.503906 169.101562 154.125 168.929688 153.730469 C 168.753906 153.332031 168.617188 152.921875 168.523438 152.5 C 168.425781 152.078125 168.371094 151.648438 168.359375 151.214844 L 168.359375 148.71875 C 168.359375 148.039062 168.25 147.378906 168.035156 146.734375 C 167.820312 146.09375 167.507812 145.5 167.101562 144.957031 C 166.691406 144.417969 166.210938 143.953125 165.652344 143.570312 C 165.09375 143.1875 164.488281 142.898438 163.835938 142.714844 C 160.871094 141.871094 158.042969 140.707031 155.34375 139.214844 C 154.398438 138.695312 153.386719 138.433594 152.308594 138.433594 C 151.480469 138.433594 150.6875 138.59375 149.921875 138.90625 C 149.160156 139.222656 148.484375 139.675781 147.898438 140.257812 L 146.136719 142.019531 C 145.816406 142.320312 145.472656 142.589844 145.101562 142.824219 C 144.730469 143.058594 144.34375 143.257812 143.9375 143.421875 C 143.527344 143.582031 143.109375 143.703125 142.675781 143.785156 C 142.246094 143.867188 141.8125 143.910156 141.375 143.910156 C 140.933594 143.910156 140.5 143.867188 140.070312 143.785156 C 139.636719 143.703125 139.21875 143.582031 138.8125 143.421875 C 138.402344 143.257812 138.015625 143.058594 137.644531 142.824219 C 137.273438 142.589844 136.929688 142.320312 136.609375 142.019531 C 136.296875 141.707031 136.019531 141.367188 135.777344 140.996094 C 135.53125 140.628906 135.328125 140.242188 135.160156 139.832031 C 134.988281 139.425781 134.863281 139.003906 134.777344 138.570312 C 134.691406 138.136719 134.648438 137.699219 134.648438 137.257812 C 134.648438 136.816406 134.691406 136.378906 134.777344 135.945312 C 134.863281 135.515625 134.988281 135.09375 135.160156 134.683594 C 135.328125 134.277344 135.53125 133.890625 135.777344 133.519531 C 136.019531 133.152344 136.296875 132.8125 136.609375 132.5 L 138.371094 130.742188 C 138.851562 130.261719 139.246094 129.71875 139.550781 129.113281 C 139.851562 128.503906 140.050781 127.863281 140.148438 127.191406 C 140.242188 126.515625 140.226562 125.847656 140.101562 125.175781 C 139.976562 124.507812 139.75 123.878906 139.421875 123.285156 C 137.929688 120.59375 136.765625 117.769531 135.929688 114.8125 C 135.742188 114.160156 135.457031 113.550781 135.074219 112.992188 C 134.6875 112.433594 134.226562 111.945312 133.683594 111.539062 C 133.140625 111.128906 132.546875 110.816406 131.902344 110.601562 C 131.261719 110.386719 130.597656 110.277344 129.917969 110.277344 L 127.417969 110.277344 C 126.976562 110.277344 126.539062 110.234375 126.105469 110.148438 C 125.671875 110.0625 125.25 109.933594 124.84375 109.765625 C 124.433594 109.59375 124.046875 109.386719 123.679688 109.140625 C 123.3125 108.898438 122.96875 108.617188 122.65625 108.304688 C 122.34375 107.992188 122.066406 107.652344 121.820312 107.285156 C 121.574219 106.917969 121.367188 106.527344 121.199219 106.121094 C 121.027344 105.710938 120.902344 105.289062 120.816406 104.855469 C 120.726562 104.421875 120.683594 103.984375 120.683594 103.542969 C 120.683594 103.101562 120.726562 102.664062 120.816406 102.230469 C 120.902344 101.796875 121.027344 101.375 121.199219 100.964844 C 121.367188 100.558594 121.574219 100.167969 121.820312 99.800781 C 122.066406 99.433594 122.34375 99.09375 122.65625 98.78125 C 122.96875 98.46875 123.3125 98.1875 123.679688 97.941406 C 124.046875 97.699219 124.433594 97.488281 124.84375 97.320312 C 125.25 97.152344 125.671875 97.023438 126.105469 96.9375 C 126.539062 96.851562 126.976562 96.808594 127.417969 96.808594 Z M 127.417969 96.808594 " fill-opacity="1" fill-rule="nonzero"/><path fill="#172554" d="M 175.628906 134.296875 C 176.636719 134.296875 177.640625 134.25 178.644531 134.148438 C 179.648438 134.050781 180.640625 133.902344 181.628906 133.707031 C 182.617188 133.511719 183.59375 133.265625 184.558594 132.972656 C 185.523438 132.679688 186.46875 132.34375 187.398438 131.957031 C 188.332031 131.570312 189.238281 131.140625 190.128906 130.667969 C 191.015625 130.191406 191.878906 129.675781 192.71875 129.113281 C 193.554688 128.554688 194.363281 127.957031 195.140625 127.316406 C 195.917969 126.679688 196.664062 126.003906 197.378906 125.289062 C 198.089844 124.578125 198.765625 123.832031 199.40625 123.054688 C 200.042969 122.273438 200.644531 121.46875 201.203125 120.628906 C 201.761719 119.792969 202.277344 118.929688 202.753906 118.039062 C 203.230469 117.152344 203.660156 116.242188 204.042969 115.3125 C 204.429688 114.382812 204.769531 113.433594 205.0625 112.46875 C 205.355469 111.507812 205.597656 110.53125 205.792969 109.542969 C 205.992188 108.554688 206.140625 107.558594 206.238281 106.558594 C 206.335938 105.554688 206.386719 104.550781 206.386719 103.542969 C 206.386719 102.535156 206.335938 101.53125 206.238281 100.527344 C 206.140625 99.527344 205.992188 98.53125 205.792969 97.542969 C 205.597656 96.554688 205.355469 95.578125 205.0625 94.613281 C 204.769531 93.652344 204.429688 92.703125 204.042969 91.773438 C 203.660156 90.84375 203.230469 89.933594 202.753906 89.042969 C 202.277344 88.15625 201.761719 87.292969 201.203125 86.457031 C 200.644531 85.617188 200.042969 84.808594 199.40625 84.03125 C 198.765625 83.253906 198.089844 82.507812 197.378906 81.796875 C 196.664062 81.082031 195.917969 80.40625 195.140625 79.769531 C 194.363281 79.128906 193.554688 78.53125 192.71875 77.96875 C 191.878906 77.410156 191.015625 76.894531 190.128906 76.417969 C 189.238281 75.945312 188.332031 75.515625 187.398438 75.128906 C 186.46875 74.742188 185.523438 74.402344 184.558594 74.113281 C 183.59375 73.820312 182.617188 73.574219 181.628906 73.378906 C 180.640625 73.183594 179.648438 73.035156 178.644531 72.933594 C 177.640625 72.835938 176.636719 72.789062 175.628906 72.789062 C 174.621094 72.789062 173.617188 72.835938 172.617188 72.933594 C 171.613281 73.035156 170.617188 73.183594 169.628906 73.378906 C 168.640625 73.574219 167.667969 73.820312 166.703125 74.113281 C 165.738281 74.402344 164.792969 74.742188 163.859375 75.128906 C 162.929688 75.515625 162.019531 75.945312 161.132812 76.417969 C 160.242188 76.894531 159.378906 77.410156 158.542969 77.96875 C 157.707031 78.53125 156.898438 79.128906 156.117188 79.769531 C 155.339844 80.40625 154.59375 81.082031 153.882812 81.796875 C 153.171875 82.507812 152.496094 83.253906 151.855469 84.03125 C 151.21875 84.808594 150.617188 85.617188 150.058594 86.457031 C 149.5 87.292969 148.980469 88.15625 148.507812 89.042969 C 148.03125 89.933594 147.601562 90.84375 147.214844 91.773438 C 146.832031 92.703125 146.492188 93.652344 146.199219 94.613281 C 145.90625 95.578125 145.664062 96.554688 145.464844 97.542969 C 145.269531 98.53125 145.121094 99.527344 145.023438 100.527344 C 144.925781 101.53125 144.875 102.535156 144.875 103.542969 C 144.875 104.550781 144.925781 105.554688 145.027344 106.554688 C 145.125 107.558594 145.273438 108.554688 145.472656 109.539062 C 145.667969 110.527344 145.914062 111.503906 146.207031 112.46875 C 146.5 113.429688 146.839844 114.378906 147.222656 115.308594 C 147.609375 116.238281 148.039062 117.148438 148.515625 118.035156 C 148.992188 118.921875 149.507812 119.785156 150.066406 120.621094 C 150.628906 121.460938 151.226562 122.265625 151.867188 123.046875 C 152.503906 123.824219 153.179688 124.570312 153.890625 125.28125 C 154.605469 125.992188 155.347656 126.667969 156.128906 127.308594 C 156.90625 127.945312 157.714844 128.546875 158.550781 129.105469 C 159.386719 129.664062 160.25 130.183594 161.136719 130.65625 C 162.027344 131.132812 162.933594 131.5625 163.867188 131.949219 C 164.796875 132.335938 165.742188 132.671875 166.707031 132.964844 C 167.667969 133.257812 168.644531 133.503906 169.632812 133.703125 C 170.621094 133.898438 171.613281 134.046875 172.617188 134.148438 C 173.617188 134.246094 174.625 134.296875 175.628906 134.296875 Z M 175.628906 85.28125 C 176.226562 85.28125 176.824219 85.3125 177.421875 85.371094 C 178.015625 85.429688 178.605469 85.515625 179.191406 85.632812 C 179.777344 85.75 180.359375 85.894531 180.929688 86.066406 C 181.503906 86.242188 182.066406 86.441406 182.617188 86.671875 C 183.171875 86.902344 183.710938 87.15625 184.238281 87.4375 C 184.765625 87.71875 185.277344 88.027344 185.773438 88.359375 C 186.273438 88.691406 186.753906 89.046875 187.214844 89.425781 C 187.675781 89.804688 188.121094 90.207031 188.542969 90.628906 C 188.964844 91.054688 189.367188 91.496094 189.746094 91.957031 C 190.125 92.421875 190.480469 92.898438 190.8125 93.398438 C 191.144531 93.894531 191.453125 94.40625 191.734375 94.933594 C 192.015625 95.460938 192.273438 96.003906 192.5 96.554688 C 192.730469 97.105469 192.929688 97.667969 193.105469 98.242188 C 193.277344 98.8125 193.421875 99.394531 193.539062 99.980469 C 193.65625 100.566406 193.746094 101.15625 193.804688 101.753906 C 193.863281 102.347656 193.890625 102.945312 193.890625 103.542969 C 193.890625 104.140625 193.863281 104.738281 193.804688 105.332031 C 193.746094 105.925781 193.65625 106.519531 193.539062 107.105469 C 193.421875 107.691406 193.277344 108.269531 193.105469 108.84375 C 192.929688 109.414062 192.730469 109.976562 192.5 110.53125 C 192.273438 111.082031 192.015625 111.625 191.734375 112.152344 C 191.453125 112.679688 191.144531 113.191406 190.8125 113.6875 C 190.480469 114.183594 190.125 114.664062 189.746094 115.128906 C 189.367188 115.589844 188.964844 116.03125 188.542969 116.453125 C 188.121094 116.878906 187.675781 117.277344 187.214844 117.660156 C 186.753906 118.039062 186.273438 118.394531 185.773438 118.726562 C 185.277344 119.058594 184.765625 119.367188 184.238281 119.648438 C 183.710938 119.929688 183.171875 120.183594 182.617188 120.414062 C 182.066406 120.640625 181.503906 120.84375 180.929688 121.015625 C 180.359375 121.191406 179.777344 121.335938 179.191406 121.453125 C 178.605469 121.570312 178.015625 121.65625 177.421875 121.714844 C 176.824219 121.773438 176.226562 121.804688 175.628906 121.804688 C 175.03125 121.804688 174.433594 121.773438 173.839844 121.714844 C 173.246094 121.65625 172.652344 121.570312 172.066406 121.453125 C 171.480469 121.335938 170.902344 121.191406 170.328125 121.015625 C 169.757812 120.84375 169.195312 120.640625 168.640625 120.414062 C 168.089844 120.183594 167.550781 119.929688 167.023438 119.648438 C 166.496094 119.367188 165.980469 119.058594 165.484375 118.726562 C 164.988281 118.394531 164.507812 118.039062 164.046875 117.660156 C 163.582031 117.277344 163.140625 116.878906 162.71875 116.453125 C 162.292969 116.03125 161.894531 115.589844 161.515625 115.128906 C 161.136719 114.664062 160.777344 114.183594 160.445312 113.6875 C 160.113281 113.191406 159.808594 112.679688 159.527344 112.152344 C 159.242188 111.625 158.988281 111.082031 158.757812 110.53125 C 158.53125 109.976562 158.328125 109.414062 158.15625 108.84375 C 157.980469 108.269531 157.835938 107.691406 157.71875 107.105469 C 157.601562 106.519531 157.515625 105.925781 157.457031 105.332031 C 157.398438 104.738281 157.371094 104.140625 157.371094 103.542969 C 157.371094 102.945312 157.398438 102.347656 157.460938 101.753906 C 157.519531 101.160156 157.605469 100.566406 157.722656 99.980469 C 157.839844 99.394531 157.988281 98.816406 158.160156 98.246094 C 158.335938 97.671875 158.535156 97.109375 158.765625 96.558594 C 158.996094 96.007812 159.25 95.464844 159.53125 94.941406 C 159.816406 94.414062 160.121094 93.898438 160.453125 93.402344 C 160.785156 92.90625 161.144531 92.425781 161.523438 91.964844 C 161.902344 91.503906 162.300781 91.058594 162.726562 90.636719 C 163.148438 90.214844 163.589844 89.8125 164.050781 89.433594 C 164.515625 89.054688 164.992188 88.699219 165.492188 88.367188 C 165.988281 88.035156 166.5 87.726562 167.027344 87.445312 C 167.554688 87.164062 168.09375 86.90625 168.644531 86.679688 C 169.199219 86.449219 169.761719 86.246094 170.332031 86.074219 C 170.902344 85.898438 171.484375 85.753906 172.070312 85.636719 C 172.65625 85.519531 173.246094 85.429688 173.839844 85.371094 C 174.4375 85.3125 175.03125 85.28125 175.628906 85.28125 Z M 175.628906 85.28125 " fill-opacity="1" fill-rule="nonzero"/></svg>