<svg xmlns="http://www.w3.org/2000/svg" xmlns:xlink="http://www.w3.org/1999/xlink" width="500" zoomAndPan="magnify" viewBox="0 0 375 374.999991" height="500" preserveAspectRatio="xMidYMid meet" version="1.0"><defs><clipPath id="bc79abd552"><path d="M 14.84375 0 L 359.84375 0 L 359.84375 375 L 14.84375 375 Z M 14.84375 0 " clip-rule="nonzero"/></clipPath><clipPath id="d6b4747463"><path d="M 14.84375 0 L 359.84375 0 L 359.84375 375 L 14.84375 375 Z M 14.84375 0 " clip-rule="nonzero"/></clipPath></defs><path fill="#93c5fd" d="M 187.671875 267.960938 C 187.671875 266.28125 186.316406 264.929688 184.636719 264.929688 L 160.5625 264.929688 C 158.890625 264.929688 157.527344 266.285156 157.527344 267.960938 C 157.527344 269.640625 158.886719 271 160.5625 271 L 184.636719 271 C 186.316406 271 187.671875 269.644531 187.671875 267.960938 Z M 287.414062 108.097656 C 306.933594 108.097656 322.820312 92.210938 322.820312 72.691406 C 322.820312 53.171875 306.933594 37.289062 287.414062 37.289062 C 267.890625 37.289062 252.003906 53.164062 252.003906 72.691406 C 252.003906 92.21875 267.890625 108.097656 287.414062 108.097656 Z M 152.046875 125.773438 C 132.523438 125.773438 116.636719 141.65625 116.636719 161.179688 C 116.636719 180.703125 132.523438 196.582031 152.046875 196.582031 C 171.566406 196.582031 187.449219 180.699219 187.449219 161.179688 C 187.449219 141.65625 171.566406 125.773438 152.046875 125.773438 Z M 254.167969 356.355469 C 254.167969 362.03125 249.546875 366.644531 243.871094 366.644531 L 101.328125 366.644531 C 95.652344 366.644531 91.039062 362.03125 91.039062 356.355469 C 91.039062 350.683594 95.652344 346.066406 101.328125 346.066406 L 243.871094 346.066406 C 249.546875 346.066406 254.167969 350.683594 254.167969 356.355469 Z M 42.027344 286.695312 C 31.632812 286.695312 23.171875 278.238281 23.171875 267.839844 L 23.171875 249.226562 L 322.03125 249.226562 L 322.03125 267.839844 C 322.03125 278.238281 313.566406 286.695312 303.171875 286.695312 Z M 237.710938 110.882812 C 242.496094 105.679688 243.746094 98.421875 241.039062 91.898438 C 238.320312 85.335938 232.371094 81.125 225.265625 80.832031 L 223.082031 80.742188 L 223.082031 64.640625 L 225.265625 64.550781 C 232.371094 64.253906 238.320312 60.046875 241.039062 53.480469 C 243.746094 46.957031 242.496094 39.703125 237.710938 34.503906 L 236.234375 32.894531 L 247.617188 21.507812 L 249.226562 22.988281 C 254.425781 27.78125 261.679688 29.019531 268.203125 26.316406 C 274.769531 23.597656 278.980469 17.652344 279.273438 10.542969 L 279.359375 8.359375 L 295.460938 8.359375 L 295.550781 10.542969 C 295.847656 17.648438 300.054688 23.601562 306.617188 26.320312 C 313.144531 29.023438 320.398438 27.777344 325.605469 22.988281 L 327.210938 21.511719 L 338.597656 32.898438 L 337.117188 34.503906 C 332.324219 39.707031 331.085938 46.957031 333.789062 53.484375 C 336.507812 60.046875 342.453125 64.261719 349.5625 64.550781 L 351.746094 64.640625 L 351.746094 80.742188 L 349.566406 80.832031 C 342.457031 81.128906 336.511719 85.335938 333.789062 91.902344 C 331.082031 98.429688 332.328125 105.679688 337.117188 110.882812 L 338.597656 112.492188 L 327.210938 123.875 L 325.605469 122.398438 C 320.398438 117.609375 313.148438 116.363281 306.617188 119.070312 C 300.054688 121.789062 295.847656 127.742188 295.550781 134.847656 L 295.460938 137.027344 L 279.359375 137.027344 L 279.273438 134.84375 C 278.980469 127.738281 274.777344 121.777344 268.210938 119.058594 C 261.679688 116.355469 254.429688 117.605469 249.226562 122.398438 L 247.617188 123.878906 L 236.230469 112.492188 Z M 198.421875 141.96875 C 201.140625 148.535156 207.089844 152.742188 214.195312 153.035156 L 216.378906 153.125 L 216.378906 169.226562 L 214.195312 169.320312 C 207.089844 169.613281 201.140625 173.820312 198.421875 180.386719 C 195.714844 186.914062 196.957031 194.164062 201.75 199.367188 L 203.230469 200.976562 L 191.84375 212.363281 L 190.238281 210.882812 C 185.03125 206.09375 177.78125 204.847656 171.253906 207.554688 C 164.691406 210.273438 160.484375 216.222656 160.183594 223.328125 L 160.089844 225.507812 L 143.992188 225.507812 L 143.902344 223.324219 C 143.613281 216.21875 139.410156 210.261719 132.847656 207.542969 C 126.316406 204.839844 119.0625 206.085938 113.863281 210.882812 L 112.253906 212.363281 L 100.867188 200.976562 L 102.347656 199.371094 C 107.128906 194.167969 108.378906 186.914062 105.675781 180.386719 C 102.957031 173.824219 97.003906 169.613281 89.898438 169.320312 L 87.714844 169.230469 L 87.714844 153.128906 L 89.898438 153.039062 C 97.003906 152.742188 102.957031 148.53125 105.675781 141.96875 C 108.378906 135.445312 107.128906 128.195312 102.347656 122.992188 L 100.867188 121.382812 L 112.253906 109.996094 L 113.863281 111.480469 C 119.058594 116.269531 126.3125 117.507812 132.835938 114.804688 C 139.402344 112.085938 143.613281 106.140625 143.902344 99.03125 L 143.992188 96.847656 L 160.089844 96.847656 L 160.183594 99.027344 C 160.480469 106.132812 164.6875 112.085938 171.253906 114.804688 C 177.78125 117.511719 185.03125 116.265625 190.234375 111.476562 L 191.84375 110 L 203.230469 121.386719 L 201.75 122.992188 C 196.957031 128.191406 195.714844 135.441406 198.421875 141.96875 Z M 198.421875 141.96875 " fill-opacity="1" fill-rule="evenodd"/><g clip-path="url(#bc79abd552)"><path fill="#172554" d="M 124.988281 161.179688 C 124.988281 176.097656 137.125 188.230469 152.046875 188.230469 C 166.964844 188.230469 179.101562 176.097656 179.101562 161.179688 C 179.101562 146.257812 166.964844 134.121094 152.046875 134.121094 C 137.125 134.125 124.988281 146.257812 124.988281 161.179688 Z M 114.359375 161.179688 C 114.359375 140.402344 131.265625 123.496094 152.046875 123.496094 C 172.824219 123.496094 189.726562 140.402344 189.726562 161.179688 C 189.726562 181.957031 172.824219 198.859375 152.046875 198.859375 C 131.265625 198.859375 114.359375 181.957031 114.359375 161.179688 Z M 89.996094 167.042969 L 89.996094 155.3125 C 97.933594 154.984375 104.699219 150.269531 107.78125 142.839844 C 110.855469 135.410156 109.402344 127.296875 104.023438 121.449219 L 112.320312 113.152344 C 118.160156 118.535156 126.277344 119.984375 133.707031 116.910156 C 141.140625 113.828125 145.855469 107.070312 146.179688 99.125 L 157.90625 99.125 C 158.242188 107.070312 162.957031 113.832031 170.382812 116.910156 C 177.808594 119.984375 185.925781 118.535156 191.777344 113.152344 L 200.074219 121.449219 C 194.683594 127.296875 193.234375 135.410156 196.316406 142.839844 C 199.390625 150.269531 206.15625 154.984375 214.101562 155.3125 L 214.101562 167.042969 C 206.15625 167.371094 199.390625 172.085938 196.316406 179.515625 C 193.234375 186.941406 194.683594 195.054688 200.074219 200.910156 L 191.777344 209.207031 C 185.921875 203.820312 177.808594 202.371094 170.382812 205.449219 C 162.957031 208.523438 158.242188 215.285156 157.90625 223.230469 L 146.179688 223.230469 C 145.855469 215.28125 141.140625 208.511719 133.71875 205.4375 C 126.285156 202.359375 118.167969 203.8125 112.320312 209.207031 L 104.023438 200.910156 C 109.402344 195.058594 110.855469 186.941406 107.78125 179.515625 C 104.699219 172.085938 97.933594 167.371094 89.996094 167.042969 Z M 79.367188 167.914062 L 79.367188 154.441406 C 79.367188 149.074219 83.730469 144.703125 89.105469 144.703125 C 93.113281 144.703125 96.421875 142.488281 97.957031 138.777344 C 99.496094 135.0625 98.722656 131.15625 95.890625 128.320312 C 92.085938 124.523438 92.085938 118.34375 95.882812 114.546875 L 105.417969 105.019531 C 109.210938 101.226562 115.394531 101.226562 119.1875 105.019531 C 122.019531 107.851562 125.929688 108.628906 129.640625 107.089844 C 133.351562 105.554688 135.566406 102.242188 135.566406 98.234375 C 135.566406 92.867188 139.941406 88.5 145.308594 88.5 L 158.78125 88.5 C 164.144531 88.5 168.519531 92.867188 168.519531 98.234375 C 168.519531 102.242188 170.734375 105.554688 174.449219 107.089844 C 178.160156 108.628906 182.070312 107.851562 184.902344 105.019531 C 188.695312 101.226562 194.875 101.226562 198.675781 105.019531 L 208.203125 114.546875 C 211.996094 118.34375 211.996094 124.523438 208.203125 128.320312 C 205.367188 131.15625 204.597656 135.0625 206.132812 138.777344 C 207.671875 142.488281 210.984375 144.703125 214.988281 144.703125 C 220.355469 144.703125 224.730469 149.074219 224.730469 154.441406 L 224.730469 167.914062 C 224.730469 173.285156 220.355469 177.652344 214.988281 177.652344 C 210.984375 177.652344 207.671875 179.867188 206.132812 183.582031 C 204.597656 187.292969 205.363281 191.199219 208.203125 194.035156 C 211.996094 197.832031 211.996094 204.011719 208.203125 207.808594 L 198.675781 217.335938 C 196.832031 219.179688 194.386719 220.1875 191.785156 220.1875 C 189.1875 220.1875 186.738281 219.179688 184.902344 217.335938 C 182.070312 214.503906 178.160156 213.726562 174.449219 215.269531 C 170.734375 216.804688 168.519531 220.109375 168.519531 224.121094 C 168.519531 229.492188 164.144531 233.855469 158.78125 233.855469 L 145.304688 233.855469 C 139.9375 233.855469 135.566406 229.492188 135.566406 224.121094 C 135.566406 220.101562 133.347656 216.792969 129.644531 215.253906 C 125.9375 213.71875 122.023438 214.496094 119.1875 217.335938 C 117.351562 219.179688 114.902344 220.1875 112.300781 220.1875 C 109.699219 220.1875 107.253906 219.179688 105.417969 217.335938 L 95.890625 207.808594 C 92.085938 204.011719 92.085938 197.832031 95.890625 194.035156 C 98.722656 191.199219 99.496094 187.292969 97.953125 183.582031 C 96.421875 179.867188 93.113281 177.652344 89.105469 177.652344 C 83.730469 177.652344 79.367188 173.285156 79.367188 167.914062 Z M 314.46875 72.691406 C 314.46875 57.769531 302.328125 45.636719 287.414062 45.636719 C 272.492188 45.636719 260.355469 57.769531 260.355469 72.691406 C 260.355469 87.609375 272.492188 99.75 287.414062 99.75 C 302.328125 99.75 314.46875 87.609375 314.46875 72.691406 Z M 325.09375 72.691406 C 325.09375 93.46875 308.1875 110.375 287.414062 110.375 C 266.628906 110.375 249.726562 93.46875 249.726562 72.691406 C 249.726562 51.914062 266.628906 35.011719 287.414062 35.011719 C 308.1875 35.011719 325.09375 51.914062 325.09375 72.691406 Z M 349.46875 66.824219 L 349.46875 78.554688 C 341.519531 78.882812 334.761719 83.597656 331.683594 91.027344 C 328.601562 98.453125 330.054688 106.570312 335.441406 112.421875 L 327.148438 120.71875 C 321.292969 115.332031 313.179688 113.882812 305.746094 116.960938 C 298.324219 120.035156 293.609375 126.800781 293.277344 134.746094 L 281.546875 134.746094 C 281.222656 126.792969 276.507812 120.027344 269.085938 116.953125 C 261.652344 113.875 253.539062 115.324219 247.683594 120.71875 L 239.390625 112.421875 C 244.769531 106.574219 246.21875 98.457031 243.144531 91.027344 C 240.0625 83.597656 233.304688 78.886719 225.359375 78.554688 L 225.359375 66.824219 C 233.304688 66.496094 240.0625 61.78125 243.144531 54.351562 C 246.21875 46.925781 244.769531 38.808594 239.390625 32.960938 L 247.683594 24.664062 C 253.53125 30.050781 261.644531 31.5 269.078125 28.421875 C 276.507812 25.34375 281.222656 18.582031 281.546875 10.636719 L 293.277344 10.636719 C 293.609375 18.582031 298.324219 25.34375 305.746094 28.421875 C 313.179688 31.496094 321.292969 30.050781 327.148438 24.664062 L 335.441406 32.960938 C 330.054688 38.808594 328.601562 46.925781 331.683594 54.351562 C 334.761719 61.78125 341.519531 66.5 349.46875 66.824219 Z M 319.753906 267.839844 L 319.753906 251.503906 L 25.449219 251.503906 L 25.449219 267.839844 C 25.449219 276.980469 32.886719 284.417969 42.027344 284.417969 L 303.171875 284.417969 C 312.308594 284.417969 319.753906 276.980469 319.753906 267.839844 Z M 206.136719 295.046875 L 138.402344 295.046875 C 138.132812 309.636719 135.210938 325.59375 130.648438 337.714844 L 214.445312 337.714844 C 209.664062 325.433594 206.519531 309.46875 206.136719 295.046875 Z M 243.871094 348.34375 L 101.328125 348.34375 C 96.910156 348.34375 93.316406 351.941406 93.316406 356.355469 C 93.316406 360.773438 96.910156 364.367188 101.328125 364.367188 L 243.871094 364.367188 C 248.289062 364.367188 251.890625 360.773438 251.890625 356.355469 C 251.890625 351.941406 248.289062 348.34375 243.871094 348.34375 Z M 25.449219 92.808594 C 25.449219 83.667969 32.886719 76.230469 42.027344 76.230469 L 214.734375 76.230469 L 214.734375 79.429688 C 214.734375 84.800781 219.097656 89.167969 224.472656 89.167969 C 228.480469 89.167969 231.789062 91.382812 233.324219 95.09375 C 234.863281 98.804688 234.089844 102.714844 231.257812 105.546875 C 227.457031 109.34375 227.457031 115.523438 231.257812 119.320312 L 240.785156 128.847656 C 242.625 130.6875 245.066406 131.699219 247.667969 131.699219 C 250.273438 131.699219 252.714844 130.6875 254.554688 128.847656 C 257.394531 126.007812 261.300781 125.234375 265.015625 126.769531 C 268.71875 128.304688 270.933594 131.617188 270.933594 135.632812 C 270.933594 141.003906 275.308594 145.371094 280.671875 145.371094 L 294.148438 145.371094 C 299.523438 145.371094 303.886719 141.003906 303.886719 135.632812 C 303.886719 131.625 306.105469 128.320312 309.816406 126.78125 C 313.308594 125.335938 316.972656 125.933594 319.753906 128.367188 L 319.753906 240.878906 L 25.449219 240.878906 Z M 360.09375 65.957031 L 360.09375 79.429688 C 360.09375 84.800781 355.722656 89.167969 350.359375 89.167969 C 346.351562 89.167969 343.039062 91.382812 341.5 95.09375 C 339.96875 98.804688 340.730469 102.714844 343.570312 105.546875 C 345.410156 107.386719 346.425781 109.835938 346.425781 112.433594 C 346.425781 115.039062 345.410156 117.484375 343.570312 119.324219 L 334.046875 128.847656 C 332.988281 129.898438 331.734375 130.667969 330.378906 131.144531 L 330.378906 267.839844 C 330.378906 282.839844 318.171875 295.046875 303.171875 295.046875 L 216.765625 295.046875 C 217.214844 311.160156 221.371094 327.613281 225.980469 337.714844 L 243.871094 337.714844 C 254.148438 337.714844 262.515625 346.082031 262.515625 356.355469 C 262.515625 366.636719 254.148438 374.992188 243.871094 374.992188 L 101.328125 374.992188 C 91.054688 374.992188 82.691406 366.636719 82.691406 356.355469 C 82.691406 346.082031 91.054688 337.714844 101.328125 337.714844 L 119.171875 337.714844 C 123.570312 327.777344 127.476562 311.382812 127.773438 295.046875 L 42.027344 295.046875 C 27.027344 295.046875 14.820312 282.839844 14.820312 267.839844 L 14.820312 92.808594 C 14.820312 77.804688 27.027344 65.601562 42.027344 65.601562 L 214.75 65.601562 C 214.9375 60.394531 219.21875 56.214844 224.472656 56.214844 C 228.480469 56.214844 231.789062 54 233.324219 50.289062 C 234.863281 46.574219 234.089844 42.667969 231.257812 39.835938 C 227.457031 36.035156 227.457031 29.859375 231.253906 26.0625 L 240.785156 16.53125 C 244.578125 12.738281 250.757812 12.738281 254.554688 16.53125 C 257.386719 19.367188 261.292969 20.140625 265.007812 18.605469 C 268.71875 17.066406 270.933594 13.753906 270.933594 9.75 C 270.933594 4.378906 275.308594 0.0078125 280.671875 0.0078125 L 294.144531 0.0078125 C 299.519531 0.0078125 303.882812 4.378906 303.882812 9.75 C 303.882812 13.753906 306.101562 17.066406 309.8125 18.605469 C 313.527344 20.140625 317.433594 19.367188 320.265625 16.53125 C 324.0625 12.738281 330.242188 12.738281 334.042969 16.53125 L 343.570312 26.0625 C 347.367188 29.859375 347.367188 36.035156 343.570312 39.835938 C 340.730469 42.667969 339.964844 46.574219 341.496094 50.289062 C 343.039062 54 346.347656 56.214844 350.359375 56.214844 C 355.722656 56.214844 360.09375 60.585938 360.09375 65.957031 Z M 189.949219 267.960938 C 189.949219 270.902344 187.574219 273.277344 184.636719 273.277344 L 160.5625 273.277344 C 157.636719 273.277344 155.25 270.902344 155.25 267.960938 C 155.25 265.027344 157.636719 262.652344 160.5625 262.652344 L 184.636719 262.652344 C 187.574219 262.652344 189.949219 265.027344 189.949219 267.960938 Z M 189.949219 267.960938 " fill-opacity="1" fill-rule="evenodd"/></g><path fill="#93c5fd" d="M 187.671875 267.960938 C 187.671875 266.28125 186.316406 264.929688 184.636719 264.929688 L 160.5625 264.929688 C 158.890625 264.929688 157.527344 266.285156 157.527344 267.960938 C 157.527344 269.640625 158.886719 271 160.5625 271 L 184.636719 271 C 186.316406 271 187.671875 269.644531 187.671875 267.960938 Z M 287.414062 108.097656 C 306.933594 108.097656 322.820312 92.210938 322.820312 72.691406 C 322.820312 53.171875 306.933594 37.289062 287.414062 37.289062 C 267.890625 37.289062 252.003906 53.164062 252.003906 72.691406 C 252.003906 92.21875 267.890625 108.097656 287.414062 108.097656 Z M 152.046875 125.773438 C 132.523438 125.773438 116.636719 141.65625 116.636719 161.179688 C 116.636719 180.703125 132.523438 196.582031 152.046875 196.582031 C 171.566406 196.582031 187.449219 180.699219 187.449219 161.179688 C 187.449219 141.65625 171.566406 125.773438 152.046875 125.773438 Z M 254.167969 356.355469 C 254.167969 362.03125 249.546875 366.644531 243.871094 366.644531 L 101.328125 366.644531 C 95.652344 366.644531 91.039062 362.03125 91.039062 356.355469 C 91.039062 350.683594 95.652344 346.066406 101.328125 346.066406 L 243.871094 346.066406 C 249.546875 346.066406 254.167969 350.683594 254.167969 356.355469 Z M 42.027344 286.695312 C 31.632812 286.695312 23.171875 278.238281 23.171875 267.839844 L 23.171875 249.226562 L 322.03125 249.226562 L 322.03125 267.839844 C 322.03125 278.238281 313.566406 286.695312 303.171875 286.695312 Z M 237.710938 110.882812 C 242.496094 105.679688 243.746094 98.421875 241.039062 91.898438 C 238.320312 85.335938 232.371094 81.125 225.265625 80.832031 L 223.082031 80.742188 L 223.082031 64.640625 L 225.265625 64.550781 C 232.371094 64.253906 238.320312 60.046875 241.039062 53.480469 C 243.746094 46.957031 242.496094 39.703125 237.710938 34.503906 L 236.234375 32.894531 L 247.617188 21.507812 L 249.226562 22.988281 C 254.425781 27.78125 261.679688 29.019531 268.203125 26.316406 C 274.769531 23.597656 278.980469 17.652344 279.273438 10.542969 L 279.359375 8.359375 L 295.460938 8.359375 L 295.550781 10.542969 C 295.847656 17.648438 300.054688 23.601562 306.617188 26.320312 C 313.144531 29.023438 320.398438 27.777344 325.605469 22.988281 L 327.210938 21.511719 L 338.597656 32.898438 L 337.117188 34.503906 C 332.324219 39.707031 331.085938 46.957031 333.789062 53.484375 C 336.507812 60.046875 342.453125 64.261719 349.5625 64.550781 L 351.746094 64.640625 L 351.746094 80.742188 L 349.566406 80.832031 C 342.457031 81.128906 336.511719 85.335938 333.789062 91.902344 C 331.082031 98.429688 332.328125 105.679688 337.117188 110.882812 L 338.597656 112.492188 L 327.210938 123.875 L 325.605469 122.398438 C 320.398438 117.609375 313.148438 116.363281 306.617188 119.070312 C 300.054688 121.789062 295.847656 127.742188 295.550781 134.847656 L 295.460938 137.027344 L 279.359375 137.027344 L 279.273438 134.84375 C 278.980469 127.738281 274.777344 121.777344 268.210938 119.058594 C 261.679688 116.355469 254.429688 117.605469 249.226562 122.398438 L 247.617188 123.878906 L 236.230469 112.492188 Z M 198.421875 141.96875 C 201.140625 148.535156 207.089844 152.742188 214.195312 153.035156 L 216.378906 153.125 L 216.378906 169.226562 L 214.195312 169.320312 C 207.089844 169.613281 201.140625 173.820312 198.421875 180.386719 C 195.714844 186.914062 196.957031 194.164062 201.75 199.367188 L 203.230469 200.976562 L 191.84375 212.363281 L 190.238281 210.882812 C 185.03125 206.09375 177.78125 204.847656 171.253906 207.554688 C 164.691406 210.273438 160.484375 216.222656 160.183594 223.328125 L 160.089844 225.507812 L 143.992188 225.507812 L 143.902344 223.324219 C 143.613281 216.21875 139.410156 210.261719 132.847656 207.542969 C 126.316406 204.839844 119.0625 206.085938 113.863281 210.882812 L 112.253906 212.363281 L 100.867188 200.976562 L 102.347656 199.371094 C 107.128906 194.167969 108.378906 186.914062 105.675781 180.386719 C 102.957031 173.824219 97.003906 169.613281 89.898438 169.320312 L 87.714844 169.230469 L 87.714844 153.128906 L 89.898438 153.039062 C 97.003906 152.742188 102.957031 148.53125 105.675781 141.96875 C 108.378906 135.445312 107.128906 128.195312 102.347656 122.992188 L 100.867188 121.382812 L 112.253906 109.996094 L 113.863281 111.480469 C 119.058594 116.269531 126.3125 117.507812 132.835938 114.804688 C 139.402344 112.085938 143.613281 106.140625 143.902344 99.03125 L 143.992188 96.847656 L 160.089844 96.847656 L 160.183594 99.027344 C 160.480469 106.132812 164.6875 112.085938 171.253906 114.804688 C 177.78125 117.511719 185.03125 116.265625 190.234375 111.476562 L 191.84375 110 L 203.230469 121.386719 L 201.75 122.992188 C 196.957031 128.191406 195.714844 135.441406 198.421875 141.96875 Z M 198.421875 141.96875 " fill-opacity="1" fill-rule="evenodd"/><g clip-path="url(#d6b4747463)"><path fill="#172554" d="M 124.988281 161.179688 C 124.988281 176.097656 137.125 188.230469 152.046875 188.230469 C 166.964844 188.230469 179.101562 176.097656 179.101562 161.179688 C 179.101562 146.257812 166.964844 134.121094 152.046875 134.121094 C 137.125 134.125 124.988281 146.257812 124.988281 161.179688 Z M 114.359375 161.179688 C 114.359375 140.402344 131.265625 123.496094 152.046875 123.496094 C 172.824219 123.496094 189.726562 140.402344 189.726562 161.179688 C 189.726562 181.957031 172.824219 198.859375 152.046875 198.859375 C 131.265625 198.859375 114.359375 181.957031 114.359375 161.179688 Z M 89.996094 167.042969 L 89.996094 155.3125 C 97.933594 154.984375 104.699219 150.269531 107.78125 142.839844 C 110.855469 135.410156 109.402344 127.296875 104.023438 121.449219 L 112.320312 113.152344 C 118.160156 118.535156 126.277344 119.984375 133.707031 116.910156 C 141.140625 113.828125 145.855469 107.070312 146.179688 99.125 L 157.90625 99.125 C 158.242188 107.070312 162.957031 113.832031 170.382812 116.910156 C 177.808594 119.984375 185.925781 118.535156 191.777344 113.152344 L 200.074219 121.449219 C 194.683594 127.296875 193.234375 135.410156 196.316406 142.839844 C 199.390625 150.269531 206.15625 154.984375 214.101562 155.3125 L 214.101562 167.042969 C 206.15625 167.371094 199.390625 172.085938 196.316406 179.515625 C 193.234375 186.941406 194.683594 195.054688 200.074219 200.910156 L 191.777344 209.207031 C 185.921875 203.820312 177.808594 202.371094 170.382812 205.449219 C 162.957031 208.523438 158.242188 215.285156 157.90625 223.230469 L 146.179688 223.230469 C 145.855469 215.28125 141.140625 208.511719 133.71875 205.4375 C 126.285156 202.359375 118.167969 203.8125 112.320312 209.207031 L 104.023438 200.910156 C 109.402344 195.058594 110.855469 186.941406 107.78125 179.515625 C 104.699219 172.085938 97.933594 167.371094 89.996094 167.042969 Z M 79.367188 167.914062 L 79.367188 154.441406 C 79.367188 149.074219 83.730469 144.703125 89.105469 144.703125 C 93.113281 144.703125 96.421875 142.488281 97.957031 138.777344 C 99.496094 135.0625 98.722656 131.15625 95.890625 128.320312 C 92.085938 124.523438 92.085938 118.34375 95.882812 114.546875 L 105.417969 105.019531 C 109.210938 101.226562 115.394531 101.226562 119.1875 105.019531 C 122.019531 107.851562 125.929688 108.628906 129.640625 107.089844 C 133.351562 105.554688 135.566406 102.242188 135.566406 98.234375 C 135.566406 92.867188 139.941406 88.5 145.308594 88.5 L 158.78125 88.5 C 164.144531 88.5 168.519531 92.867188 168.519531 98.234375 C 168.519531 102.242188 170.734375 105.554688 174.449219 107.089844 C 178.160156 108.628906 182.070312 107.851562 184.902344 105.019531 C 188.695312 101.226562 194.875 101.226562 198.675781 105.019531 L 208.203125 114.546875 C 211.996094 118.34375 211.996094 124.523438 208.203125 128.320312 C 205.367188 131.15625 204.597656 135.0625 206.132812 138.777344 C 207.671875 142.488281 210.984375 144.703125 214.988281 144.703125 C 220.355469 144.703125 224.730469 149.074219 224.730469 154.441406 L 224.730469 167.914062 C 224.730469 173.285156 220.355469 177.652344 214.988281 177.652344 C 210.984375 177.652344 207.671875 179.867188 206.132812 183.582031 C 204.597656 187.292969 205.363281 191.199219 208.203125 194.035156 C 211.996094 197.832031 211.996094 204.011719 208.203125 207.808594 L 198.675781 217.335938 C 196.832031 219.179688 194.386719 220.1875 191.785156 220.1875 C 189.1875 220.1875 186.738281 219.179688 184.902344 217.335938 C 182.070312 214.503906 178.160156 213.726562 174.449219 215.269531 C 170.734375 216.804688 168.519531 220.109375 168.519531 224.121094 C 168.519531 229.492188 164.144531 233.855469 158.78125 233.855469 L 145.304688 233.855469 C 139.9375 233.855469 135.566406 229.492188 135.566406 224.121094 C 135.566406 220.101562 133.347656 216.792969 129.644531 215.253906 C 125.9375 213.71875 122.023438 214.496094 119.1875 217.335938 C 117.351562 219.179688 114.902344 220.1875 112.300781 220.1875 C 109.699219 220.1875 107.253906 219.179688 105.417969 217.335938 L 95.890625 207.808594 C 92.085938 204.011719 92.085938 197.832031 95.890625 194.035156 C 98.722656 191.199219 99.496094 187.292969 97.953125 183.582031 C 96.421875 179.867188 93.113281 177.652344 89.105469 177.652344 C 83.730469 177.652344 79.367188 173.285156 79.367188 167.914062 Z M 314.46875 72.691406 C 314.46875 57.769531 302.328125 45.636719 287.414062 45.636719 C 272.492188 45.636719 260.355469 57.769531 260.355469 72.691406 C 260.355469 87.609375 272.492188 99.75 287.414062 99.75 C 302.328125 99.75 314.46875 87.609375 314.46875 72.691406 Z M 325.09375 72.691406 C 325.09375 93.46875 308.1875 110.375 287.414062 110.375 C 266.628906 110.375 249.726562 93.46875 249.726562 72.691406 C 249.726562 51.914062 266.628906 35.011719 287.414062 35.011719 C 308.1875 35.011719 325.09375 51.914062 325.09375 72.691406 Z M 349.46875 66.824219 L 349.46875 78.554688 C 341.519531 78.882812 334.761719 83.597656 331.683594 91.027344 C 328.601562 98.453125 330.054688 106.570312 335.441406 112.421875 L 327.148438 120.71875 C 321.292969 115.332031 313.179688 113.882812 305.746094 116.960938 C 298.324219 120.035156 293.609375 126.800781 293.277344 134.746094 L 281.546875 134.746094 C 281.222656 126.792969 276.507812 120.027344 269.085938 116.953125 C 261.652344 113.875 253.539062 115.324219 247.683594 120.71875 L 239.390625 112.421875 C 244.769531 106.574219 246.21875 98.457031 243.144531 91.027344 C 240.0625 83.597656 233.304688 78.886719 225.359375 78.554688 L 225.359375 66.824219 C 233.304688 66.496094 240.0625 61.78125 243.144531 54.351562 C 246.21875 46.925781 244.769531 38.808594 239.390625 32.960938 L 247.683594 24.664062 C 253.53125 30.050781 261.644531 31.5 269.078125 28.421875 C 276.507812 25.34375 281.222656 18.582031 281.546875 10.636719 L 293.277344 10.636719 C 293.609375 18.582031 298.324219 25.34375 305.746094 28.421875 C 313.179688 31.496094 321.292969 30.050781 327.148438 24.664062 L 335.441406 32.960938 C 330.054688 38.808594 328.601562 46.925781 331.683594 54.351562 C 334.761719 61.78125 341.519531 66.5 349.46875 66.824219 Z M 319.753906 267.839844 L 319.753906 251.503906 L 25.449219 251.503906 L 25.449219 267.839844 C 25.449219 276.980469 32.886719 284.417969 42.027344 284.417969 L 303.171875 284.417969 C 312.308594 284.417969 319.753906 276.980469 319.753906 267.839844 Z M 206.136719 295.046875 L 138.402344 295.046875 C 138.132812 309.636719 135.210938 325.59375 130.648438 337.714844 L 214.445312 337.714844 C 209.664062 325.433594 206.519531 309.46875 206.136719 295.046875 Z M 243.871094 348.34375 L 101.328125 348.34375 C 96.910156 348.34375 93.316406 351.941406 93.316406 356.355469 C 93.316406 360.773438 96.910156 364.367188 101.328125 364.367188 L 243.871094 364.367188 C 248.289062 364.367188 251.890625 360.773438 251.890625 356.355469 C 251.890625 351.941406 248.289062 348.34375 243.871094 348.34375 Z M 25.449219 92.808594 C 25.449219 83.667969 32.886719 76.230469 42.027344 76.230469 L 214.734375 76.230469 L 214.734375 79.429688 C 214.734375 84.800781 219.097656 89.167969 224.472656 89.167969 C 228.480469 89.167969 231.789062 91.382812 233.324219 95.09375 C 234.863281 98.804688 234.089844 102.714844 231.257812 105.546875 C 227.457031 109.34375 227.457031 115.523438 231.257812 119.320312 L 240.785156 128.847656 C 242.625 130.6875 245.066406 131.699219 247.667969 131.699219 C 250.273438 131.699219 252.714844 130.6875 254.554688 128.847656 C 257.394531 126.007812 261.300781 125.234375 265.015625 126.769531 C 268.71875 128.304688 270.933594 131.617188 270.933594 135.632812 C 270.933594 141.003906 275.308594 145.371094 280.671875 145.371094 L 294.148438 145.371094 C 299.523438 145.371094 303.886719 141.003906 303.886719 135.632812 C 303.886719 131.625 306.105469 128.320312 309.816406 126.78125 C 313.308594 125.335938 316.972656 125.933594 319.753906 128.367188 L 319.753906 240.878906 L 25.449219 240.878906 Z M 360.09375 65.957031 L 360.09375 79.429688 C 360.09375 84.800781 355.722656 89.167969 350.359375 89.167969 C 346.351562 89.167969 343.039062 91.382812 341.5 95.09375 C 339.96875 98.804688 340.730469 102.714844 343.570312 105.546875 C 345.410156 107.386719 346.425781 109.835938 346.425781 112.433594 C 346.425781 115.039062 345.410156 117.484375 343.570312 119.324219 L 334.046875 128.847656 C 332.988281 129.898438 331.734375 130.667969 330.378906 131.144531 L 330.378906 267.839844 C 330.378906 282.839844 318.171875 295.046875 303.171875 295.046875 L 216.765625 295.046875 C 217.214844 311.160156 221.371094 327.613281 225.980469 337.714844 L 243.871094 337.714844 C 254.148438 337.714844 262.515625 346.082031 262.515625 356.355469 C 262.515625 366.636719 254.148438 374.992188 243.871094 374.992188 L 101.328125 374.992188 C 91.054688 374.992188 82.691406 366.636719 82.691406 356.355469 C 82.691406 346.082031 91.054688 337.714844 101.328125 337.714844 L 119.171875 337.714844 C 123.570312 327.777344 127.476562 311.382812 127.773438 295.046875 L 42.027344 295.046875 C 27.027344 295.046875 14.820312 282.839844 14.820312 267.839844 L 14.820312 92.808594 C 14.820312 77.804688 27.027344 65.601562 42.027344 65.601562 L 214.75 65.601562 C 214.9375 60.394531 219.21875 56.214844 224.472656 56.214844 C 228.480469 56.214844 231.789062 54 233.324219 50.289062 C 234.863281 46.574219 234.089844 42.667969 231.257812 39.835938 C 227.457031 36.035156 227.457031 29.859375 231.253906 26.0625 L 240.785156 16.53125 C 244.578125 12.738281 250.757812 12.738281 254.554688 16.53125 C 257.386719 19.367188 261.292969 20.140625 265.007812 18.605469 C 268.71875 17.066406 270.933594 13.753906 270.933594 9.75 C 270.933594 4.378906 275.308594 0.0078125 280.671875 0.0078125 L 294.144531 0.0078125 C 299.519531 0.0078125 303.882812 4.378906 303.882812 9.75 C 303.882812 13.753906 306.101562 17.066406 309.8125 18.605469 C 313.527344 20.140625 317.433594 19.367188 320.265625 16.53125 C 324.0625 12.738281 330.242188 12.738281 334.042969 16.53125 L 343.570312 26.0625 C 347.367188 29.859375 347.367188 36.035156 343.570312 39.835938 C 340.730469 42.667969 339.964844 46.574219 341.496094 50.289062 C 343.039062 54 346.347656 56.214844 350.359375 56.214844 C 355.722656 56.214844 360.09375 60.585938 360.09375 65.957031 Z M 189.949219 267.960938 C 189.949219 270.902344 187.574219 273.277344 184.636719 273.277344 L 160.5625 273.277344 C 157.636719 273.277344 155.25 270.902344 155.25 267.960938 C 155.25 265.027344 157.636719 262.652344 160.5625 262.652344 L 184.636719 262.652344 C 187.574219 262.652344 189.949219 265.027344 189.949219 267.960938 Z M 189.949219 267.960938 " fill-opacity="1" fill-rule="evenodd"/></g></svg>