<svg xmlns="http://www.w3.org/2000/svg" xmlns:xlink="http://www.w3.org/1999/xlink" width="500" zoomAndPan="magnify" viewBox="0 0 375 374.999991" height="500" preserveAspectRatio="xMidYMid meet" version="1.0"><defs><clipPath id="0bd182ea8e"><path d="M 23.523438 0 L 351.273438 0 L 351.273438 375 L 23.523438 375 Z M 23.523438 0 " clip-rule="nonzero"/></clipPath></defs><g clip-path="url(#0bd182ea8e)"><path fill="#172554" d="M 23.523438 4.964844 C 23.523438 7.460938 29.847656 80.707031 37.671875 167.773438 C 45.332031 254.671875 51.988281 328.417969 52.15625 331.582031 L 52.65625 337.242188 L 120.078125 355.886719 L 187.332031 374.53125 L 200.816406 370.867188 C 208.140625 368.871094 238.269531 360.546875 267.902344 352.390625 C 313.847656 339.738281 321.671875 337.074219 322.339844 334.246094 C 323.171875 330.25 351.472656 9.457031 351.472656 4.132812 L 351.472656 0.46875 L 23.523438 0.46875 Z M 291.042969 75.714844 C 290.375 79.710938 286.046875 126.988281 281.386719 181.089844 C 276.558594 235.027344 272.5625 279.640625 272.230469 279.976562 C 271.566406 280.808594 189.828125 303.449219 187.496094 303.449219 C 185.832031 303.449219 141.21875 291.296875 110.753906 282.636719 L 102.265625 280.140625 L 100.265625 258.167969 C 99.265625 246.015625 97.9375 231.367188 97.269531 225.539062 L 96.269531 215.21875 L 117.078125 215.21875 C 140.550781 215.21875 139.886719 214.882812 140.054688 229.367188 C 140.054688 233.03125 140.550781 238.691406 141.050781 242.019531 L 142.050781 248.011719 L 164.855469 254.003906 L 187.496094 260 L 209.972656 254.003906 C 222.289062 250.675781 232.609375 247.847656 232.609375 247.847656 C 232.777344 247.679688 233.777344 237.859375 234.773438 226.039062 C 235.773438 214.050781 236.9375 202.398438 237.4375 199.734375 L 238.269531 195.242188 L 95.4375 195.242188 L 94.605469 191.410156 C 94.105469 189.414062 93.109375 179.757812 92.441406 169.769531 L 91.277344 151.957031 L 241.269531 151.957031 L 242.265625 140.636719 C 242.933594 134.480469 243.929688 124.988281 244.429688 119.664062 C 245.097656 112.835938 244.929688 110.175781 243.597656 111.007812 C 242.597656 111.503906 207.140625 111.503906 164.523438 110.839844 L 87.113281 109.839844 L 86.117188 98.019531 C 85.449219 91.527344 84.617188 82.207031 84.117188 77.378906 L 83.121094 68.722656 L 291.875 68.722656 Z M 291.042969 75.714844 " fill-opacity="1" fill-rule="nonzero"/></g></svg>