<svg xmlns="http://www.w3.org/2000/svg" xmlns:xlink="http://www.w3.org/1999/xlink" width="500" zoomAndPan="magnify" viewBox="0 0 375 374.999991" height="500" preserveAspectRatio="xMidYMid meet" version="1.0"><defs><clipPath id="1ae764c481"><path d="M 41.824219 91.847656 L 261.546875 91.847656 L 261.546875 311.570312 L 41.824219 311.570312 Z M 41.824219 91.847656 " clip-rule="nonzero"/></clipPath><clipPath id="1819eac877"><path d="M 47.824219 91.847656 L 255.546875 91.847656 C 258.859375 91.847656 261.546875 94.53125 261.546875 97.847656 L 261.546875 305.570312 C 261.546875 308.882812 258.859375 311.570312 255.546875 311.570312 L 47.824219 311.570312 C 44.511719 311.570312 41.824219 308.882812 41.824219 305.570312 L 41.824219 97.847656 C 41.824219 94.53125 44.511719 91.847656 47.824219 91.847656 Z M 47.824219 91.847656 " clip-rule="nonzero"/></clipPath><clipPath id="64f5a5e05f"><path d="M 169.84375 113.1875 L 353.296875 113.1875 L 353.296875 267.671875 L 169.84375 267.671875 Z M 169.84375 113.1875 " clip-rule="nonzero"/></clipPath><clipPath id="eb5a82f1fc"><path d="M 175.84375 113.1875 L 347.25 113.1875 C 350.5625 113.1875 353.25 115.875 353.25 119.1875 L 353.25 261.671875 C 353.25 264.984375 350.5625 267.671875 347.25 267.671875 L 175.84375 267.671875 C 172.53125 267.671875 169.84375 264.984375 169.84375 261.671875 L 169.84375 119.1875 C 169.84375 115.875 172.53125 113.1875 175.84375 113.1875 Z M 175.84375 113.1875 " clip-rule="nonzero"/></clipPath><clipPath id="488f061735"><path d="M 21.75 63.429688 L 241.464844 63.429688 L 241.464844 283.144531 L 21.75 283.144531 Z M 21.75 63.429688 " clip-rule="nonzero"/></clipPath><clipPath id="d02c81a732"><path d="M 39 63.429688 L 224.214844 63.429688 C 233.742188 63.429688 241.464844 71.152344 241.464844 80.679688 L 241.464844 265.894531 C 241.464844 275.421875 233.742188 283.144531 224.214844 283.144531 L 39 283.144531 C 29.472656 283.144531 21.75 275.421875 21.75 265.894531 L 21.75 80.679688 C 21.75 71.152344 29.472656 63.429688 39 63.429688 Z M 39 63.429688 " clip-rule="nonzero"/></clipPath><clipPath id="481b3a3b99"><path d="M 149.773438 84.773438 L 333.519531 84.773438 L 333.519531 239.253906 L 149.773438 239.253906 Z M 149.773438 84.773438 " clip-rule="nonzero"/></clipPath><clipPath id="afbb656c2c"><path d="M 167.019531 84.773438 L 315.917969 84.773438 C 325.445312 84.773438 333.167969 92.496094 333.167969 102.019531 L 333.167969 222 C 333.167969 231.527344 325.445312 239.25 315.917969 239.25 L 167.019531 239.25 C 157.496094 239.25 149.773438 231.527344 149.773438 222 L 149.773438 102.019531 C 149.773438 92.496094 157.496094 84.773438 167.019531 84.773438 Z M 167.019531 84.773438 " clip-rule="nonzero"/></clipPath></defs><rect x="-37.5" width="450" fill="#ffffff" y="-37.499999" height="449.999989" fill-opacity="1"/><rect x="-37.5" width="450" fill="#ffffff" y="-37.499999" height="449.999989" fill-opacity="1"/><g clip-path="url(#1ae764c481)"><g clip-path="url(#1819eac877)"><path fill="#93c5fd" d="M 41.824219 91.847656 L 261.546875 91.847656 L 261.546875 311.570312 L 41.824219 311.570312 Z M 41.824219 91.847656 " fill-opacity="1" fill-rule="nonzero"/></g></g><g clip-path="url(#64f5a5e05f)"><g clip-path="url(#eb5a82f1fc)"><path fill="#93c5fd" d="M 169.84375 113.1875 L 353.296875 113.1875 L 353.296875 267.671875 L 169.84375 267.671875 Z M 169.84375 113.1875 " fill-opacity="1" fill-rule="nonzero"/></g></g><g clip-path="url(#488f061735)"><g clip-path="url(#d02c81a732)"><path stroke-linecap="butt" transform="matrix(0.75, 0, 0, 0.75, 21.750087, 63.430858)" fill="none" stroke-linejoin="miter" d="M 22.999885 -0.00156098 L 269.953026 -0.00156098 C 282.656152 -0.00156098 292.953028 10.295315 292.953028 22.998441 L 292.953028 269.951582 C 292.953028 282.654708 282.656152 292.951583 269.953026 292.951583 L 22.999885 292.951583 C 10.296759 292.951583 -0.000116416 282.654708 -0.000116416 269.951582 L -0.000116416 22.998441 C -0.000116416 10.295315 10.296759 -0.00156098 22.999885 -0.00156098 Z M 22.999885 -0.00156098 " stroke="#172554" stroke-width="36" stroke-opacity="1" stroke-miterlimit="4"/></g></g><g clip-path="url(#481b3a3b99)"><g clip-path="url(#afbb656c2c)"><path stroke-linecap="butt" transform="matrix(0.75, 0, 0, 0.75, 149.772343, 84.771616)" fill="none" stroke-linejoin="miter" d="M 22.996251 0.00242862 L 221.527502 0.00242862 C 234.230627 0.00242862 244.527502 10.299304 244.527502 22.99722 L 244.527502 182.971179 C 244.527502 195.674304 234.230627 205.971179 221.527502 205.971179 L 22.996251 205.971179 C 10.298335 205.971179 0.00145978 195.674304 0.00145978 182.971179 L 0.00145978 22.99722 C 0.00145978 10.299304 10.298335 0.00242862 22.996251 0.00242862 Z M 22.996251 0.00242862 " stroke="#172554" stroke-width="36" stroke-opacity="1" stroke-miterlimit="4"/></g></g></svg>