<svg xmlns="http://www.w3.org/2000/svg" xmlns:xlink="http://www.w3.org/1999/xlink" width="500" zoomAndPan="magnify" viewBox="0 0 375 374.999991" height="500" preserveAspectRatio="xMidYMid meet" version="1.0"><defs><clipPath id="39cd23c982"><path d="M 101.691406 11.964844 L 243.894531 11.964844 L 243.894531 363.324219 L 101.691406 363.324219 Z M 101.691406 11.964844 " clip-rule="nonzero"/></clipPath><clipPath id="7b5ffd86c0"><path d="M 101 0 L 276 0 L 276 179 L 101 179 Z M 101 0 " clip-rule="nonzero"/></clipPath><clipPath id="393c868614"><path d="M 220.449219 0.00390625 L 275.300781 51.167969 L 156.539062 178.488281 L 101.6875 127.324219 Z M 220.449219 0.00390625 " clip-rule="nonzero"/></clipPath><clipPath id="19f8dd1936"><path d="M 133.101562 52.429688 L 275.304688 52.429688 L 275.304688 363.324219 L 133.101562 363.324219 Z M 133.101562 52.429688 " clip-rule="nonzero"/></clipPath><clipPath id="e08b37f8be"><path d="M 90.964844 89.242188 L 286.386719 89.242188 L 286.386719 234.296875 L 90.964844 234.296875 Z M 90.964844 89.242188 " clip-rule="nonzero"/></clipPath><clipPath id="a22060c49d"><path d="M 48.472656 97.292969 L 326.816406 97.292969 L 326.816406 363.324219 L 48.472656 363.324219 Z M 48.472656 97.292969 " clip-rule="nonzero"/></clipPath><clipPath id="160a831ceb"><path d="M 22 300 L 91 300 L 91 370 L 22 370 Z M 22 300 " clip-rule="nonzero"/></clipPath><clipPath id="0fbd1d4a92"><path d="M 63.210938 300.863281 L 90.960938 327.351562 L 50.378906 369.871094 L 22.628906 343.378906 Z M 63.210938 300.863281 " clip-rule="nonzero"/></clipPath><clipPath id="6f53d10f7e"><path d="M 291 300 L 361 300 L 361 370 L 291 370 Z M 291 300 " clip-rule="nonzero"/></clipPath><clipPath id="0ded58ae0f"><path d="M 332.480469 300.863281 L 360.230469 327.351562 L 319.648438 369.871094 L 291.898438 343.378906 Z M 332.480469 300.863281 " clip-rule="nonzero"/></clipPath><clipPath id="13e2c87a96"><path d="M 264 300 L 350 300 L 350 342 L 264 342 Z M 264 300 " clip-rule="nonzero"/></clipPath><clipPath id="41f45bf51b"><path d="M 264.296875 303.753906 L 348.617188 300.863281 L 349.914062 338.671875 L 265.59375 341.566406 Z M 264.296875 303.753906 " clip-rule="nonzero"/></clipPath><clipPath id="b33e400c70"><path d="M 22 296 L 109 296 L 109 338 L 22 338 Z M 22 296 " clip-rule="nonzero"/></clipPath><clipPath id="e2c8977c42"><path d="M 22.632812 299.6875 L 106.953125 296.796875 L 108.25 334.605469 L 23.929688 337.5 Z M 22.632812 299.6875 " clip-rule="nonzero"/></clipPath><clipPath id="01cf3dca1b"><path d="M 14.765625 0 L 360 0 L 360 375 L 14.765625 375 Z M 14.765625 0 " clip-rule="nonzero"/></clipPath></defs><g clip-path="url(#39cd23c982)"><path fill="#93c5fd" d="M 101.691406 11.964844 L 243.894531 11.964844 L 243.894531 363.582031 L 101.691406 363.582031 Z M 101.691406 11.964844 " fill-opacity="1" fill-rule="nonzero"/></g><g clip-path="url(#7b5ffd86c0)"><g clip-path="url(#393c868614)"><path fill="#93c5fd" d="M 220.449219 0.00390625 L 275.300781 51.167969 L 156.582031 178.441406 L 101.730469 127.277344 Z M 220.449219 0.00390625 " fill-opacity="1" fill-rule="nonzero"/></g></g><g clip-path="url(#19f8dd1936)"><path fill="#93c5fd" d="M 133.101562 52.429688 L 275.304688 52.429688 L 275.304688 363.496094 L 133.101562 363.496094 Z M 133.101562 52.429688 " fill-opacity="1" fill-rule="nonzero"/></g><g clip-path="url(#e08b37f8be)"><path fill="#93c5fd" d="M 90.964844 89.242188 L 286.449219 89.242188 L 286.449219 234.296875 L 90.964844 234.296875 Z M 90.964844 89.242188 " fill-opacity="1" fill-rule="nonzero"/></g><g clip-path="url(#a22060c49d)"><path fill="#93c5fd" d="M 48.472656 97.292969 L 326.972656 97.292969 L 326.972656 363.324219 L 48.472656 363.324219 Z M 48.472656 97.292969 " fill-opacity="1" fill-rule="nonzero"/></g><g clip-path="url(#160a831ceb)"><g clip-path="url(#0fbd1d4a92)"><path fill="#93c5fd" d="M 63.210938 300.863281 L 90.960938 327.351562 L 50.402344 369.847656 L 22.648438 343.359375 Z M 63.210938 300.863281 " fill-opacity="1" fill-rule="nonzero"/></g></g><g clip-path="url(#6f53d10f7e)"><g clip-path="url(#0ded58ae0f)"><path fill="#93c5fd" d="M 332.480469 300.863281 L 360.230469 327.351562 L 319.667969 369.847656 L 291.917969 343.359375 Z M 332.480469 300.863281 " fill-opacity="1" fill-rule="nonzero"/></g></g><g clip-path="url(#13e2c87a96)"><g clip-path="url(#41f45bf51b)"><path fill="#93c5fd" d="M 264.296875 303.753906 L 348.632812 300.859375 L 349.929688 338.671875 L 265.59375 341.566406 Z M 264.296875 303.753906 " fill-opacity="1" fill-rule="nonzero"/></g></g><g clip-path="url(#b33e400c70)"><g clip-path="url(#e2c8977c42)"><path fill="#93c5fd" d="M 22.632812 299.6875 L 106.96875 296.792969 L 108.265625 334.605469 L 23.929688 337.5 Z M 22.632812 299.6875 " fill-opacity="1" fill-rule="nonzero"/></g></g><path fill="#172554" d="M 154.996094 178.542969 C 156.226562 179.921875 157.9375 180.621094 159.648438 180.621094 C 161.128906 180.621094 162.625 180.097656 163.816406 179.035156 C 166.382812 176.734375 166.601562 172.789062 164.304688 170.214844 L 145.0625 148.691406 L 164.304688 127.164062 C 166.601562 124.589844 166.382812 120.644531 163.816406 118.34375 C 161.238281 116.042969 157.292969 116.269531 154.996094 118.835938 L 132.023438 144.527344 C 129.902344 146.894531 129.902344 150.484375 132.023438 152.851562 Z M 154.996094 178.542969 " fill-opacity="1" fill-rule="nonzero"/><path fill="#172554" d="M 210.558594 179.042969 C 211.75 180.101562 213.246094 180.628906 214.726562 180.628906 C 216.4375 180.628906 218.148438 179.929688 219.378906 178.546875 L 242.351562 152.859375 C 244.472656 150.492188 244.472656 146.898438 242.351562 144.53125 L 219.378906 118.84375 C 217.082031 116.269531 213.136719 116.050781 210.558594 118.351562 C 207.992188 120.648438 207.773438 124.597656 210.070312 127.171875 L 229.3125 148.699219 L 210.070312 170.21875 C 207.773438 172.792969 207.992188 176.742188 210.558594 179.042969 Z M 210.558594 179.042969 " fill-opacity="1" fill-rule="nonzero"/><path fill="#172554" d="M 174.835938 196.128906 C 175.367188 196.265625 175.894531 196.328125 176.417969 196.328125 C 179.191406 196.328125 181.726562 194.464844 182.457031 191.65625 L 204.003906 108.875 C 204.875 105.53125 202.867188 102.121094 199.53125 101.25 C 196.175781 100.375 192.785156 102.382812 191.910156 105.722656 L 170.363281 188.503906 C 169.496094 191.847656 171.5 195.257812 174.835938 196.128906 Z M 174.835938 196.128906 " fill-opacity="1" fill-rule="nonzero"/><g clip-path="url(#01cf3dca1b)"><path fill="#172554" d="M 40.742188 373.085938 C 41.914062 374.257812 43.496094 374.914062 45.15625 374.914062 L 329.222656 374.914062 C 330.886719 374.914062 332.472656 374.257812 333.640625 373.085938 L 357.960938 348.765625 C 359.136719 347.589844 359.789062 346.003906 359.789062 344.347656 L 359.789062 300.136719 C 359.789062 296.6875 357 293.890625 353.542969 293.890625 L 337.3125 293.890625 L 337.3125 99.152344 C 337.3125 95.703125 334.519531 92.90625 331.066406 92.90625 L 292.207031 92.90625 L 292.207031 84.179688 C 292.207031 80.730469 289.417969 77.929688 285.960938 77.929688 L 282.070312 77.929688 L 282.070312 47.082031 C 282.070312 46.945312 282 46.824219 281.988281 46.6875 C 281.949219 46.125 281.84375 45.589844 281.65625 45.058594 C 281.589844 44.851562 281.53125 44.652344 281.445312 44.457031 C 281.144531 43.808594 280.765625 43.195312 280.246094 42.671875 C 280.246094 42.671875 280.246094 42.664062 280.234375 42.660156 L 239.488281 1.914062 C 239.488281 1.914062 239.46875 1.902344 239.464844 1.894531 C 238.945312 1.378906 238.339844 1.003906 237.695312 0.703125 C 237.503906 0.609375 237.296875 0.558594 237.089844 0.492188 C 236.558594 0.308594 236.027344 0.195312 235.464844 0.164062 C 235.328125 0.152344 235.203125 0.0859375 235.066406 0.0859375 L 98.550781 0.0859375 C 95.097656 0.0859375 92.304688 2.882812 92.304688 6.332031 L 92.304688 77.929688 L 88.414062 77.929688 C 84.957031 77.929688 82.167969 80.730469 82.167969 84.179688 L 82.167969 92.90625 L 43.308594 92.90625 C 39.855469 92.90625 37.0625 95.703125 37.0625 99.152344 L 37.0625 293.890625 L 20.832031 293.890625 C 17.375 293.890625 14.585938 296.6875 14.585938 300.136719 L 14.585938 344.347656 C 14.585938 346.003906 15.242188 347.597656 16.414062 348.765625 L 40.734375 373.085938 Z M 279.714844 90.425781 L 279.714844 99.003906 C 279.714844 99.058594 279.683594 99.101562 279.683594 99.152344 C 279.683594 99.203125 279.714844 99.253906 279.714844 99.300781 L 279.714844 206.953125 L 94.667969 206.953125 L 94.667969 99.300781 C 94.667969 99.246094 94.699219 99.203125 94.699219 99.152344 C 94.699219 99.101562 94.667969 99.050781 94.667969 99.003906 L 94.667969 90.425781 Z M 104.804688 219.449219 L 269.574219 219.449219 L 269.574219 233.429688 L 104.804688 233.429688 Z M 260.75 40.839844 L 241.320312 40.839844 L 241.320312 21.414062 Z M 104.804688 12.578125 L 228.824219 12.578125 L 228.824219 47.089844 C 228.824219 50.535156 231.617188 53.335938 235.070312 53.335938 L 269.574219 53.335938 L 269.574219 77.9375 L 104.804688 77.9375 Z M 49.5625 105.398438 L 82.171875 105.398438 L 82.171875 213.199219 C 82.171875 216.648438 84.964844 219.449219 88.417969 219.449219 L 92.3125 219.449219 L 92.3125 239.675781 C 92.3125 243.125 95.105469 245.921875 98.558594 245.921875 L 275.824219 245.921875 C 279.277344 245.921875 282.070312 243.125 282.070312 239.675781 L 282.070312 219.449219 L 285.960938 219.449219 C 289.417969 219.449219 292.207031 216.648438 292.207031 213.199219 L 292.207031 105.398438 L 324.820312 105.398438 L 324.820312 293.890625 L 49.5625 293.890625 Z M 154.691406 306.382812 L 219.683594 306.382812 L 219.683594 328.15625 L 154.691406 328.15625 Z M 27.085938 306.382812 L 142.195312 306.382812 L 142.195312 334.402344 C 142.195312 337.851562 144.988281 340.648438 148.441406 340.648438 L 225.933594 340.648438 C 229.386719 340.648438 232.179688 337.851562 232.179688 334.402344 L 232.179688 306.382812 L 347.289062 306.382812 L 347.289062 341.761719 L 326.628906 362.421875 L 47.746094 362.421875 L 27.085938 341.761719 Z M 27.085938 306.382812 " fill-opacity="1" fill-rule="nonzero"/></g></svg>