<svg xmlns="http://www.w3.org/2000/svg" xmlns:xlink="http://www.w3.org/1999/xlink" width="500" zoomAndPan="magnify" viewBox="0 0 375 374.999991" height="500" preserveAspectRatio="xMidYMid meet" version="1.0"><path fill="#ffffff" d="M 336.636719 246.515625 C 336.636719 246.515625 336.140625 243.476562 335.851562 243.503906 L 280.695312 248.824219 C 276.304688 249.25 272.898438 252.75 272.589844 257.148438 L 271.074219 278.863281 L 228.402344 281.910156 L 225.5 262.226562 C 224.855469 257.847656 221.03125 254.546875 216.605469 254.546875 L 158.394531 254.546875 C 153.96875 254.546875 150.144531 257.847656 149.5 262.226562 L 146.597656 281.910156 L 103.925781 278.863281 L 102.410156 257.148438 C 102.101562 252.746094 98.691406 249.246094 94.304688 248.824219 L 39.121094 243.503906 C 38.835938 243.476562 38.628906 246.519531 38.34375 246.519531 L 38.269531 258.453125 L 85.003906 265.992188 L 86.53125 287.902344 C 86.84375 292.339844 90.421875 295.925781 94.859375 296.246094 L 153.628906 300.4375 C 153.851562 300.453125 154.070312 300.460938 154.289062 300.460938 C 158.707031 300.460938 162.523438 297.160156 163.167969 292.78125 L 166.15625 272.527344 L 208.847656 272.527344 L 211.832031 292.78125 C 212.476562 297.15625 216.296875 300.460938 220.722656 300.460938 C 220.9375 300.460938 221.152344 300.453125 221.367188 300.4375 L 280.140625 296.246094 C 284.578125 295.925781 288.160156 292.339844 288.46875 287.902344 L 289.996094 265.992188 L 336.710938 258.421875 Z M 336.636719 246.515625 " fill-opacity="1" fill-rule="nonzero"/><path fill="#172554" d="M 38.34375 156.515625 L 38.34375 246.515625 C 38.507812 246.515625 38.671875 246.523438 38.835938 246.539062 L 94.011719 251.859375 C 96.902344 252.136719 99.167969 254.464844 99.367188 257.359375 L 101.070312 281.714844 L 149.199219 285.152344 L 152.515625 262.671875 C 152.945312 259.757812 155.445312 257.597656 158.394531 257.597656 L 216.609375 257.597656 C 219.554688 257.597656 222.054688 259.757812 222.484375 262.671875 L 225.800781 285.152344 L 273.933594 281.714844 L 275.632812 257.359375 C 275.835938 254.464844 278.097656 252.140625 280.988281 251.859375 L 336.144531 246.539062 C 336.308594 246.523438 336.46875 246.515625 336.636719 246.515625 L 336.636719 239.335938 L 336.65625 239.328125 L 336.65625 156.515625 L 336.863281 156.515625 C 344.171875 147.183594 350.9375 137.355469 357.421875 126.867188 C 348.808594 112.203125 338.253906 99.097656 326.96875 86.953125 C 316.507812 92.222656 306.34375 98.1875 296.746094 104.535156 C 291.941406 99.761719 286.53125 95.855469 281.21875 91.773438 C 275.996094 87.582031 270.113281 84.507812 264.53125 80.921875 C 266.191406 68.550781 267.015625 56.367188 267.34375 43.65625 C 252.945312 36.410156 237.589844 31.601562 222.058594 28.152344 C 215.859375 38.574219 210.1875 49.859375 205.246094 60.894531 C 199.390625 59.917969 193.507812 59.554688 187.613281 59.484375 L 187.613281 59.472656 C 187.574219 59.472656 187.535156 59.484375 187.5 59.484375 C 187.464844 59.484375 187.425781 59.472656 187.390625 59.472656 L 187.390625 59.484375 C 181.488281 59.554688 175.609375 59.917969 169.75 60.894531 C 164.8125 49.859375 159.144531 38.574219 152.933594 28.152344 C 137.410156 31.601562 122.054688 36.410156 107.65625 43.65625 C 107.984375 56.367188 108.808594 68.550781 110.472656 80.921875 C 104.882812 84.507812 99.003906 87.582031 93.78125 91.773438 C 88.476562 95.855469 83.058594 99.761719 78.253906 104.535156 C 68.652344 98.1875 58.492188 92.222656 48.027344 86.953125 C 36.746094 99.097656 26.195312 112.203125 17.578125 126.867188 C 24.0625 137.355469 30.828125 147.183594 38.136719 156.515625 Z M 38.34375 156.515625 " fill-opacity="1" fill-rule="nonzero"/><path fill="#172554" d="M 287.136719 263.203125 L 285.425781 287.691406 C 285.222656 290.640625 282.875 292.992188 279.921875 293.203125 L 221.148438 297.394531 C 221.003906 297.40625 220.863281 297.410156 220.71875 297.410156 C 217.800781 297.410156 215.28125 295.269531 214.847656 292.335938 L 211.476562 269.480469 L 163.523438 269.480469 L 160.152344 292.335938 C 159.699219 295.410156 156.949219 297.625 153.851562 297.394531 L 95.078125 293.203125 C 92.128906 292.992188 89.78125 290.640625 89.574219 287.691406 L 87.863281 263.203125 L 38.25 258.421875 C 38.273438 263.753906 38.34375 269.59375 38.34375 270.757812 C 38.34375 323.15625 104.8125 348.34375 187.398438 348.632812 L 187.601562 348.632812 C 270.1875 348.34375 336.636719 323.15625 336.636719 270.757812 C 336.636719 269.574219 336.707031 263.757812 336.730469 258.421875 Z M 287.136719 263.203125 " fill-opacity="1" fill-rule="nonzero"/><path fill="#ffffff" d="M 142.535156 193.046875 C 142.535156 211.421875 127.648438 226.304688 109.28125 226.304688 C 90.925781 226.304688 76.035156 211.421875 76.035156 193.046875 C 76.035156 174.6875 90.925781 159.8125 109.28125 159.8125 C 127.648438 159.8125 142.535156 174.6875 142.535156 193.046875 " fill-opacity="1" fill-rule="nonzero"/><path fill="#172554" d="M 134.535156 195.019531 C 134.535156 207.207031 124.65625 217.082031 112.460938 217.082031 C 100.273438 217.082031 90.390625 207.207031 90.390625 195.019531 C 90.390625 182.835938 100.273438 172.949219 112.460938 172.949219 C 124.65625 172.949219 134.535156 182.835938 134.535156 195.019531 " fill-opacity="1" fill-rule="nonzero"/><path fill="#ffffff" d="M 187.496094 229.328125 C 181.585938 229.328125 176.792969 224.972656 176.792969 219.601562 L 176.792969 188.988281 C 176.792969 183.625 181.585938 179.261719 187.496094 179.261719 C 193.410156 179.261719 198.210938 183.625 198.210938 188.988281 L 198.210938 219.601562 C 198.210938 224.972656 193.410156 229.328125 187.496094 229.328125 " fill-opacity="1" fill-rule="nonzero"/><path fill="#ffffff" d="M 232.464844 193.046875 C 232.464844 211.421875 247.351562 226.304688 265.71875 226.304688 C 284.074219 226.304688 298.964844 211.421875 298.964844 193.046875 C 298.964844 174.6875 284.074219 159.8125 265.71875 159.8125 C 247.351562 159.8125 232.464844 174.6875 232.464844 193.046875 " fill-opacity="1" fill-rule="nonzero"/><path fill="#172554" d="M 240.46875 195.019531 C 240.46875 207.207031 250.34375 217.082031 262.527344 217.082031 C 274.726562 217.082031 284.601562 207.207031 284.601562 195.019531 C 284.601562 182.835938 274.726562 172.949219 262.527344 172.949219 C 250.34375 172.949219 240.46875 182.835938 240.46875 195.019531 " fill-opacity="1" fill-rule="nonzero"/></svg>