<svg xmlns="http://www.w3.org/2000/svg" xmlns:xlink="http://www.w3.org/1999/xlink" width="500" zoomAndPan="magnify" viewBox="0 0 375 374.999991" height="500" preserveAspectRatio="xMidYMid meet" version="1.0"><defs><clipPath id="e09c7044ba"><path d="M 23.277344 2 L 351.777344 2 L 351.777344 374.863281 L 23.277344 374.863281 Z M 23.277344 2 " clip-rule="nonzero"/></clipPath></defs><g clip-path="url(#e09c7044ba)"><path fill="#172554" d="M 53.164062 337.367188 L 23.277344 2.113281 L 351.71875 2.113281 L 321.796875 337.3125 L 187.296875 374.601562 Z M 53.164062 337.367188 " fill-opacity="1" fill-rule="nonzero"/></g><path fill="#172554" d="M 187.496094 346.097656 L 296.179688 315.96875 L 321.75 29.523438 L 187.496094 29.523438 Z M 187.496094 346.097656 " fill-opacity="1" fill-rule="nonzero"/><path fill="#ffffff" d="M 187.496094 153.863281 L 133.085938 153.863281 L 129.328125 111.757812 L 187.496094 111.757812 L 187.496094 70.640625 L 84.394531 70.640625 L 85.378906 81.671875 L 95.484375 194.980469 L 187.496094 194.980469 Z M 187.496094 260.652344 L 187.316406 260.699219 L 141.523438 248.335938 L 138.59375 215.539062 L 97.320312 215.539062 L 103.082031 280.101562 L 187.308594 303.484375 L 187.496094 303.429688 Z M 187.496094 260.652344 " fill-opacity="1" fill-rule="nonzero"/><path fill="#ffffff" d="M 187.355469 153.863281 L 187.355469 194.980469 L 237.984375 194.980469 L 233.214844 248.308594 L 187.355469 260.6875 L 187.355469 303.464844 L 271.648438 280.101562 L 272.265625 273.15625 L 281.929688 164.90625 L 282.929688 153.863281 Z M 187.355469 70.640625 L 187.355469 111.757812 L 286.671875 111.757812 L 287.496094 102.515625 L 289.371094 81.671875 L 290.355469 70.640625 Z M 187.355469 70.640625 " fill-opacity="1" fill-rule="nonzero"/></svg>