<svg xmlns="http://www.w3.org/2000/svg" xmlns:xlink="http://www.w3.org/1999/xlink" width="500" zoomAndPan="magnify" viewBox="0 0 375 374.999991" height="500" preserveAspectRatio="xMidYMid meet" version="1.0"><rect x="-37.5" width="450" fill="#172554" y="-37.499999" height="449.999989" fill-opacity="1"/><path fill="#ffffff" d="M 251.90625 292.96875 C 259.457031 305.304688 269.285156 314.367188 286.667969 314.367188 C 301.269531 314.367188 310.59375 307.070312 310.59375 296.988281 C 310.59375 284.90625 301.011719 280.625 284.941406 273.59375 L 276.132812 269.816406 C 250.703125 258.980469 233.808594 245.410156 233.808594 216.71875 C 233.808594 190.292969 253.945312 170.171875 285.417969 170.171875 C 307.820312 170.171875 323.929688 177.96875 335.535156 198.386719 L 308.09375 216.007812 C 302.054688 205.171875 295.535156 200.90625 285.417969 200.90625 C 275.09375 200.90625 268.554688 207.453125 268.554688 216.007812 C 268.554688 226.578125 275.101562 230.855469 290.21875 237.40625 L 299.03125 241.179688 C 328.96875 254.019531 345.875 267.105469 345.875 296.535156 C 345.875 328.261719 320.953125 345.644531 287.480469 345.644531 C 254.757812 345.644531 233.613281 330.046875 223.269531 309.605469 Z M 127.421875 296.023438 C 132.957031 305.84375 137.992188 314.148438 150.101562 314.148438 C 161.679688 314.148438 168.980469 309.617188 168.980469 292.007812 L 168.980469 172.183594 L 204.21875 172.183594 L 204.21875 292.480469 C 204.21875 328.96875 182.828125 345.578125 151.601562 345.578125 C 123.386719 345.578125 107.046875 330.976562 98.738281 313.390625 Z M 127.421875 296.023438 " fill-opacity="1" fill-rule="nonzero"/></svg>