<svg xmlns="http://www.w3.org/2000/svg" xmlns:xlink="http://www.w3.org/1999/xlink" width="500" zoomAndPan="magnify" viewBox="0 0 375 280.499991" height="374" preserveAspectRatio="xMidYMid meet" version="1.0"><defs><clipPath id="45b22cf350"><path d="M 22.984375 32.0625 L 270.921875 32.0625 L 270.921875 280 L 22.984375 280 Z M 22.984375 32.0625 " clip-rule="nonzero"/></clipPath><clipPath id="01ccd2bdbb"><path d="M 28.976562 32.0625 L 264.933594 32.0625 C 268.242188 32.0625 270.921875 34.746094 270.921875 38.054688 L 270.921875 274.011719 C 270.921875 277.320312 268.242188 280 264.933594 280 L 28.976562 280 C 25.667969 280 22.984375 277.320312 22.984375 274.011719 L 22.984375 38.054688 C 22.984375 34.746094 25.667969 32.0625 28.976562 32.0625 Z M 28.976562 32.0625 " clip-rule="nonzero"/></clipPath><clipPath id="b03d6d6c8a"><path d="M 167.445312 56.144531 L 374.453125 56.144531 L 374.453125 230.46875 L 167.445312 230.46875 Z M 167.445312 56.144531 " clip-rule="nonzero"/></clipPath><clipPath id="227905e773"><path d="M 173.433594 56.144531 L 368.410156 56.144531 C 371.71875 56.144531 374.398438 58.828125 374.398438 62.132812 L 374.398438 224.476562 C 374.398438 227.785156 371.71875 230.46875 368.410156 230.46875 L 173.433594 230.46875 C 170.125 230.46875 167.445312 227.785156 167.445312 224.476562 L 167.445312 62.132812 C 167.445312 58.828125 170.125 56.144531 173.433594 56.144531 Z M 173.433594 56.144531 " clip-rule="nonzero"/></clipPath><clipPath id="7f51a050c0"><path d="M 0.332031 0 L 248.140625 0 L 248.140625 247.808594 L 0.332031 247.808594 Z M 0.332031 0 " clip-rule="nonzero"/></clipPath><clipPath id="96f88526fd"><path d="M 17.550781 0 L 231.039062 0 C 235.605469 0 239.988281 1.8125 243.214844 5.042969 C 246.445312 8.273438 248.257812 12.652344 248.257812 17.21875 L 248.257812 230.707031 C 248.257812 235.273438 246.445312 239.652344 243.214844 242.882812 C 239.988281 246.109375 235.605469 247.925781 231.039062 247.925781 L 17.550781 247.925781 C 12.984375 247.925781 8.605469 246.109375 5.375 242.882812 C 2.148438 239.652344 0.332031 235.273438 0.332031 230.707031 L 0.332031 17.21875 C 0.332031 12.652344 2.148438 8.273438 5.375 5.042969 C 8.605469 1.8125 12.984375 0 17.550781 0 Z M 17.550781 0 " clip-rule="nonzero"/></clipPath><clipPath id="d1bb386cb7"><path d="M 144.792969 24.082031 L 351.425781 24.082031 L 351.425781 198.40625 L 144.792969 198.40625 Z M 144.792969 24.082031 " clip-rule="nonzero"/></clipPath><clipPath id="416309c861"><path d="M 162.011719 24.085938 L 334.523438 24.085938 C 339.089844 24.085938 343.46875 25.898438 346.695312 29.128906 C 349.925781 32.355469 351.738281 36.734375 351.738281 41.304688 L 351.738281 181.179688 C 351.738281 185.746094 349.925781 190.128906 346.695312 193.355469 C 343.46875 196.585938 339.089844 198.398438 334.523438 198.398438 L 162.011719 198.398438 C 157.445312 198.398438 153.066406 196.585938 149.835938 193.355469 C 146.605469 190.128906 144.792969 185.746094 144.792969 181.179688 L 144.792969 41.304688 C 144.792969 36.734375 146.605469 32.355469 149.835938 29.128906 C 153.066406 25.898438 157.445312 24.085938 162.011719 24.085938 Z M 162.011719 24.085938 " clip-rule="nonzero"/></clipPath></defs><g clip-path="url(#45b22cf350)"><g clip-path="url(#01ccd2bdbb)"><path fill="#93c5fd" d="M 22.984375 32.0625 L 270.921875 32.0625 L 270.921875 280 L 22.984375 280 Z M 22.984375 32.0625 " fill-opacity="1" fill-rule="nonzero"/></g></g><g clip-path="url(#b03d6d6c8a)"><g clip-path="url(#227905e773)"><path fill="#93c5fd" d="M 167.445312 56.144531 L 374.453125 56.144531 L 374.453125 230.46875 L 167.445312 230.46875 Z M 167.445312 56.144531 " fill-opacity="1" fill-rule="nonzero"/></g></g><g clip-path="url(#7f51a050c0)"><g clip-path="url(#96f88526fd)"><path stroke-linecap="butt" transform="matrix(0.748665, 0, 0, 0.748665, 0.333636, -0.000000000000021278)" fill="none" stroke-linejoin="miter" d="M 22.997116 0.000000000000028422 L 308.155578 0.000000000000028422 C 314.254973 0.000000000000028422 320.10914 2.420975 324.418892 6.735944 C 328.733862 11.050914 331.154837 16.899864 331.154837 22.999259 L 331.154837 308.157721 C 331.154837 314.257116 328.733862 320.106065 324.418892 324.421035 C 320.10914 328.730787 314.254973 331.15698 308.155578 331.15698 L 22.997116 331.15698 C 16.897721 331.15698 11.048771 328.730787 6.733801 324.421035 C 2.424049 320.106065 -0.00214299 314.257116 -0.00214299 308.157721 L -0.00214299 22.999259 C -0.00214299 16.899864 2.424049 11.050914 6.733801 6.735944 C 11.048771 2.420975 16.897721 0.000000000000028422 22.997116 0.000000000000028422 Z M 22.997116 0.000000000000028422 " stroke="#1d4ed8" stroke-width="36" stroke-opacity="1" stroke-miterlimit="4"/></g></g><g clip-path="url(#d1bb386cb7)"><g clip-path="url(#416309c861)"><path stroke-linecap="butt" transform="matrix(0.748665, 0, 0, 0.748665, 144.792681, 24.084337)" fill="none" stroke-linejoin="miter" d="M 22.999644 0.00213843 L 253.425295 0.00213843 C 259.52469 0.00213843 265.37364 2.423113 269.683392 6.738083 C 273.998362 11.047835 276.419337 16.896785 276.419337 23.001397 L 276.419337 209.833853 C 276.419337 215.933248 273.998362 221.787415 269.683392 226.097167 C 265.37364 230.412137 259.52469 232.833112 253.425295 232.833112 L 22.999644 232.833112 C 16.900248 232.833112 11.051299 230.412137 6.736329 226.097167 C 2.421359 221.787415 0.000384604 215.933248 0.000384604 209.833853 L 0.000384604 23.001397 C 0.000384604 16.896785 2.421359 11.047835 6.736329 6.738083 C 11.051299 2.423113 16.900248 0.00213843 22.999644 0.00213843 Z M 22.999644 0.00213843 " stroke="#1d4ed8" stroke-width="36" stroke-opacity="1" stroke-miterlimit="4"/></g></g></svg>