<svg xmlns="http://www.w3.org/2000/svg" xmlns:xlink="http://www.w3.org/1999/xlink" width="500" zoomAndPan="magnify" viewBox="0 0 375 374.999991" height="500" preserveAspectRatio="xMidYMid meet" version="1.0"><rect x="-37.5" width="450" fill="#ffffff" y="-37.499999" height="449.999989" fill-opacity="1"/><rect x="-37.5" width="450" fill="#172554" y="-37.499999" height="449.999989" fill-opacity="1"/><path fill="#ffffff" d="M 105.058594 278.15625 L 93.546875 278.15625 C 93.140625 258.726562 92.019531 240.460938 90.1875 223.34375 L 90.082031 223.34375 L 72.558594 278.15625 L 63.792969 278.15625 L 46.375 223.34375 L 46.273438 223.34375 C 44.980469 239.777344 44.167969 258.046875 43.828125 278.15625 L 33.335938 278.15625 C 34.011719 253.703125 35.710938 230.78125 38.429688 209.382812 L 52.695312 209.382812 L 69.300781 259.917969 L 69.402344 259.917969 L 86.109375 209.382812 L 99.757812 209.382812 C 102.75 234.445312 104.515625 257.371094 105.058594 278.15625 M 154.976562 227.414062 C 150.289062 252.847656 144.105469 271.328125 136.433594 282.863281 C 130.453125 291.742188 123.902344 296.1875 116.769531 296.1875 C 114.867188 296.1875 112.523438 295.613281 109.742188 294.472656 L 109.742188 288.339844 C 111.101562 288.535156 112.695312 288.648438 114.527344 288.648438 C 117.859375 288.648438 120.539062 287.730469 122.582031 285.894531 C 125.023438 283.65625 126.242188 281.140625 126.242188 278.359375 C 126.242188 276.449219 125.292969 272.546875 123.390625 266.640625 L 110.761719 227.414062 L 122.070312 227.414062 L 131.136719 256.75 C 133.171875 263.414062 134.023438 268.0625 133.683594 270.714844 C 138.640625 257.472656 142.101562 243.035156 144.078125 227.410156 L 154.976562 227.410156 Z M 154.976562 227.414062 " fill-opacity="1" fill-rule="nonzero"/><path fill="#ffffff" d="M 308.199219 278.15625 L 275.503906 278.15625 L 275.503906 209.382812 L 286.5 209.382812 L 286.5 269.691406 L 308.199219 269.691406 Z M 266.941406 279.816406 L 254.300781 273.578125 C 255.421875 272.65625 256.492188 271.660156 257.457031 270.507812 C 262.832031 264.195312 265.511719 254.859375 265.511719 242.492188 C 265.511719 219.742188 256.585938 208.359375 238.722656 208.359375 C 229.960938 208.359375 223.128906 211.246094 218.242188 217.023438 C 212.871094 223.339844 210.191406 232.640625 210.191406 244.941406 C 210.191406 257.027344 212.566406 265.898438 217.320312 271.523438 C 221.667969 276.617188 228.222656 279.167969 236.992188 279.167969 C 240.261719 279.167969 243.261719 278.769531 245.996094 277.960938 L 262.453125 287.542969 Z M 225.988281 264.394531 C 223.203125 259.914062 221.808594 252.71875 221.808594 242.800781 C 221.808594 225.484375 227.070312 216.816406 237.601562 216.816406 C 243.105469 216.816406 247.140625 218.890625 249.722656 223.027344 C 252.503906 227.515625 253.902344 234.644531 253.902344 244.425781 C 253.902344 261.882812 248.636719 270.613281 238.109375 270.613281 C 232.605469 270.613281 228.570312 268.550781 225.988281 264.394531 M 205.398438 259.09375 C 205.398438 264.925781 203.257812 269.710938 198.984375 273.457031 C 194.703125 277.191406 188.964844 279.0625 181.773438 279.0625 C 175.046875 279.0625 168.527344 276.914062 162.214844 272.636719 L 165.167969 266.730469 C 170.601562 269.453125 175.519531 270.804688 179.933594 270.804688 C 184.078125 270.804688 187.316406 269.886719 189.664062 268.0625 C 192.011719 266.234375 193.410156 263.671875 193.410156 260.429688 C 193.410156 256.339844 190.5625 252.851562 185.335938 249.925781 C 180.515625 247.277344 170.875 241.742188 170.875 241.742188 C 165.648438 237.9375 163.035156 233.847656 163.035156 227.113281 C 163.035156 221.539062 164.984375 217.039062 168.886719 213.613281 C 172.796875 210.179688 177.839844 208.464844 184.019531 208.464844 C 190.402344 208.464844 196.207031 210.175781 201.433594 213.5625 L 198.785156 219.46875 C 194.3125 217.570312 189.898438 216.621094 185.546875 216.621094 C 182.019531 216.621094 179.296875 217.46875 177.40625 219.167969 C 175.496094 220.863281 174.320312 223.03125 174.320312 225.691406 C 174.320312 229.757812 177.230469 233.296875 182.597656 236.277344 C 187.484375 238.929688 197.363281 244.558594 197.363281 244.558594 C 202.722656 248.359375 205.398438 252.410156 205.398438 259.09375 " fill-opacity="1" fill-rule="nonzero"/><path fill="#ffffff" d="M 322.007812 186.347656 C 315.355469 186.179688 310.207031 186.847656 305.886719 188.675781 C 304.636719 189.175781 302.652344 189.175781 302.480469 190.75 C 303.15625 191.417969 303.234375 192.496094 303.816406 193.414062 C 304.8125 195.078125 306.550781 197.3125 308.136719 198.476562 C 309.878906 199.8125 311.628906 201.132812 313.460938 202.296875 C 316.691406 204.296875 320.355469 205.460938 323.503906 207.453125 C 325.339844 208.613281 327.164062 210.113281 329 211.359375 C 329.902344 212.023438 330.484375 213.101562 331.65625 213.519531 L 331.65625 213.265625 C 331.066406 212.519531 330.902344 211.4375 330.324219 210.605469 L 327.828125 208.199219 C 325.417969 204.960938 322.421875 202.132812 319.191406 199.8125 C 316.53125 197.976562 310.710938 195.488281 309.632812 192.421875 L 309.460938 192.253906 C 311.292969 192.082031 313.460938 191.417969 315.195312 190.910156 C 318.023438 190.164062 320.601562 190.332031 323.503906 189.589844 C 324.835938 189.253906 326.160156 188.835938 327.5 188.425781 L 327.5 187.675781 C 325.996094 186.179688 324.925781 184.191406 323.34375 182.773438 C 319.113281 179.121094 314.449219 175.546875 309.632812 172.554688 C 307.050781 170.886719 303.734375 169.816406 300.984375 168.398438 C 299.996094 167.898438 298.328125 167.652344 297.746094 166.820312 C 296.253906 164.992188 295.417969 162.585938 294.335938 160.421875 C 291.933594 155.855469 289.601562 150.785156 287.527344 145.957031 C 286.027344 142.71875 285.117188 139.484375 283.285156 136.488281 C 274.722656 122.363281 265.421875 113.808594 251.128906 105.414062 C 248.058594 103.664062 244.402344 102.917969 240.5 102.003906 L 234.265625 101.675781 C 232.933594 101.089844 231.601562 99.511719 230.441406 98.761719 C 225.699219 95.773438 213.492188 89.292969 210.003906 97.847656 C 207.757812 103.253906 213.324219 108.570312 215.238281 111.3125 C 216.652344 113.21875 218.480469 115.386719 219.46875 117.546875 C 220.054688 118.960938 220.21875 120.457031 220.804688 121.949219 C 222.132812 125.609375 223.378906 129.675781 225.125 133.089844 C 226.039062 134.828125 227.03125 136.65625 228.199219 138.230469 C 228.863281 139.152344 230.027344 139.558594 230.28125 141.058594 C 229.121094 142.714844 229.03125 145.210938 228.363281 147.289062 C 225.375 156.679688 226.542969 168.308594 230.78125 175.210938 C 232.105469 177.289062 235.269531 181.859375 239.5 180.109375 C 243.246094 178.613281 242.414062 173.878906 243.492188 169.726562 C 243.738281 168.722656 243.578125 168.0625 244.074219 167.40625 L 244.074219 167.566406 C 245.234375 169.890625 246.402344 172.132812 247.476562 174.460938 C 250.054688 178.53125 254.542969 182.769531 258.285156 185.589844 C 260.273438 187.09375 261.851562 189.664062 264.34375 190.582031 L 264.34375 190.332031 L 264.179688 190.332031 C 263.675781 189.589844 262.9375 189.253906 262.273438 188.675781 C 260.773438 187.179688 259.117188 185.351562 257.953125 183.691406 C 254.46875 179.035156 251.386719 173.882812 248.648438 168.5625 C 247.3125 165.984375 246.15625 163.164062 245.078125 160.585938 C 244.574219 159.59375 244.574219 158.09375 243.742188 157.59375 C 242.492188 159.417969 240.667969 161 239.757812 163.238281 C 238.175781 166.816406 238.011719 171.21875 237.425781 175.796875 L 237.097656 175.957031 C 234.449219 175.292969 233.527344 172.554688 232.523438 170.230469 C 230.035156 164.328125 229.617188 154.851562 231.777344 148.039062 C 232.355469 146.296875 234.855469 140.8125 233.859375 139.152344 C 233.359375 137.5625 231.695312 136.65625 230.78125 135.40625 C 229.710938 133.832031 228.535156 131.839844 227.789062 130.089844 C 225.796875 125.4375 224.792969 120.285156 222.644531 115.636719 C 221.640625 113.46875 219.902344 111.226562 218.492188 109.230469 C 216.90625 106.992188 215.164062 105.410156 213.914062 102.753906 C 213.5 101.839844 212.917969 100.34375 213.582031 99.351562 C 213.746094 98.683594 214.085938 98.433594 214.746094 98.265625 C 215.824219 97.355469 218.898438 98.511719 219.980469 99.015625 C 223.058594 100.257812 225.636719 101.421875 228.207031 103.167969 C 229.371094 104 230.617188 105.578125 232.109375 105.996094 L 233.859375 105.996094 C 236.511719 106.574219 239.503906 106.15625 242 106.90625 C 246.402344 108.324219 250.390625 110.398438 253.96875 112.636719 C 264.851562 119.539062 273.828125 129.347656 279.886719 141.058594 C 280.878906 142.96875 281.304688 144.71875 282.210938 146.707031 C 283.960938 150.78125 286.125 154.9375 287.863281 158.925781 C 289.609375 162.828125 291.273438 166.816406 293.765625 170.058594 C 295.007812 171.800781 300.003906 172.714844 302.246094 173.628906 C 303.902344 174.375 306.480469 175.039062 307.976562 175.953125 C 310.804688 177.695312 313.621094 179.695312 316.277344 181.609375 C 317.601562 182.605469 321.761719 184.683594 322.007812 186.347656 M 237.25 114.136719 C 236.097656 114.125 234.960938 114.265625 233.847656 114.554688 L 233.847656 114.722656 L 234.007812 114.722656 C 234.675781 116.050781 235.839844 116.972656 236.671875 118.128906 C 237.339844 119.460938 237.921875 120.785156 238.578125 122.113281 L 238.738281 121.949219 C 239.910156 121.117188 240.492188 119.789062 240.492188 117.792969 C 239.988281 117.207031 239.910156 116.632812 239.488281 116.050781 C 239 115.21875 237.921875 114.804688 237.25 114.136719 " fill-opacity="1" fill-rule="nonzero"/><path fill="#ffffff" d="M 329.921875 278.144531 L 331.644531 278.144531 L 331.644531 269.71875 L 329.0625 269.71875 L 326.953125 275.46875 L 324.664062 269.71875 L 322.179688 269.71875 L 322.179688 278.144531 L 323.804688 278.144531 L 323.804688 271.734375 L 323.894531 271.734375 L 326.292969 278.144531 L 327.53125 278.144531 L 329.921875 271.734375 Z M 316.054688 278.144531 L 317.875 278.144531 L 317.875 271.148438 L 320.257812 271.148438 L 320.257812 269.714844 L 313.570312 269.714844 L 313.570312 271.148438 L 316.050781 271.148438 Z M 316.054688 278.144531 " fill-opacity="1" fill-rule="nonzero"/></svg>