<svg xmlns="http://www.w3.org/2000/svg" xmlns:xlink="http://www.w3.org/1999/xlink" width="500" zoomAndPan="magnify" viewBox="0 0 375 374.999991" height="500" preserveAspectRatio="xMidYMid meet" version="1.0"><defs><clipPath id="20037899e0"><path d="M 0 0 L 373.414062 0 L 373.414062 375 L 0 375 Z M 0 0 " clip-rule="nonzero"/></clipPath></defs><g clip-path="url(#20037899e0)"><path fill="#dbeafe" d="M 373.414062 187.507812 C 373.414062 291.0625 289.46875 375.007812 185.914062 375.007812 C 82.359375 375.007812 -1.585938 291.0625 -1.585938 187.507812 C -1.585938 83.953125 82.359375 0.0117188 185.914062 0.0117188 C 289.46875 0.0117188 373.414062 83.953125 373.414062 187.507812 " fill-opacity="1" fill-rule="nonzero"/></g><path fill="#fffbf0" d="M 181.8125 45.878906 C 145.308594 45.878906 115.726562 75.457031 115.726562 111.964844 C 115.726562 118.328125 118.695312 136.085938 125.113281 145.914062 C 125.113281 145.914062 149.222656 167.96875 181.753906 197.015625 C 153.210938 197.230469 122.179688 197.359375 98.589844 212.867188 C 81.8125 223.902344 69.152344 243.359375 65.25 263.054688 C 62.164062 278.628906 49.847656 297.8125 74.496094 309.777344 C 84.570312 314.667969 118.648438 342.199219 157.730469 372.886719 C 166.925781 374.273438 176.328125 375.007812 185.910156 375.007812 C 285.417969 375.007812 366.777344 297.472656 372.980469 199.53125 C 302.074219 131.191406 212.550781 53.445312 212.550781 53.445312 C 203.351562 48.277344 187.386719 45.878906 181.804688 45.878906 Z M 181.8125 45.878906 " fill-opacity="0.196" fill-rule="nonzero"/><path fill="#93c5fd" d="M 247.90625 111.726562 C 247.90625 112.808594 247.878906 113.890625 247.828125 114.972656 C 247.773438 116.050781 247.695312 117.128906 247.589844 118.207031 C 247.480469 119.28125 247.351562 120.355469 247.191406 121.425781 C 247.03125 122.496094 246.847656 123.5625 246.636719 124.621094 C 246.425781 125.683594 246.1875 126.738281 245.925781 127.789062 C 245.664062 128.835938 245.375 129.878906 245.0625 130.914062 C 244.746094 131.949219 244.40625 132.976562 244.042969 133.992188 C 243.679688 135.011719 243.289062 136.019531 242.875 137.019531 C 242.460938 138.019531 242.023438 139.007812 241.5625 139.984375 C 241.097656 140.964844 240.613281 141.929688 240.101562 142.882812 C 239.59375 143.835938 239.058594 144.777344 238.503906 145.707031 C 237.949219 146.632812 237.367188 147.546875 236.769531 148.445312 C 236.167969 149.347656 235.542969 150.230469 234.898438 151.097656 C 234.253906 151.96875 233.589844 152.820312 232.902344 153.65625 C 232.21875 154.492188 231.511719 155.3125 230.785156 156.113281 C 230.058594 156.914062 229.3125 157.699219 228.546875 158.460938 C 227.785156 159.226562 227 159.972656 226.199219 160.699219 C 225.398438 161.425781 224.578125 162.132812 223.742188 162.820312 C 222.90625 163.503906 222.054688 164.171875 221.183594 164.8125 C 220.316406 165.457031 219.433594 166.082031 218.53125 166.683594 C 217.632812 167.285156 216.71875 167.863281 215.792969 168.417969 C 214.863281 168.972656 213.921875 169.507812 212.96875 170.015625 C 212.015625 170.527344 211.050781 171.011719 210.070312 171.476562 C 209.09375 171.9375 208.105469 172.375 207.105469 172.789062 C 206.105469 173.203125 205.097656 173.59375 204.078125 173.957031 C 203.0625 174.320312 202.035156 174.660156 201 174.972656 C 199.964844 175.289062 198.921875 175.578125 197.871094 175.839844 C 196.824219 176.101562 195.769531 176.339844 194.707031 176.550781 C 193.648438 176.761719 192.582031 176.945312 191.511719 177.105469 C 190.441406 177.265625 189.367188 177.398438 188.292969 177.503906 C 187.214844 177.609375 186.136719 177.6875 185.054688 177.742188 C 183.976562 177.792969 182.894531 177.820312 181.8125 177.820312 C 180.730469 177.820312 179.652344 177.792969 178.570312 177.742188 C 177.488281 177.6875 176.410156 177.609375 175.335938 177.503906 C 174.257812 177.398438 173.183594 177.265625 172.117188 177.105469 C 171.046875 176.945312 169.980469 176.761719 168.917969 176.550781 C 167.859375 176.339844 166.804688 176.101562 165.753906 175.839844 C 164.703125 175.578125 163.664062 175.289062 162.628906 174.972656 C 161.59375 174.660156 160.566406 174.320312 159.546875 173.957031 C 158.527344 173.59375 157.519531 173.203125 156.519531 172.789062 C 155.519531 172.375 154.53125 171.9375 153.554688 171.476562 C 152.578125 171.011719 151.609375 170.527344 150.65625 170.015625 C 149.703125 169.507812 148.761719 168.972656 147.835938 168.417969 C 146.90625 167.863281 145.992188 167.285156 145.09375 166.683594 C 144.195312 166.082031 143.308594 165.457031 142.441406 164.8125 C 141.574219 164.171875 140.71875 163.503906 139.882812 162.820312 C 139.046875 162.132812 138.230469 161.425781 137.425781 160.699219 C 136.625 159.972656 135.84375 159.226562 135.078125 158.460938 C 134.3125 157.699219 133.566406 156.914062 132.839844 156.113281 C 132.113281 155.3125 131.410156 154.492188 130.722656 153.65625 C 130.035156 152.820312 129.371094 151.96875 128.726562 151.097656 C 128.082031 150.230469 127.460938 149.347656 126.859375 148.445312 C 126.257812 147.546875 125.679688 146.632812 125.125 145.707031 C 124.566406 144.777344 124.035156 143.835938 123.523438 142.882812 C 123.015625 141.929688 122.527344 140.964844 122.066406 139.984375 C 121.601562 139.007812 121.164062 138.019531 120.75 137.019531 C 120.335938 136.019531 119.949219 135.011719 119.582031 133.992188 C 119.21875 132.976562 118.878906 131.949219 118.566406 130.914062 C 118.25 129.878906 117.964844 128.835938 117.699219 127.785156 C 117.4375 126.738281 117.199219 125.683594 116.988281 124.621094 C 116.777344 123.558594 116.59375 122.496094 116.433594 121.425781 C 116.277344 120.355469 116.144531 119.28125 116.039062 118.207031 C 115.933594 117.128906 115.851562 116.050781 115.800781 114.972656 C 115.746094 113.890625 115.71875 112.808594 115.71875 111.726562 C 115.71875 110.644531 115.746094 109.566406 115.800781 108.484375 C 115.851562 107.40625 115.933594 106.324219 116.039062 105.25 C 116.144531 104.171875 116.277344 103.097656 116.433594 102.027344 C 116.59375 100.957031 116.777344 99.894531 116.988281 98.832031 C 117.199219 97.773438 117.4375 96.714844 117.699219 95.667969 C 117.964844 94.617188 118.25 93.578125 118.566406 92.542969 C 118.878906 91.507812 119.21875 90.480469 119.582031 89.460938 C 119.949219 88.441406 120.335938 87.433594 120.75 86.433594 C 121.164062 85.433594 121.601562 84.445312 122.066406 83.46875 C 122.527344 82.492188 123.015625 81.523438 123.523438 80.570312 C 124.035156 79.617188 124.566406 78.675781 125.125 77.75 C 125.679688 76.820312 126.257812 75.90625 126.859375 75.007812 C 127.460938 74.109375 128.082031 73.222656 128.726562 72.355469 C 129.371094 71.484375 130.035156 70.632812 130.722656 69.796875 C 131.410156 68.960938 132.113281 68.144531 132.839844 67.339844 C 133.566406 66.539062 134.3125 65.757812 135.078125 64.992188 C 135.84375 64.226562 136.625 63.480469 137.425781 62.753906 C 138.230469 62.027344 139.046875 61.320312 139.882812 60.636719 C 140.71875 59.949219 141.574219 59.285156 142.441406 58.640625 C 143.308594 57.996094 144.195312 57.371094 145.09375 56.773438 C 145.992188 56.171875 146.90625 55.59375 147.835938 55.035156 C 148.761719 54.480469 149.703125 53.949219 150.65625 53.4375 C 151.609375 52.929688 152.578125 52.441406 153.554688 51.980469 C 154.53125 51.515625 155.519531 51.078125 156.519531 50.664062 C 157.519531 50.25 158.527344 49.863281 159.546875 49.496094 C 160.566406 49.132812 161.59375 48.792969 162.628906 48.480469 C 163.664062 48.167969 164.703125 47.878906 165.753906 47.613281 C 166.804688 47.351562 167.859375 47.113281 168.917969 46.902344 C 169.980469 46.691406 171.046875 46.507812 172.117188 46.351562 C 173.183594 46.191406 174.257812 46.058594 175.335938 45.953125 C 176.410156 45.847656 177.488281 45.765625 178.570312 45.714844 C 179.652344 45.660156 180.730469 45.632812 181.8125 45.632812 C 182.894531 45.632812 183.976562 45.660156 185.054688 45.714844 C 186.136719 45.765625 187.214844 45.847656 188.292969 45.953125 C 189.367188 46.058594 190.441406 46.191406 191.511719 46.351562 C 192.582031 46.507812 193.648438 46.691406 194.707031 46.902344 C 195.769531 47.113281 196.824219 47.351562 197.871094 47.613281 C 198.921875 47.878906 199.964844 48.164062 201 48.480469 C 202.035156 48.792969 203.0625 49.132812 204.078125 49.496094 C 205.097656 49.863281 206.105469 50.25 207.105469 50.664062 C 208.105469 51.078125 209.09375 51.515625 210.070312 51.980469 C 211.050781 52.441406 212.015625 52.929688 212.96875 53.4375 C 213.921875 53.949219 214.863281 54.480469 215.792969 55.035156 C 216.71875 55.59375 217.632812 56.171875 218.53125 56.773438 C 219.433594 57.371094 220.316406 57.996094 221.183594 58.640625 C 222.054688 59.285156 222.90625 59.949219 223.742188 60.636719 C 224.578125 61.320312 225.398438 62.027344 226.199219 62.753906 C 227 63.480469 227.785156 64.226562 228.546875 64.992188 C 229.3125 65.757812 230.058594 66.539062 230.785156 67.339844 C 231.511719 68.144531 232.21875 68.960938 232.902344 69.796875 C 233.589844 70.632812 234.253906 71.484375 234.898438 72.355469 C 235.542969 73.222656 236.167969 74.109375 236.769531 75.007812 C 237.367188 75.90625 237.949219 76.820312 238.503906 77.75 C 239.058594 78.675781 239.59375 79.617188 240.101562 80.570312 C 240.613281 81.523438 241.097656 82.492188 241.5625 83.46875 C 242.023438 84.445312 242.460938 85.433594 242.875 86.433594 C 243.289062 87.433594 243.679688 88.441406 244.042969 89.460938 C 244.40625 90.480469 244.746094 91.507812 245.0625 92.542969 C 245.375 93.578125 245.664062 94.617188 245.925781 95.667969 C 246.1875 96.714844 246.425781 97.773438 246.636719 98.832031 C 246.847656 99.894531 247.03125 100.957031 247.191406 102.03125 C 247.351562 103.097656 247.480469 104.171875 247.589844 105.25 C 247.695312 106.328125 247.773438 107.40625 247.828125 108.484375 C 247.878906 109.566406 247.90625 110.644531 247.90625 111.726562 Z M 247.90625 111.726562 " fill-opacity="1" fill-rule="nonzero"/><path fill="#93c5fd" d="M 307.828125 262.507812 C 310.328125 278.257812 321.113281 297.09375 296.996094 309.101562 C 272.878906 321.109375 224.347656 328.605469 186.535156 328.605469 C 148.726562 328.605469 99.140625 321.203125 74.492188 309.242188 C 49.84375 297.277344 62.160156 278.085938 65.246094 262.507812 C 69.148438 242.8125 81.808594 223.367188 98.585938 212.335938 C 123.476562 195.964844 156.742188 196.695312 186.535156 196.410156 C 216.980469 196.121094 251.46875 193.933594 276.699219 210.964844 C 293.335938 222.195312 304.679688 242.683594 307.824219 262.507812 Z M 307.828125 262.507812 " fill-opacity="1" fill-rule="nonzero"/><path fill="#1d4ed8" d="M 185.914062 327.351562 L 159.605469 290.042969 L 185.914062 227.089844 L 212.222656 290.042969 Z M 185.914062 233.875 L 159.605469 196.566406 L 212.226562 196.566406 Z M 185.914062 233.875 " fill-opacity="1" fill-rule="nonzero"/></svg>