<svg xmlns="http://www.w3.org/2000/svg" xmlns:xlink="http://www.w3.org/1999/xlink" width="500" zoomAndPan="magnify" viewBox="0 0 375 374.999991" height="500" preserveAspectRatio="xMidYMid meet" version="1.0"><defs><clipPath id="a79680df61"><path d="M 130.570312 42.316406 L 243.070312 42.316406 L 243.070312 154.816406 L 130.570312 154.816406 Z M 130.570312 42.316406 " clip-rule="nonzero"/></clipPath><clipPath id="ba7920461e"><path d="M 186.820312 42.316406 C 155.753906 42.316406 130.570312 67.5 130.570312 98.566406 C 130.570312 129.632812 155.753906 154.816406 186.820312 154.816406 C 217.886719 154.816406 243.070312 129.632812 243.070312 98.566406 C 243.070312 67.5 217.886719 42.316406 186.820312 42.316406 Z M 186.820312 42.316406 " clip-rule="nonzero"/></clipPath><clipPath id="0685772e6e"><path d="M 25.371094 75 L 348 75 L 348 319.925781 L 25.371094 319.925781 Z M 25.371094 75 " clip-rule="nonzero"/></clipPath><clipPath id="2eae4f110f"><path d="M 0 34.453125 L 375 34.453125 L 375 340.453125 L 0 340.453125 Z M 0 34.453125 " clip-rule="nonzero"/></clipPath></defs><g clip-path="url(#a79680df61)"><g clip-path="url(#ba7920461e)"><path fill="#93c5fd" d="M 130.570312 42.316406 L 243.070312 42.316406 L 243.070312 154.816406 L 130.570312 154.816406 Z M 130.570312 42.316406 " fill-opacity="1" fill-rule="nonzero"/></g></g><g clip-path="url(#0685772e6e)"><path fill="#93c5fd" d="M 25.371094 75 L 347.792969 75 L 347.792969 319.925781 L 25.371094 319.925781 Z M 25.371094 75 " fill-opacity="1" fill-rule="nonzero"/></g><g clip-path="url(#2eae4f110f)"><path fill="#172554" d="M 368.289062 275.464844 L 355.320312 275.464844 L 355.320312 87.316406 C 355.324219 86.726562 355.296875 86.132812 355.242188 85.542969 C 355.183594 84.953125 355.097656 84.363281 354.984375 83.78125 C 354.871094 83.199219 354.730469 82.625 354.558594 82.054688 C 354.386719 81.488281 354.1875 80.929688 353.964844 80.378906 C 353.738281 79.832031 353.484375 79.296875 353.207031 78.769531 C 352.929688 78.246094 352.625 77.738281 352.296875 77.246094 C 351.96875 76.75 351.617188 76.273438 351.242188 75.8125 C 350.863281 75.355469 350.46875 74.914062 350.046875 74.496094 C 349.628906 74.074219 349.191406 73.675781 348.734375 73.296875 C 348.273438 72.921875 347.800781 72.566406 347.304688 72.238281 C 346.8125 71.90625 346.304688 71.601562 345.78125 71.320312 C 345.257812 71.039062 344.722656 70.785156 344.175781 70.558594 C 343.628906 70.332031 343.070312 70.132812 342.503906 69.957031 C 341.933594 69.785156 341.359375 69.640625 340.777344 69.527344 C 340.195312 69.410156 339.609375 69.324219 339.019531 69.265625 C 338.429688 69.207031 337.835938 69.175781 337.242188 69.175781 L 246.472656 69.175781 C 245.039062 66.539062 243.429688 64.007812 241.652344 61.585938 C 239.878906 59.164062 237.949219 56.871094 235.863281 54.707031 C 233.777344 52.542969 231.558594 50.527344 229.203125 48.660156 C 226.851562 46.796875 224.382812 45.097656 221.796875 43.5625 C 219.214844 42.027344 216.542969 40.671875 213.777344 39.496094 C 211.011719 38.320312 208.179688 37.335938 205.285156 36.539062 C 202.386719 35.746094 199.449219 35.144531 196.472656 34.746094 C 193.496094 34.34375 190.503906 34.140625 187.5 34.140625 C 184.496094 34.140625 181.503906 34.34375 178.527344 34.746094 C 175.550781 35.144531 172.613281 35.746094 169.714844 36.539062 C 166.820312 37.335938 163.988281 38.320312 161.222656 39.496094 C 158.457031 40.671875 155.785156 42.027344 153.203125 43.5625 C 150.617188 45.097656 148.148438 46.796875 145.796875 48.660156 C 143.441406 50.527344 141.222656 52.542969 139.136719 54.707031 C 137.050781 56.871094 135.121094 59.164062 133.34375 61.585938 C 131.570312 64.007812 129.960938 66.539062 128.527344 69.175781 L 37.757812 69.175781 C 37.164062 69.175781 36.570312 69.207031 35.980469 69.265625 C 35.390625 69.324219 34.804688 69.410156 34.222656 69.527344 C 33.640625 69.640625 33.066406 69.785156 32.496094 69.957031 C 31.929688 70.132812 31.371094 70.332031 30.824219 70.558594 C 30.277344 70.785156 29.742188 71.039062 29.21875 71.320312 C 28.695312 71.601562 28.1875 71.90625 27.695312 72.238281 C 27.199219 72.566406 26.726562 72.921875 26.265625 73.296875 C 25.808594 73.675781 25.371094 74.074219 24.953125 74.496094 C 24.53125 74.914062 24.136719 75.355469 23.757812 75.8125 C 23.382812 76.273438 23.03125 76.75 22.703125 77.246094 C 22.375 77.738281 22.070312 78.246094 21.792969 78.769531 C 21.515625 79.296875 21.261719 79.832031 21.035156 80.378906 C 20.8125 80.929688 20.613281 81.488281 20.441406 82.054688 C 20.269531 82.625 20.128906 83.199219 20.015625 83.78125 C 19.902344 84.363281 19.816406 84.953125 19.757812 85.542969 C 19.703125 86.132812 19.675781 86.726562 19.679688 87.316406 L 19.679688 275.464844 L 6.710938 275.464844 C 6.300781 275.464844 5.898438 275.503906 5.496094 275.582031 C 5.09375 275.664062 4.703125 275.78125 4.324219 275.9375 C 3.949219 276.09375 3.589844 276.285156 3.246094 276.511719 C 2.90625 276.742188 2.59375 277 2.304688 277.289062 C 2.015625 277.578125 1.753906 277.894531 1.527344 278.234375 C 1.300781 278.574219 1.109375 278.933594 0.953125 279.3125 C 0.796875 279.691406 0.675781 280.078125 0.597656 280.480469 C 0.515625 280.882812 0.476562 281.289062 0.476562 281.695312 C 0.480469 283.613281 0.574219 285.523438 0.765625 287.429688 C 0.953125 289.335938 1.234375 291.226562 1.609375 293.105469 C 1.984375 294.984375 2.453125 296.839844 3.007812 298.671875 C 3.566406 300.503906 4.210938 302.304688 4.945312 304.074219 C 5.675781 305.84375 6.496094 307.574219 7.398438 309.261719 C 8.300781 310.953125 9.285156 312.59375 10.347656 314.183594 C 11.414062 315.777344 12.550781 317.316406 13.765625 318.796875 C 14.980469 320.277344 16.265625 321.695312 17.617188 323.050781 C 18.972656 324.40625 20.390625 325.691406 21.867188 326.90625 C 23.347656 328.121094 24.882812 329.261719 26.476562 330.328125 C 28.066406 331.394531 29.707031 332.378906 31.394531 333.285156 C 33.082031 334.1875 34.8125 335.007812 36.582031 335.746094 C 38.347656 336.480469 40.148438 337.128906 41.980469 337.6875 C 43.8125 338.246094 45.667969 338.710938 47.546875 339.089844 C 49.425781 339.464844 51.316406 339.75 53.222656 339.941406 C 55.128906 340.132812 57.039062 340.230469 58.953125 340.234375 L 316.046875 340.234375 C 317.960938 340.230469 319.871094 340.132812 321.777344 339.941406 C 323.683594 339.75 325.574219 339.464844 327.453125 339.089844 C 329.332031 338.710938 331.1875 338.246094 333.019531 337.6875 C 334.851562 337.128906 336.652344 336.480469 338.417969 335.746094 C 340.1875 335.007812 341.917969 334.1875 343.605469 333.285156 C 345.292969 332.378906 346.933594 331.394531 348.523438 330.328125 C 350.117188 329.261719 351.652344 328.121094 353.132812 326.90625 C 354.609375 325.691406 356.027344 324.40625 357.382812 323.050781 C 358.734375 321.695312 360.019531 320.277344 361.234375 318.796875 C 362.449219 317.316406 363.585938 315.777344 364.652344 314.183594 C 365.714844 312.59375 366.699219 310.953125 367.601562 309.261719 C 368.503906 307.574219 369.324219 305.84375 370.054688 304.074219 C 370.789062 302.304688 371.433594 300.503906 371.992188 298.671875 C 372.546875 296.839844 373.015625 294.984375 373.390625 293.105469 C 373.765625 291.226562 374.046875 289.335938 374.234375 287.429688 C 374.425781 285.523438 374.519531 283.613281 374.523438 281.695312 C 374.523438 281.289062 374.484375 280.882812 374.402344 280.480469 C 374.324219 280.078125 374.203125 279.691406 374.046875 279.3125 C 373.890625 278.933594 373.699219 278.574219 373.472656 278.234375 C 373.246094 277.894531 372.984375 277.578125 372.695312 277.289062 C 372.40625 277 372.09375 276.742188 371.753906 276.511719 C 371.410156 276.285156 371.050781 276.09375 370.675781 275.9375 C 370.296875 275.78125 369.90625 275.664062 369.503906 275.582031 C 369.101562 275.503906 368.699219 275.464844 368.289062 275.464844 Z M 54.589844 312.242188 C 54.003906 311.65625 53.554688 310.980469 53.238281 310.214844 C 52.925781 309.445312 52.773438 308.648438 52.78125 307.816406 C 52.773438 306.996094 52.925781 306.210938 53.238281 305.453125 C 53.554688 304.695312 54.003906 304.027344 54.589844 303.453125 C 55.148438 302.84375 55.816406 302.386719 56.585938 302.082031 C 57.15625 301.855469 57.75 301.714844 58.359375 301.65625 C 58.972656 301.601562 59.582031 301.636719 60.1875 301.757812 C 60.789062 301.878906 61.363281 302.085938 61.90625 302.375 C 62.449219 302.660156 62.941406 303.023438 63.378906 303.453125 C 63.988281 304.015625 64.445312 304.679688 64.75 305.449219 C 65.074219 306.207031 65.238281 306.996094 65.25 307.816406 C 65.253906 308.652344 65.089844 309.453125 64.765625 310.222656 C 64.441406 310.992188 63.980469 311.664062 63.378906 312.242188 C 62.804688 312.828125 62.140625 313.28125 61.382812 313.59375 C 60.625 313.90625 59.835938 314.058594 59.015625 314.050781 C 58.175781 314.058594 57.367188 313.914062 56.585938 313.617188 C 55.832031 313.289062 55.164062 312.832031 54.589844 312.242188 Z M 78.527344 307.816406 C 78.515625 307 78.660156 306.210938 78.964844 305.449219 C 79.066406 305.214844 79.179688 304.988281 79.308594 304.769531 C 79.4375 304.550781 79.578125 304.339844 79.730469 304.140625 C 79.886719 303.9375 80.050781 303.746094 80.226562 303.5625 C 80.40625 303.382812 80.589844 303.210938 80.789062 303.050781 C 80.988281 302.890625 81.195312 302.746094 81.410156 302.613281 C 81.625 302.476562 81.847656 302.355469 82.078125 302.25 C 82.308594 302.140625 82.542969 302.050781 82.785156 301.96875 C 83.027344 301.890625 83.273438 301.828125 83.519531 301.777344 C 83.769531 301.730469 84.019531 301.695312 84.273438 301.679688 C 84.527344 301.660156 84.78125 301.65625 85.035156 301.667969 C 85.289062 301.679688 85.539062 301.707031 85.789062 301.75 C 86.039062 301.792969 86.285156 301.851562 86.53125 301.925781 C 86.773438 301.996094 87.011719 302.085938 87.242188 302.1875 C 87.476562 302.289062 87.703125 302.402344 87.921875 302.53125 C 88.140625 302.660156 88.351562 302.800781 88.550781 302.957031 C 88.753906 303.109375 88.945312 303.277344 89.125 303.453125 C 89.71875 304.023438 90.179688 304.6875 90.503906 305.445312 C 90.828125 306.203125 90.992188 306.992188 90.996094 307.816406 C 90.992188 308.652344 90.828125 309.449219 90.503906 310.21875 C 90.179688 310.984375 89.722656 311.660156 89.125 312.242188 C 88.6875 312.671875 88.199219 313.03125 87.65625 313.3125 C 87.113281 313.597656 86.539062 313.796875 85.9375 313.914062 C 85.335938 314.03125 84.730469 314.054688 84.121094 313.992188 C 83.511719 313.929688 82.925781 313.78125 82.359375 313.542969 C 81.792969 313.308594 81.273438 312.996094 80.800781 312.605469 C 80.328125 312.21875 79.921875 311.769531 79.582031 311.257812 C 79.238281 310.75 78.980469 310.203125 78.800781 309.617188 C 78.621094 309.03125 78.53125 308.429688 78.527344 307.816406 Z M 114.871094 312.242188 C 114.296875 312.832031 113.632812 313.289062 112.878906 313.617188 C 112.117188 313.917969 111.328125 314.0625 110.507812 314.050781 C 110.085938 314.074219 109.671875 314.035156 109.261719 313.925781 C 108.859375 313.851562 108.464844 313.75 108.078125 313.617188 C 107.703125 313.445312 107.347656 313.238281 107.019531 312.992188 C 106.664062 312.796875 106.351562 312.546875 106.082031 312.242188 C 105.492188 311.660156 105.039062 310.984375 104.722656 310.214844 C 104.410156 309.449219 104.261719 308.648438 104.273438 307.816406 C 104.261719 307 104.40625 306.210938 104.710938 305.449219 C 105.039062 304.695312 105.496094 304.03125 106.082031 303.453125 C 106.367188 303.152344 106.675781 302.878906 107.019531 302.644531 C 107.328125 302.457031 107.703125 302.269531 108.078125 302.082031 C 108.453125 301.894531 108.886719 301.832031 109.261719 301.707031 C 110.507812 301.453125 111.710938 301.578125 112.878906 302.082031 C 113.648438 302.386719 114.3125 302.84375 114.871094 303.453125 C 115.46875 304.023438 115.925781 304.6875 116.25 305.445312 C 116.574219 306.203125 116.738281 306.992188 116.742188 307.816406 C 116.738281 308.652344 116.574219 309.449219 116.25 310.21875 C 115.925781 310.984375 115.46875 311.660156 114.871094 312.242188 Z M 165.804688 255.140625 L 183.324219 270.789062 C 183.609375 271.050781 183.921875 271.285156 184.253906 271.488281 C 184.585938 271.695312 184.933594 271.867188 185.300781 272.003906 C 185.664062 272.144531 186.039062 272.246094 186.425781 272.3125 C 186.808594 272.382812 187.195312 272.414062 187.585938 272.40625 C 187.976562 272.402344 188.363281 272.359375 188.746094 272.28125 C 189.128906 272.199219 189.5 272.085938 189.859375 271.9375 C 190.222656 271.789062 190.566406 271.605469 190.890625 271.390625 C 191.21875 271.175781 191.519531 270.933594 191.800781 270.664062 L 208.257812 254.953125 C 208.972656 254.277344 209.496094 253.480469 209.835938 252.558594 C 210.175781 251.640625 210.292969 250.691406 210.191406 249.714844 L 202.460938 187.375 L 214.058594 172.726562 C 216.234375 173.425781 218.382812 174.210938 220.5 175.078125 C 222.617188 175.945312 224.695312 176.898438 226.738281 177.929688 C 228.777344 178.960938 230.777344 180.074219 232.730469 181.261719 C 234.683594 182.453125 236.589844 183.71875 238.445312 185.058594 C 240.296875 186.398438 242.097656 187.808594 243.839844 189.289062 C 245.585938 190.769531 247.269531 192.316406 248.890625 193.929688 C 250.511719 195.542969 252.066406 197.21875 253.558594 198.957031 C 255.046875 200.691406 256.46875 202.484375 257.816406 204.332031 C 259.164062 206.179688 260.441406 208.078125 261.640625 210.023438 C 262.839844 211.972656 263.960938 213.964844 265.003906 216 C 266.046875 218.039062 267.007812 220.113281 267.886719 222.222656 C 268.765625 224.335938 269.5625 226.480469 270.273438 228.65625 C 270.984375 230.828125 271.609375 233.027344 272.144531 235.253906 C 272.683594 237.476562 273.132812 239.71875 273.496094 241.976562 C 273.855469 244.234375 274.128906 246.503906 274.3125 248.785156 C 274.496094 251.066406 274.585938 253.351562 274.589844 255.636719 L 274.589844 275.464844 L 100.410156 275.464844 L 100.410156 255.636719 C 100.414062 253.351562 100.503906 251.066406 100.6875 248.785156 C 100.871094 246.503906 101.144531 244.234375 101.503906 241.976562 C 101.867188 239.71875 102.316406 237.476562 102.855469 235.253906 C 103.390625 233.027344 104.015625 230.828125 104.726562 228.65625 C 105.4375 226.480469 106.234375 224.335938 107.113281 222.222656 C 107.992188 220.113281 108.953125 218.039062 109.996094 216 C 111.039062 213.964844 112.160156 211.972656 113.359375 210.023438 C 114.558594 208.078125 115.835938 206.179688 117.183594 204.332031 C 118.53125 202.484375 119.953125 200.691406 121.441406 198.957031 C 122.933594 197.21875 124.488281 195.542969 126.109375 193.929688 C 127.730469 192.316406 129.414062 190.769531 131.160156 189.289062 C 132.902344 187.808594 134.703125 186.398438 136.554688 185.058594 C 138.410156 183.71875 140.316406 182.453125 142.269531 181.261719 C 144.222656 180.074219 146.222656 178.960938 148.261719 177.929688 C 150.304688 176.898438 152.382812 175.945312 154.5 175.078125 C 156.617188 174.210938 158.765625 173.425781 160.941406 172.726562 L 171.601562 186.191406 L 163.808594 249.714844 C 163.6875 250.726562 163.804688 251.710938 164.15625 252.667969 C 164.507812 253.625 165.058594 254.449219 165.804688 255.140625 Z M 251.710938 81.644531 L 337.242188 81.644531 C 337.613281 81.644531 337.980469 81.679688 338.34375 81.753906 C 338.707031 81.828125 339.0625 81.933594 339.40625 82.078125 C 339.746094 82.222656 340.070312 82.394531 340.378906 82.605469 C 340.6875 82.8125 340.972656 83.046875 341.230469 83.308594 C 341.492188 83.574219 341.726562 83.859375 341.929688 84.171875 C 342.132812 84.480469 342.304688 84.808594 342.445312 85.152344 C 342.582031 85.496094 342.6875 85.851562 342.757812 86.214844 C 342.824219 86.578125 342.859375 86.945312 342.851562 87.316406 L 342.851562 275.464844 L 287.058594 275.464844 L 287.058594 255.636719 C 287.054688 253.03125 286.945312 250.433594 286.738281 247.835938 C 286.53125 245.238281 286.21875 242.652344 285.808594 240.078125 C 285.398438 237.507812 284.886719 234.953125 284.277344 232.421875 C 283.664062 229.890625 282.957031 227.382812 282.148438 224.90625 C 281.339844 222.429688 280.4375 219.988281 279.4375 217.582031 C 278.441406 215.175781 277.347656 212.8125 276.164062 210.488281 C 274.980469 208.167969 273.707031 205.898438 272.347656 203.675781 C 270.984375 201.457031 269.539062 199.292969 268.007812 197.183594 C 266.472656 195.074219 264.863281 193.03125 263.171875 191.050781 C 261.480469 189.070312 259.710938 187.15625 257.871094 185.3125 C 256.03125 183.46875 254.117188 181.703125 252.136719 180.007812 C 250.160156 178.316406 248.113281 176.703125 246.007812 175.167969 C 243.902344 173.636719 241.738281 172.1875 239.519531 170.824219 C 237.296875 169.460938 235.027344 168.183594 232.707031 167 C 230.386719 165.8125 228.023438 164.71875 225.621094 163.71875 C 223.214844 162.71875 220.773438 161.8125 218.296875 161.003906 C 221.023438 159.597656 223.640625 158.011719 226.148438 156.25 C 228.65625 154.484375 231.03125 152.554688 233.277344 150.464844 C 235.523438 148.375 237.613281 146.144531 239.554688 143.765625 C 241.492188 141.390625 243.261719 138.894531 244.859375 136.277344 C 246.457031 133.65625 247.867188 130.945312 249.09375 128.132812 C 250.320312 125.320312 251.351562 122.4375 252.183594 119.488281 C 253.015625 116.535156 253.640625 113.539062 254.0625 110.503906 C 254.484375 107.464844 254.699219 104.410156 254.703125 101.34375 C 254.703125 94.625 253.707031 88.058594 251.710938 81.644531 Z M 187.5 46.609375 C 189.292969 46.609375 191.082031 46.699219 192.863281 46.875 C 194.648438 47.050781 196.421875 47.3125 198.179688 47.660156 C 199.9375 48.011719 201.671875 48.445312 203.390625 48.964844 C 205.105469 49.488281 206.789062 50.089844 208.445312 50.777344 C 210.101562 51.460938 211.722656 52.226562 213.300781 53.074219 C 214.882812 53.917969 216.417969 54.839844 217.910156 55.835938 C 219.398438 56.832031 220.839844 57.898438 222.222656 59.035156 C 223.609375 60.171875 224.9375 61.375 226.203125 62.640625 C 227.472656 63.910156 228.671875 65.234375 229.8125 66.621094 C 230.949219 68.007812 232.015625 69.445312 233.011719 70.9375 C 234.007812 72.425781 234.925781 73.960938 235.773438 75.542969 C 236.617188 77.125 237.382812 78.742188 238.070312 80.398438 C 238.753906 82.054688 239.359375 83.742188 239.878906 85.457031 C 240.398438 87.171875 240.832031 88.910156 241.183594 90.667969 C 241.535156 92.425781 241.796875 94.195312 241.972656 95.980469 C 242.148438 97.765625 242.234375 99.550781 242.234375 101.34375 C 242.234375 103.136719 242.148438 104.925781 241.972656 106.710938 C 241.796875 108.492188 241.535156 110.265625 241.183594 112.023438 C 240.832031 113.78125 240.398438 115.519531 239.878906 117.234375 C 239.359375 118.949219 238.753906 120.636719 238.070312 122.292969 C 237.382812 123.949219 236.617188 125.566406 235.773438 127.148438 C 234.925781 128.726562 234.007812 130.261719 233.011719 131.753906 C 232.015625 133.246094 230.949219 134.683594 229.8125 136.070312 C 228.671875 137.453125 227.472656 138.78125 226.203125 140.046875 C 224.9375 141.316406 223.609375 142.519531 222.222656 143.65625 C 220.839844 144.792969 219.398438 145.859375 217.910156 146.855469 C 216.417969 147.851562 214.882812 148.773438 213.300781 149.617188 C 211.722656 150.460938 210.101562 151.226562 208.445312 151.914062 C 206.789062 152.601562 205.105469 153.203125 203.390625 153.722656 C 201.671875 154.242188 199.9375 154.679688 198.179688 155.027344 C 196.421875 155.378906 194.648438 155.640625 192.863281 155.816406 C 191.082031 155.992188 189.292969 156.082031 187.5 156.082031 C 185.707031 156.082031 183.917969 155.992188 182.136719 155.816406 C 180.351562 155.640625 178.578125 155.378906 176.820312 155.027344 C 175.0625 154.679688 173.328125 154.242188 171.609375 153.722656 C 169.894531 153.203125 168.210938 152.601562 166.554688 151.914062 C 164.898438 151.226562 163.277344 150.460938 161.699219 149.617188 C 160.117188 148.773438 158.582031 147.851562 157.089844 146.855469 C 155.601562 145.859375 154.160156 144.792969 152.777344 143.65625 C 151.390625 142.519531 150.0625 141.316406 148.796875 140.046875 C 147.527344 138.78125 146.328125 137.453125 145.1875 136.070312 C 144.050781 134.683594 142.984375 133.246094 141.988281 131.753906 C 140.992188 130.261719 140.074219 128.726562 139.226562 127.148438 C 138.382812 125.566406 137.617188 123.949219 136.929688 122.292969 C 136.246094 120.636719 135.640625 118.949219 135.121094 117.234375 C 134.601562 115.519531 134.167969 113.78125 133.816406 112.023438 C 133.464844 110.265625 133.203125 108.492188 133.027344 106.710938 C 132.851562 104.925781 132.765625 103.136719 132.765625 101.34375 C 132.765625 99.554688 132.855469 97.765625 133.035156 95.980469 C 133.210938 94.199219 133.476562 92.429688 133.828125 90.671875 C 134.179688 88.914062 134.617188 87.179688 135.136719 85.464844 C 135.660156 83.75 136.265625 82.066406 136.949219 80.410156 C 137.636719 78.753906 138.402344 77.136719 139.25 75.558594 C 140.09375 73.976562 141.015625 72.441406 142.011719 70.953125 C 143.007812 69.464844 144.074219 68.027344 145.210938 66.640625 C 146.347656 65.257812 147.550781 63.929688 148.816406 62.664062 C 150.085938 61.394531 151.410156 60.195312 152.796875 59.058594 C 154.179688 57.917969 155.617188 56.851562 157.109375 55.855469 C 158.597656 54.859375 160.132812 53.941406 161.710938 53.09375 C 163.292969 52.25 164.910156 51.484375 166.566406 50.796875 C 168.21875 50.109375 169.90625 49.503906 171.621094 48.984375 C 173.332031 48.460938 175.070312 48.023438 176.828125 47.671875 C 178.585938 47.324219 180.355469 47.058594 182.136719 46.878906 C 183.921875 46.703125 185.707031 46.613281 187.5 46.609375 Z M 32.148438 87.316406 C 32.140625 86.945312 32.175781 86.578125 32.242188 86.214844 C 32.3125 85.851562 32.417969 85.496094 32.554688 85.152344 C 32.695312 84.808594 32.867188 84.480469 33.070312 84.171875 C 33.273438 83.859375 33.507812 83.574219 33.769531 83.308594 C 34.027344 83.046875 34.3125 82.8125 34.621094 82.605469 C 34.929688 82.394531 35.253906 82.222656 35.59375 82.078125 C 35.9375 81.933594 36.292969 81.828125 36.65625 81.753906 C 37.019531 81.679688 37.386719 81.644531 37.757812 81.644531 L 123.289062 81.644531 C 121.292969 88.058594 120.296875 94.625 120.296875 101.34375 C 120.300781 104.410156 120.515625 107.464844 120.9375 110.503906 C 121.359375 113.539062 121.984375 116.535156 122.816406 119.488281 C 123.648438 122.4375 124.679688 125.320312 125.90625 128.132812 C 127.132812 130.945312 128.542969 133.660156 130.140625 136.277344 C 131.738281 138.894531 133.507812 141.390625 135.445312 143.765625 C 137.386719 146.144531 139.476562 148.375 141.722656 150.464844 C 143.96875 152.554688 146.34375 154.484375 148.851562 156.25 C 151.359375 158.011719 153.976562 159.597656 156.703125 161.003906 C 154.226562 161.8125 151.785156 162.71875 149.378906 163.71875 C 146.976562 164.71875 144.613281 165.8125 142.292969 167 C 139.972656 168.183594 137.703125 169.460938 135.480469 170.824219 C 133.261719 172.1875 131.097656 173.636719 128.992188 175.167969 C 126.886719 176.703125 124.839844 178.316406 122.863281 180.007812 C 120.882812 181.703125 118.96875 183.46875 117.128906 185.3125 C 115.289062 187.15625 113.519531 189.070312 111.828125 191.050781 C 110.136719 193.03125 108.527344 195.074219 106.992188 197.183594 C 105.460938 199.292969 104.015625 201.457031 102.652344 203.675781 C 101.292969 205.898438 100.019531 208.167969 98.835938 210.488281 C 97.652344 212.8125 96.558594 215.175781 95.5625 217.582031 C 94.5625 219.988281 93.660156 222.429688 92.851562 224.90625 C 92.042969 227.382812 91.335938 229.890625 90.722656 232.421875 C 90.113281 234.953125 89.601562 237.507812 89.191406 240.078125 C 88.78125 242.652344 88.46875 245.238281 88.261719 247.835938 C 88.054688 250.433594 87.945312 253.03125 87.941406 255.636719 L 87.941406 275.464844 L 32.148438 275.464844 Z M 32.148438 87.316406 " fill-opacity="1" fill-rule="nonzero"/></g></svg>