<svg xmlns="http://www.w3.org/2000/svg" xmlns:xlink="http://www.w3.org/1999/xlink" width="500" zoomAndPan="magnify" viewBox="0 0 375 374.999991" height="500" preserveAspectRatio="xMidYMid meet" version="1.0"><defs><clipPath id="dfe421e27b"><path d="M 187.5 238.195312 L 320 238.195312 L 320 303.820312 L 187.5 303.820312 Z M 187.5 238.195312 " clip-rule="nonzero"/></clipPath><clipPath id="83628e69e6"><path d="M 0 206.820312 L 264.375 206.820312 L 264.375 339.945312 L 0 339.945312 Z M 0 206.820312 " clip-rule="nonzero"/></clipPath><clipPath id="1aadee0fce"><path d="M 53.78125 25.546875 L 201.929688 25.546875 L 201.929688 173.691406 L 53.78125 173.691406 Z M 53.78125 25.546875 " clip-rule="nonzero"/></clipPath><clipPath id="edfda217c1"><path d="M 127.855469 25.546875 C 86.945312 25.546875 53.78125 58.710938 53.78125 99.621094 C 53.78125 140.527344 86.945312 173.691406 127.855469 173.691406 C 168.765625 173.691406 201.929688 140.527344 201.929688 99.621094 C 201.929688 58.710938 168.765625 25.546875 127.855469 25.546875 Z M 127.855469 25.546875 " clip-rule="nonzero"/></clipPath><clipPath id="e30da37f67"><path d="M 48 25.546875 L 207 25.546875 L 207 184 L 48 184 Z M 48 25.546875 " clip-rule="nonzero"/></clipPath><clipPath id="a387678de5"><path d="M 0 190 L 375 190 L 375 349.921875 L 0 349.921875 Z M 0 190 " clip-rule="nonzero"/></clipPath></defs><g clip-path="url(#dfe421e27b)"><path fill="#93c5fd" d="M 253.730469 238.1875 C 272.015625 238.1875 288.496094 245.589844 300.46875 257.5625 C 312.445312 269.539062 319.847656 286.082031 319.847656 304.300781 C 298.410156 304.300781 209.117188 304.300781 187.613281 304.300781 C 187.613281 286.082031 195.015625 269.539062 206.992188 257.5625 C 218.964844 245.589844 235.511719 238.1875 253.730469 238.1875 Z M 253.730469 238.1875 " fill-opacity="1" fill-rule="nonzero"/></g><g clip-path="url(#83628e69e6)"><path fill="#93c5fd" d="M 132.460938 206.796875 C 169.027344 206.796875 201.992188 221.605469 225.941406 245.554688 C 249.886719 269.5 264.695312 302.59375 264.695312 339.03125 C 221.820312 339.03125 43.234375 339.03125 0.226562 339.03125 C 0.226562 302.59375 15.035156 269.5 38.984375 245.554688 C 62.933594 221.605469 96.023438 206.796875 132.460938 206.796875 Z M 132.460938 206.796875 " fill-opacity="1" fill-rule="nonzero"/></g><g clip-path="url(#1aadee0fce)"><g clip-path="url(#edfda217c1)"><path fill="#93c5fd" d="M 53.78125 25.546875 L 201.929688 25.546875 L 201.929688 173.691406 L 53.78125 173.691406 Z M 53.78125 25.546875 " fill-opacity="1" fill-rule="nonzero"/></g></g><g clip-path="url(#e30da37f67)"><path fill="#172554" d="M 127.539062 25.332031 C 83.984375 25.332031 48.542969 60.773438 48.542969 104.265625 C 48.542969 147.753906 83.984375 183.257812 127.539062 183.257812 C 171.089844 183.257812 206.46875 147.816406 206.46875 104.265625 C 206.46875 60.710938 171.027344 25.332031 127.539062 25.332031 Z M 127.539062 170.777344 C 90.847656 170.777344 61.023438 140.953125 61.023438 104.265625 C 61.023438 67.574219 90.847656 37.8125 127.539062 37.8125 C 164.226562 37.8125 193.988281 67.636719 193.988281 104.265625 C 193.988281 140.890625 164.164062 170.777344 127.539062 170.777344 Z M 127.539062 170.777344 " fill-opacity="1" fill-rule="nonzero"/></g><g clip-path="url(#a387678de5)"><path fill="#172554" d="M 368.261719 190.996094 L 196.921875 190.996094 C 194.300781 190.996094 191.929688 192.679688 191.054688 195.175781 L 184.691406 213.707031 C 167.097656 204.785156 147.441406 200.105469 127.539062 200.105469 C 57.15625 200.105469 -0.125 257.320312 -0.125 327.703125 L -0.125 342.804688 C -0.125 346.234375 2.683594 349.042969 6.113281 349.042969 L 318.09375 349.042969 C 320.777344 349.042969 323.148438 347.359375 324.023438 344.800781 L 374.125 199.230469 C 374.8125 197.359375 374.5 195.238281 373.316406 193.613281 C 372.128906 191.929688 370.257812 190.996094 368.261719 190.996094 Z M 286.648438 261.625 L 279.535156 282.40625 C 278.660156 284.960938 276.289062 286.648438 273.605469 286.648438 L 234.359375 286.648438 C 232.300781 286.648438 230.429688 285.648438 229.242188 284.027344 C 228.058594 282.34375 227.746094 280.28125 228.433594 278.347656 L 235.605469 257.570312 C 236.480469 255.074219 238.851562 253.390625 241.472656 253.390625 L 280.78125 253.390625 C 282.777344 253.390625 284.652344 254.324219 285.835938 256.011719 C 287.023438 257.632812 287.332031 259.753906 286.648438 261.625 Z M 142.386719 336.5625 L 130.28125 336.5625 C 132.40625 332.882812 133.777344 328.640625 133.777344 324.023438 C 133.777344 310.296875 122.546875 299.125 108.820312 299.125 L 62.832031 299.125 C 59.402344 299.125 56.59375 301.871094 56.59375 305.367188 C 56.59375 308.796875 59.402344 311.605469 62.832031 311.605469 L 108.820312 311.605469 C 115.683594 311.605469 121.296875 317.160156 121.296875 324.023438 C 121.296875 330.949219 115.683594 336.5 108.820312 336.5 L 75.4375 336.5 C 75.375 336.5 75.3125 336.5625 75.3125 336.5625 L 12.355469 336.5625 L 12.355469 327.703125 C 12.355469 264.183594 64.019531 212.582031 127.539062 212.582031 C 146.070312 212.582031 164.351562 217.074219 180.574219 225.5625 L 143.824219 332.445312 Z M 142.386719 336.5625 " fill-opacity="1" fill-rule="nonzero"/></g><path fill="#172554" d="M 243.09375 274.167969 L 269.175781 274.167969 L 272.046875 265.871094 L 245.964844 265.871094 Z M 243.09375 274.167969 " fill-opacity="1" fill-rule="nonzero"/></svg>