<svg xmlns="http://www.w3.org/2000/svg" xmlns:xlink="http://www.w3.org/1999/xlink" width="500" zoomAndPan="magnify" viewBox="0 0 375 374.999991" height="500" preserveAspectRatio="xMidYMid meet" version="1.0"><path fill="#172554" d="M 351.5625 187.5 C 351.5625 190.183594 351.496094 192.867188 351.363281 195.550781 C 351.234375 198.230469 351.035156 200.910156 350.773438 203.582031 C 350.507812 206.253906 350.179688 208.917969 349.785156 211.574219 C 349.394531 214.230469 348.933594 216.875 348.410156 219.507812 C 347.886719 222.140625 347.296875 224.757812 346.644531 227.363281 C 345.992188 229.96875 345.277344 232.554688 344.496094 235.125 C 343.71875 237.695312 342.875 240.242188 341.972656 242.769531 C 341.066406 245.300781 340.101562 247.804688 339.074219 250.285156 C 338.046875 252.765625 336.957031 255.21875 335.8125 257.644531 C 334.664062 260.074219 333.457031 262.46875 332.191406 264.839844 C 330.925781 267.207031 329.601562 269.542969 328.222656 271.84375 C 326.839844 274.148438 325.40625 276.414062 323.914062 278.648438 C 322.421875 280.878906 320.875 283.074219 319.277344 285.230469 C 317.675781 287.386719 316.023438 289.503906 314.320312 291.582031 C 312.617188 293.65625 310.867188 295.6875 309.0625 297.675781 C 307.257812 299.667969 305.410156 301.609375 303.507812 303.507812 C 301.609375 305.410156 299.667969 307.257812 297.675781 309.0625 C 295.6875 310.867188 293.65625 312.617188 291.582031 314.320312 C 289.503906 316.023438 287.386719 317.675781 285.230469 319.277344 C 283.074219 320.875 280.878906 322.421875 278.648438 323.914062 C 276.414062 325.40625 274.148438 326.839844 271.84375 328.222656 C 269.542969 329.601562 267.207031 330.925781 264.839844 332.191406 C 262.46875 333.457031 260.074219 334.664062 257.644531 335.8125 C 255.21875 336.957031 252.765625 338.046875 250.285156 339.074219 C 247.804688 340.101562 245.300781 341.066406 242.769531 341.972656 C 240.242188 342.875 237.695312 343.71875 235.125 344.496094 C 232.554688 345.277344 229.96875 345.992188 227.363281 346.644531 C 224.757812 347.296875 222.140625 347.886719 219.507812 348.410156 C 216.875 348.933594 214.230469 349.394531 211.574219 349.785156 C 208.917969 350.179688 206.253906 350.507812 203.582031 350.773438 C 200.910156 351.035156 198.230469 351.234375 195.550781 351.363281 C 192.867188 351.496094 190.183594 351.5625 187.5 351.5625 C 184.816406 351.5625 182.132812 351.496094 179.449219 351.363281 C 176.769531 351.234375 174.089844 351.035156 171.417969 350.773438 C 168.746094 350.507812 166.082031 350.179688 163.425781 349.785156 C 160.769531 349.394531 158.125 348.933594 155.492188 348.410156 C 152.859375 347.886719 150.242188 347.296875 147.636719 346.644531 C 145.03125 345.992188 142.445312 345.277344 139.875 344.496094 C 137.304688 343.71875 134.757812 342.875 132.230469 341.972656 C 129.699219 341.066406 127.195312 340.101562 124.714844 339.074219 C 122.234375 338.046875 119.78125 336.957031 117.355469 335.8125 C 114.925781 334.664062 112.53125 333.457031 110.160156 332.191406 C 107.792969 330.925781 105.457031 329.601562 103.15625 328.222656 C 100.851562 326.839844 98.585938 325.40625 96.351562 323.914062 C 94.121094 322.421875 91.925781 320.875 89.769531 319.277344 C 87.613281 317.675781 85.496094 316.023438 83.417969 314.320312 C 81.34375 312.617188 79.3125 310.867188 77.324219 309.0625 C 75.332031 307.257812 73.390625 305.410156 71.492188 303.507812 C 69.589844 301.609375 67.742188 299.667969 65.9375 297.675781 C 64.132812 295.6875 62.382812 293.65625 60.679688 291.582031 C 58.976562 289.503906 57.324219 287.386719 55.722656 285.230469 C 54.125 283.074219 52.578125 280.878906 51.085938 278.648438 C 49.59375 276.414062 48.160156 274.148438 46.777344 271.84375 C 45.398438 269.542969 44.074219 267.207031 42.808594 264.839844 C 41.542969 262.46875 40.335938 260.074219 39.1875 257.644531 C 38.042969 255.21875 36.953125 252.765625 35.925781 250.285156 C 34.898438 247.804688 33.933594 245.300781 33.027344 242.769531 C 32.125 240.242188 31.28125 237.695312 30.503906 235.125 C 29.722656 232.554688 29.007812 229.96875 28.355469 227.363281 C 27.703125 224.757812 27.113281 222.140625 26.589844 219.507812 C 26.066406 216.875 25.605469 214.230469 25.214844 211.574219 C 24.820312 208.917969 24.492188 206.253906 24.226562 203.582031 C 23.964844 200.910156 23.765625 198.230469 23.636719 195.550781 C 23.503906 192.867188 23.4375 190.183594 23.4375 187.5 C 23.4375 184.816406 23.503906 182.132812 23.636719 179.449219 C 23.765625 176.769531 23.964844 174.089844 24.226562 171.417969 C 24.492188 168.746094 24.820312 166.082031 25.214844 163.425781 C 25.605469 160.769531 26.066406 158.125 26.589844 155.492188 C 27.113281 152.859375 27.703125 150.242188 28.355469 147.636719 C 29.007812 145.03125 29.722656 142.445312 30.503906 139.875 C 31.28125 137.304688 32.125 134.757812 33.027344 132.230469 C 33.933594 129.699219 34.898438 127.195312 35.925781 124.714844 C 36.953125 122.234375 38.042969 119.78125 39.1875 117.355469 C 40.335938 114.925781 41.542969 112.53125 42.808594 110.160156 C 44.074219 107.792969 45.398438 105.457031 46.777344 103.15625 C 48.160156 100.851562 49.59375 98.585938 51.085938 96.351562 C 52.578125 94.121094 54.125 91.925781 55.722656 89.769531 C 57.324219 87.613281 58.976562 85.496094 60.679688 83.417969 C 62.382812 81.34375 64.132812 79.3125 65.9375 77.324219 C 67.742188 75.332031 69.589844 73.390625 71.492188 71.492188 C 73.390625 69.589844 75.332031 67.742188 77.324219 65.9375 C 79.3125 64.132812 81.34375 62.382812 83.417969 60.679688 C 85.496094 58.976562 87.613281 57.324219 89.769531 55.722656 C 91.925781 54.125 94.121094 52.578125 96.351562 51.085938 C 98.585938 49.59375 100.851562 48.160156 103.15625 46.777344 C 105.457031 45.398438 107.792969 44.074219 110.160156 42.808594 C 112.53125 41.542969 114.925781 40.335938 117.355469 39.1875 C 119.78125 38.042969 122.234375 36.953125 124.714844 35.925781 C 127.195312 34.898438 129.699219 33.933594 132.230469 33.027344 C 134.757812 32.125 137.304688 31.28125 139.875 30.503906 C 142.445312 29.722656 145.03125 29.007812 147.636719 28.355469 C 150.242188 27.703125 152.859375 27.113281 155.492188 26.589844 C 158.125 26.066406 160.769531 25.605469 163.425781 25.214844 C 166.082031 24.820312 168.746094 24.492188 171.417969 24.226562 C 174.089844 23.964844 176.769531 23.765625 179.449219 23.636719 C 182.132812 23.503906 184.816406 23.4375 187.5 23.4375 C 190.183594 23.4375 192.867188 23.503906 195.550781 23.636719 C 198.230469 23.765625 200.910156 23.964844 203.582031 24.226562 C 206.253906 24.492188 208.917969 24.820312 211.574219 25.214844 C 214.230469 25.605469 216.875 26.066406 219.507812 26.589844 C 222.140625 27.113281 224.757812 27.703125 227.363281 28.355469 C 229.96875 29.007812 232.554688 29.722656 235.125 30.503906 C 237.695312 31.28125 240.242188 32.125 242.769531 33.027344 C 245.300781 33.933594 247.804688 34.898438 250.285156 35.925781 C 252.765625 36.953125 255.21875 38.042969 257.644531 39.1875 C 260.074219 40.335938 262.46875 41.542969 264.839844 42.808594 C 267.207031 44.074219 269.542969 45.398438 271.84375 46.777344 C 274.148438 48.160156 276.414062 49.59375 278.648438 51.085938 C 280.878906 52.578125 283.074219 54.125 285.230469 55.722656 C 287.386719 57.324219 289.503906 58.976562 291.582031 60.679688 C 293.65625 62.382812 295.6875 64.132812 297.675781 65.9375 C 299.667969 67.742188 301.609375 69.589844 303.507812 71.492188 C 305.410156 73.390625 307.257812 75.332031 309.0625 77.324219 C 310.867188 79.3125 312.617188 81.34375 314.320312 83.417969 C 316.023438 85.496094 317.675781 87.613281 319.277344 89.769531 C 320.875 91.925781 322.421875 94.121094 323.914062 96.351562 C 325.40625 98.585938 326.839844 100.851562 328.222656 103.15625 C 329.601562 105.457031 330.925781 107.792969 332.191406 110.160156 C 333.457031 112.53125 334.664062 114.925781 335.8125 117.355469 C 336.957031 119.78125 338.046875 122.234375 339.074219 124.714844 C 340.101562 127.195312 341.066406 129.699219 341.972656 132.230469 C 342.875 134.757812 343.71875 137.304688 344.496094 139.875 C 345.277344 142.445312 345.992188 145.03125 346.644531 147.636719 C 347.296875 150.242188 347.886719 152.859375 348.410156 155.492188 C 348.933594 158.125 349.394531 160.769531 349.785156 163.425781 C 350.179688 166.082031 350.507812 168.746094 350.773438 171.417969 C 351.035156 174.089844 351.234375 176.769531 351.363281 179.449219 C 351.496094 182.132812 351.5625 184.816406 351.5625 187.5 Z M 351.5625 187.5 " fill-opacity="1" fill-rule="nonzero"/><path fill="#ffffff" d="M 169.210938 117.1875 L 188.898438 117.1875 L 183.332031 146.769531 L 201.023438 146.769531 C 210.726562 146.976562 217.953125 149.144531 222.707031 153.273438 C 227.558594 157.402344 228.988281 165.25 226.988281 176.8125 L 217.429688 228.386719 L 197.457031 228.386719 L 206.585938 179.136719 C 207.539062 173.972656 207.253906 170.308594 205.730469 168.140625 C 204.210938 165.972656 200.929688 164.886719 195.886719 164.886719 L 180.050781 164.734375 L 168.351562 228.386719 L 148.664062 228.386719 Z M 169.210938 117.1875 " fill-opacity="1" fill-rule="nonzero"/><path fill="#ffffff" d="M 78.996094 146.769531 L 117.230469 146.769531 C 128.453125 146.871094 136.585938 150.382812 141.625 157.300781 C 146.667969 164.21875 148.332031 173.664062 146.617188 185.640625 C 145.953125 191.113281 144.480469 196.480469 142.195312 201.75 C 140.007812 207.015625 136.964844 211.761719 133.066406 215.996094 C 128.308594 221.363281 123.222656 224.769531 117.800781 226.21875 C 112.378906 227.664062 106.765625 228.386719 100.964844 228.386719 L 83.847656 228.386719 L 78.425781 257.8125 L 58.59375 257.8125 Z M 87.128906 210.886719 L 95.660156 164.578125 L 98.539062 164.578125 C 99.585938 164.578125 100.679688 164.527344 101.820312 164.425781 C 109.433594 164.320312 115.753906 165.097656 120.796875 166.746094 C 125.933594 168.398438 127.644531 174.644531 125.933594 185.488281 C 123.839844 198.394531 119.75 205.929688 113.664062 208.097656 C 107.578125 210.164062 99.96875 211.144531 90.835938 211.039062 L 88.839844 211.039062 C 88.269531 211.039062 87.699219 210.988281 87.128906 210.886719 Z M 87.128906 210.886719 " fill-opacity="1" fill-rule="evenodd"/><path fill="#ffffff" d="M 286.363281 146.769531 L 248.128906 146.769531 L 227.730469 257.8125 L 247.558594 257.8125 L 252.980469 228.386719 L 270.101562 228.386719 C 275.902344 228.386719 281.515625 227.664062 286.9375 226.21875 C 292.359375 224.769531 297.445312 221.363281 302.203125 215.996094 C 306.101562 211.761719 309.144531 207.015625 311.332031 201.75 C 313.613281 196.480469 315.089844 191.113281 315.753906 185.640625 C 317.464844 173.664062 315.804688 164.21875 310.761719 157.300781 C 305.71875 150.382812 297.589844 146.871094 286.363281 146.769531 Z M 264.792969 164.578125 L 256.261719 210.886719 C 256.832031 210.988281 257.40625 211.039062 257.976562 211.039062 L 259.972656 211.039062 C 269.101562 211.144531 276.710938 210.164062 282.800781 208.097656 C 288.882812 205.929688 292.976562 198.394531 295.070312 185.488281 C 296.78125 174.644531 295.070312 168.398438 289.933594 166.746094 C 284.890625 165.097656 278.566406 164.320312 270.957031 164.425781 C 269.816406 164.527344 268.722656 164.578125 267.675781 164.578125 Z M 264.792969 164.578125 " fill-opacity="1" fill-rule="evenodd"/></svg>