<svg xmlns="http://www.w3.org/2000/svg" xmlns:xlink="http://www.w3.org/1999/xlink" width="500" zoomAndPan="magnify" viewBox="0 0 375 374.999991" height="500" preserveAspectRatio="xMidYMid meet" version="1.0"><path fill="#172554" d="M 187.5 0 C 189.035156 0 190.566406 0.0195312 192.101562 0.0546875 C 193.632812 0.09375 195.164062 0.152344 196.6875 0.226562 C 198.214844 0.300781 199.738281 0.394531 201.257812 0.507812 C 202.773438 0.621094 204.285156 0.75 205.789062 0.902344 C 207.292969 1.050781 208.792969 1.21875 210.28125 1.40625 C 211.769531 1.589844 213.246094 1.796875 214.714844 2.019531 C 216.183594 2.242188 217.640625 2.480469 219.082031 2.738281 C 220.527344 3 221.960938 3.273438 223.375 3.566406 C 224.792969 3.863281 226.195312 4.171875 227.582031 4.5 C 228.96875 4.828125 230.339844 5.171875 231.695312 5.535156 C 233.046875 5.898438 234.382812 6.273438 235.695312 6.667969 C 237.011719 7.0625 238.308594 7.472656 239.585938 7.898438 C 240.859375 8.324219 242.113281 8.769531 243.347656 9.226562 C 244.578125 9.679688 245.789062 10.152344 246.972656 10.640625 C 248.160156 11.125 249.320312 11.628906 250.457031 12.144531 C 251.59375 12.65625 252.707031 13.1875 253.792969 13.730469 C 254.875 14.273438 255.933594 14.828125 256.964844 15.394531 C 257.996094 15.964844 258.996094 16.542969 259.96875 17.136719 C 260.941406 17.730469 261.886719 18.335938 262.800781 18.953125 C 263.714844 19.566406 264.597656 20.195312 265.449219 20.832031 C 266.300781 21.46875 267.125 22.117188 267.910156 22.777344 C 268.699219 23.433594 269.457031 24.101562 270.179688 24.777344 C 270.902344 25.453125 271.59375 26.140625 272.25 26.832031 C 272.90625 27.527344 273.527344 28.226562 274.113281 28.9375 C 274.699219 29.644531 275.253906 30.359375 275.769531 31.082031 C 276.285156 31.804688 276.769531 32.535156 277.214844 33.269531 C 277.660156 34.003906 278.066406 34.742188 278.441406 35.484375 C 278.8125 36.230469 279.148438 36.976562 279.449219 37.730469 C 279.746094 38.484375 280.011719 39.238281 280.234375 39.996094 C 280.460938 40.753906 280.648438 41.515625 280.796875 42.28125 C 280.949219 43.042969 281.0625 43.808594 281.136719 44.574219 C 281.210938 45.339844 281.25 46.109375 281.25 46.875 L 281.25 328.125 C 281.25 328.890625 281.210938 329.660156 281.136719 330.425781 C 281.0625 331.191406 280.949219 331.957031 280.796875 332.71875 C 280.648438 333.484375 280.460938 334.242188 280.234375 335.003906 C 280.011719 335.761719 279.746094 336.515625 279.449219 337.269531 C 279.148438 338.023438 278.8125 338.769531 278.441406 339.515625 C 278.066406 340.257812 277.660156 340.996094 277.214844 341.730469 C 276.769531 342.464844 276.285156 343.195312 275.769531 343.917969 C 275.253906 344.640625 274.699219 345.355469 274.113281 346.0625 C 273.527344 346.773438 272.90625 347.472656 272.25 348.167969 C 271.59375 348.859375 270.902344 349.546875 270.179688 350.222656 C 269.457031 350.898438 268.699219 351.566406 267.910156 352.222656 C 267.125 352.882812 266.300781 353.53125 265.449219 354.167969 C 264.597656 354.804688 263.714844 355.433594 262.800781 356.046875 C 261.886719 356.664062 260.941406 357.269531 259.96875 357.863281 C 258.996094 358.457031 257.996094 359.035156 256.964844 359.605469 C 255.933594 360.171875 254.875 360.726562 253.792969 361.269531 C 252.707031 361.8125 251.59375 362.34375 250.457031 362.855469 C 249.320312 363.371094 248.160156 363.875 246.972656 364.359375 C 245.789062 364.847656 244.578125 365.316406 243.347656 365.773438 C 242.113281 366.230469 240.859375 366.675781 239.585938 367.101562 C 238.308594 367.527344 237.011719 367.9375 235.695312 368.332031 C 234.382812 368.726562 233.046875 369.101562 231.695312 369.464844 C 230.339844 369.828125 228.96875 370.171875 227.582031 370.5 C 226.195312 370.828125 224.792969 371.136719 223.375 371.433594 C 221.960938 371.726562 220.527344 372 219.082031 372.261719 C 217.640625 372.519531 216.183594 372.757812 214.714844 372.980469 C 213.246094 373.203125 211.769531 373.410156 210.28125 373.59375 C 208.792969 373.78125 207.292969 373.949219 205.789062 374.097656 C 204.285156 374.25 202.773438 374.378906 201.257812 374.492188 C 199.738281 374.605469 198.214844 374.699219 196.6875 374.773438 C 195.164062 374.847656 193.632812 374.90625 192.101562 374.945312 C 190.566406 374.980469 189.035156 375 187.5 375 C 185.964844 375 184.433594 374.980469 182.898438 374.945312 C 181.367188 374.90625 179.835938 374.847656 178.3125 374.773438 C 176.785156 374.699219 175.261719 374.605469 173.742188 374.492188 C 172.226562 374.378906 170.714844 374.25 169.210938 374.097656 C 167.707031 373.949219 166.207031 373.78125 164.71875 373.59375 C 163.230469 373.410156 161.753906 373.203125 160.285156 372.980469 C 158.816406 372.757812 157.359375 372.519531 155.917969 372.261719 C 154.472656 372 153.039062 371.726562 151.625 371.433594 C 150.207031 371.136719 148.804688 370.828125 147.417969 370.5 C 146.03125 370.171875 144.660156 369.828125 143.304688 369.464844 C 141.953125 369.101562 140.617188 368.726562 139.304688 368.332031 C 137.988281 367.9375 136.691406 367.527344 135.414062 367.101562 C 134.140625 366.675781 132.886719 366.230469 131.652344 365.773438 C 130.421875 365.316406 129.210938 364.847656 128.027344 364.359375 C 126.839844 363.875 125.679688 363.371094 124.542969 362.855469 C 123.40625 362.34375 122.292969 361.8125 121.207031 361.269531 C 120.125 360.726562 119.066406 360.171875 118.035156 359.605469 C 117.003906 359.035156 116.003906 358.457031 115.03125 357.863281 C 114.058594 357.269531 113.113281 356.664062 112.199219 356.046875 C 111.285156 355.433594 110.402344 354.804688 109.550781 354.167969 C 108.699219 353.53125 107.875 352.882812 107.089844 352.222656 C 106.300781 351.566406 105.542969 350.898438 104.820312 350.222656 C 104.097656 349.546875 103.40625 348.859375 102.75 348.167969 C 102.09375 347.472656 101.472656 346.773438 100.886719 346.0625 C 100.300781 345.355469 99.746094 344.640625 99.230469 343.917969 C 98.714844 343.195312 98.230469 342.464844 97.785156 341.730469 C 97.339844 340.996094 96.933594 340.257812 96.558594 339.515625 C 96.1875 338.769531 95.851562 338.023438 95.550781 337.269531 C 95.253906 336.515625 94.988281 335.761719 94.765625 335.003906 C 94.539062 334.242188 94.351562 333.484375 94.203125 332.71875 C 94.050781 331.957031 93.9375 331.191406 93.863281 330.425781 C 93.789062 329.660156 93.75 328.890625 93.75 328.125 L 93.75 46.875 C 93.75 46.109375 93.789062 45.339844 93.863281 44.574219 C 93.9375 43.808594 94.050781 43.042969 94.203125 42.28125 C 94.351562 41.515625 94.539062 40.753906 94.765625 39.996094 C 94.988281 39.238281 95.253906 38.484375 95.550781 37.730469 C 95.851562 36.976562 96.1875 36.230469 96.558594 35.484375 C 96.933594 34.742188 97.339844 34.003906 97.785156 33.269531 C 98.230469 32.535156 98.714844 31.804688 99.230469 31.082031 C 99.746094 30.359375 100.300781 29.644531 100.886719 28.9375 C 101.472656 28.226562 102.09375 27.527344 102.75 26.832031 C 103.40625 26.140625 104.097656 25.453125 104.820312 24.777344 C 105.542969 24.101562 106.300781 23.433594 107.089844 22.777344 C 107.875 22.117188 108.699219 21.46875 109.550781 20.832031 C 110.402344 20.195312 111.285156 19.566406 112.199219 18.953125 C 113.113281 18.335938 114.058594 17.730469 115.03125 17.136719 C 116.003906 16.542969 117.003906 15.964844 118.035156 15.394531 C 119.066406 14.828125 120.125 14.273438 121.207031 13.730469 C 122.292969 13.1875 123.40625 12.65625 124.542969 12.144531 C 125.679688 11.628906 126.839844 11.125 128.027344 10.640625 C 129.210938 10.152344 130.421875 9.679688 131.652344 9.226562 C 132.886719 8.769531 134.140625 8.324219 135.414062 7.898438 C 136.691406 7.472656 137.988281 7.0625 139.304688 6.667969 C 140.617188 6.273438 141.953125 5.898438 143.304688 5.535156 C 144.660156 5.171875 146.03125 4.828125 147.417969 4.5 C 148.804688 4.171875 150.207031 3.863281 151.625 3.566406 C 153.039062 3.273438 154.472656 3 155.917969 2.738281 C 157.359375 2.480469 158.816406 2.242188 160.285156 2.019531 C 161.753906 1.796875 163.230469 1.589844 164.71875 1.40625 C 166.207031 1.21875 167.707031 1.050781 169.210938 0.902344 C 170.714844 0.75 172.226562 0.621094 173.742188 0.507812 C 175.261719 0.394531 176.785156 0.300781 178.3125 0.226562 C 179.835938 0.152344 181.367188 0.09375 182.898438 0.0546875 C 184.433594 0.0195312 185.964844 0 187.5 0 Z M 187.5 0 " fill-opacity="1" fill-rule="nonzero"/><path fill="#172554" d="M 46.875 93.75 L 328.125 93.75 C 328.890625 93.75 329.660156 93.789062 330.425781 93.863281 C 331.191406 93.9375 331.957031 94.050781 332.71875 94.203125 C 333.484375 94.351562 334.242188 94.539062 335.003906 94.765625 C 335.761719 94.988281 336.515625 95.253906 337.269531 95.550781 C 338.023438 95.851562 338.769531 96.1875 339.515625 96.558594 C 340.257812 96.933594 340.996094 97.339844 341.730469 97.785156 C 342.464844 98.230469 343.195312 98.714844 343.917969 99.230469 C 344.640625 99.746094 345.355469 100.300781 346.0625 100.886719 C 346.773438 101.472656 347.472656 102.09375 348.167969 102.75 C 348.859375 103.40625 349.546875 104.097656 350.222656 104.820312 C 350.898438 105.542969 351.566406 106.300781 352.222656 107.089844 C 352.882812 107.875 353.53125 108.699219 354.167969 109.550781 C 354.804688 110.402344 355.433594 111.285156 356.046875 112.199219 C 356.664062 113.113281 357.269531 114.058594 357.863281 115.03125 C 358.457031 116.003906 359.035156 117.003906 359.605469 118.035156 C 360.171875 119.066406 360.726562 120.125 361.269531 121.207031 C 361.8125 122.292969 362.34375 123.40625 362.855469 124.542969 C 363.371094 125.679688 363.875 126.839844 364.359375 128.027344 C 364.847656 129.210938 365.316406 130.421875 365.773438 131.652344 C 366.230469 132.886719 366.675781 134.140625 367.101562 135.414062 C 367.527344 136.691406 367.9375 137.988281 368.332031 139.304688 C 368.726562 140.617188 369.101562 141.953125 369.464844 143.304688 C 369.828125 144.660156 370.171875 146.03125 370.5 147.417969 C 370.828125 148.804688 371.136719 150.207031 371.433594 151.625 C 371.726562 153.039062 372 154.472656 372.261719 155.917969 C 372.519531 157.359375 372.757812 158.816406 372.980469 160.285156 C 373.203125 161.753906 373.410156 163.230469 373.59375 164.71875 C 373.78125 166.207031 373.949219 167.707031 374.097656 169.210938 C 374.25 170.714844 374.378906 172.226562 374.492188 173.742188 C 374.605469 175.261719 374.699219 176.785156 374.773438 178.3125 C 374.847656 179.835938 374.90625 181.367188 374.945312 182.898438 C 374.980469 184.433594 375 185.964844 375 187.5 C 375 189.035156 374.980469 190.566406 374.945312 192.101562 C 374.90625 193.632812 374.847656 195.164062 374.773438 196.6875 C 374.699219 198.214844 374.605469 199.738281 374.492188 201.257812 C 374.378906 202.773438 374.25 204.285156 374.097656 205.789062 C 373.949219 207.292969 373.78125 208.792969 373.59375 210.28125 C 373.410156 211.769531 373.203125 213.246094 372.980469 214.714844 C 372.757812 216.183594 372.519531 217.640625 372.261719 219.082031 C 372 220.527344 371.726562 221.960938 371.433594 223.375 C 371.136719 224.792969 370.828125 226.195312 370.5 227.582031 C 370.171875 228.96875 369.828125 230.339844 369.464844 231.695312 C 369.101562 233.046875 368.726562 234.382812 368.332031 235.695312 C 367.9375 237.011719 367.527344 238.308594 367.101562 239.585938 C 366.675781 240.859375 366.230469 242.113281 365.773438 243.347656 C 365.316406 244.578125 364.847656 245.789062 364.359375 246.972656 C 363.875 248.160156 363.371094 249.320312 362.855469 250.457031 C 362.34375 251.59375 361.8125 252.707031 361.269531 253.792969 C 360.726562 254.875 360.171875 255.933594 359.605469 256.964844 C 359.035156 257.996094 358.457031 258.996094 357.863281 259.96875 C 357.269531 260.941406 356.664062 261.886719 356.046875 262.800781 C 355.433594 263.714844 354.804688 264.597656 354.167969 265.449219 C 353.53125 266.300781 352.882812 267.125 352.222656 267.910156 C 351.566406 268.699219 350.898438 269.457031 350.222656 270.179688 C 349.546875 270.902344 348.859375 271.59375 348.167969 272.25 C 347.472656 272.90625 346.773438 273.527344 346.0625 274.113281 C 345.355469 274.699219 344.640625 275.253906 343.917969 275.769531 C 343.195312 276.285156 342.464844 276.769531 341.730469 277.214844 C 340.996094 277.660156 340.257812 278.066406 339.515625 278.441406 C 338.769531 278.8125 338.023438 279.148438 337.269531 279.449219 C 336.515625 279.746094 335.761719 280.011719 335.003906 280.234375 C 334.242188 280.460938 333.484375 280.648438 332.71875 280.796875 C 331.957031 280.949219 331.191406 281.0625 330.425781 281.136719 C 329.660156 281.210938 328.890625 281.25 328.125 281.25 L 46.875 281.25 C 46.109375 281.25 45.339844 281.210938 44.574219 281.136719 C 43.808594 281.0625 43.042969 280.949219 42.28125 280.796875 C 41.515625 280.648438 40.753906 280.460938 39.996094 280.234375 C 39.238281 280.011719 38.484375 279.746094 37.730469 279.449219 C 36.976562 279.148438 36.230469 278.8125 35.484375 278.441406 C 34.742188 278.066406 34.003906 277.660156 33.269531 277.214844 C 32.535156 276.769531 31.804688 276.285156 31.082031 275.769531 C 30.359375 275.253906 29.644531 274.699219 28.9375 274.113281 C 28.226562 273.527344 27.527344 272.90625 26.832031 272.25 C 26.140625 271.59375 25.453125 270.902344 24.777344 270.179688 C 24.101562 269.457031 23.433594 268.699219 22.777344 267.910156 C 22.117188 267.125 21.46875 266.300781 20.832031 265.449219 C 20.195312 264.597656 19.566406 263.714844 18.953125 262.800781 C 18.335938 261.886719 17.730469 260.941406 17.136719 259.96875 C 16.542969 258.996094 15.964844 257.996094 15.394531 256.964844 C 14.828125 255.933594 14.273438 254.875 13.730469 253.792969 C 13.1875 252.707031 12.65625 251.59375 12.144531 250.457031 C 11.628906 249.320312 11.125 248.160156 10.640625 246.972656 C 10.152344 245.789062 9.679688 244.578125 9.226562 243.347656 C 8.769531 242.113281 8.324219 240.859375 7.898438 239.585938 C 7.472656 238.308594 7.0625 237.011719 6.667969 235.695312 C 6.273438 234.382812 5.898438 233.046875 5.535156 231.695312 C 5.171875 230.339844 4.828125 228.96875 4.5 227.582031 C 4.171875 226.195312 3.863281 224.792969 3.566406 223.375 C 3.273438 221.960938 3 220.527344 2.738281 219.082031 C 2.480469 217.640625 2.242188 216.183594 2.019531 214.714844 C 1.796875 213.246094 1.589844 211.769531 1.40625 210.28125 C 1.21875 208.792969 1.050781 207.292969 0.902344 205.789062 C 0.75 204.285156 0.621094 202.773438 0.507812 201.257812 C 0.394531 199.738281 0.300781 198.214844 0.226562 196.6875 C 0.152344 195.164062 0.09375 193.632812 0.0546875 192.101562 C 0.0195312 190.566406 0 189.035156 0 187.5 C 0 185.964844 0.0195312 184.433594 0.0546875 182.898438 C 0.09375 181.367188 0.152344 179.835938 0.226562 178.3125 C 0.300781 176.785156 0.394531 175.261719 0.507812 173.742188 C 0.621094 172.226562 0.75 170.714844 0.902344 169.210938 C 1.050781 167.707031 1.21875 166.207031 1.40625 164.71875 C 1.589844 163.230469 1.796875 161.753906 2.019531 160.285156 C 2.242188 158.816406 2.480469 157.359375 2.738281 155.917969 C 3 154.472656 3.273438 153.039062 3.566406 151.625 C 3.863281 150.207031 4.171875 148.804688 4.5 147.417969 C 4.828125 146.03125 5.171875 144.660156 5.535156 143.304688 C 5.898438 141.953125 6.273438 140.617188 6.667969 139.304688 C 7.0625 137.988281 7.472656 136.691406 7.898438 135.414062 C 8.324219 134.140625 8.769531 132.886719 9.226562 131.652344 C 9.679688 130.421875 10.152344 129.210938 10.640625 128.027344 C 11.125 126.839844 11.628906 125.679688 12.144531 124.542969 C 12.65625 123.40625 13.1875 122.292969 13.730469 121.207031 C 14.273438 120.125 14.828125 119.066406 15.394531 118.035156 C 15.964844 117.003906 16.542969 116.003906 17.136719 115.03125 C 17.730469 114.058594 18.335938 113.113281 18.953125 112.199219 C 19.566406 111.285156 20.195312 110.402344 20.832031 109.550781 C 21.46875 108.699219 22.117188 107.875 22.777344 107.089844 C 23.433594 106.300781 24.101562 105.542969 24.777344 104.820312 C 25.453125 104.097656 26.140625 103.40625 26.832031 102.75 C 27.527344 102.09375 28.226562 101.472656 28.9375 100.886719 C 29.644531 100.300781 30.359375 99.746094 31.082031 99.230469 C 31.804688 98.714844 32.535156 98.230469 33.269531 97.785156 C 34.003906 97.339844 34.742188 96.933594 35.484375 96.558594 C 36.230469 96.1875 36.976562 95.851562 37.730469 95.550781 C 38.484375 95.253906 39.238281 94.988281 39.996094 94.765625 C 40.753906 94.539062 41.515625 94.351562 42.28125 94.203125 C 43.042969 94.050781 43.808594 93.9375 44.574219 93.863281 C 45.339844 93.789062 46.109375 93.75 46.875 93.75 Z M 46.875 93.75 " fill-opacity="1" fill-rule="nonzero"/><path fill="#ffffff" d="M 153.28125 46.875 C 153.28125 47.441406 153.253906 48.007812 153.199219 48.574219 C 153.140625 49.140625 153.058594 49.703125 152.949219 50.257812 C 152.835938 50.816406 152.699219 51.367188 152.535156 51.910156 C 152.371094 52.453125 152.179688 52.988281 151.960938 53.511719 C 151.742188 54.035156 151.5 54.550781 151.234375 55.050781 C 150.964844 55.550781 150.675781 56.039062 150.359375 56.511719 C 150.042969 56.984375 149.703125 57.4375 149.34375 57.878906 C 148.984375 58.316406 148.601562 58.738281 148.203125 59.140625 C 147.800781 59.539062 147.378906 59.921875 146.941406 60.28125 C 146.5 60.640625 146.046875 60.980469 145.574219 61.296875 C 145.101562 61.613281 144.613281 61.902344 144.113281 62.171875 C 143.613281 62.4375 143.097656 62.679688 142.574219 62.898438 C 142.050781 63.117188 141.515625 63.308594 140.972656 63.472656 C 140.429688 63.636719 139.878906 63.773438 139.320312 63.886719 C 138.765625 63.996094 138.203125 64.078125 137.636719 64.136719 C 137.070312 64.191406 136.503906 64.21875 135.9375 64.21875 C 135.371094 64.21875 134.804688 64.191406 134.238281 64.136719 C 133.671875 64.078125 133.109375 63.996094 132.554688 63.886719 C 131.996094 63.773438 131.445312 63.636719 130.902344 63.472656 C 130.359375 63.308594 129.824219 63.117188 129.300781 62.898438 C 128.777344 62.679688 128.261719 62.4375 127.761719 62.171875 C 127.261719 61.902344 126.773438 61.613281 126.300781 61.296875 C 125.828125 60.980469 125.375 60.640625 124.933594 60.28125 C 124.496094 59.921875 124.074219 59.539062 123.671875 59.140625 C 123.273438 58.738281 122.890625 58.316406 122.53125 57.878906 C 122.171875 57.4375 121.832031 56.984375 121.515625 56.511719 C 121.199219 56.039062 120.910156 55.550781 120.640625 55.050781 C 120.375 54.550781 120.132812 54.035156 119.914062 53.511719 C 119.695312 52.988281 119.503906 52.453125 119.339844 51.910156 C 119.175781 51.367188 119.039062 50.816406 118.925781 50.257812 C 118.816406 49.703125 118.734375 49.140625 118.675781 48.574219 C 118.621094 48.007812 118.59375 47.441406 118.59375 46.875 C 118.59375 46.308594 118.621094 45.742188 118.675781 45.175781 C 118.734375 44.609375 118.816406 44.046875 118.925781 43.492188 C 119.039062 42.933594 119.175781 42.382812 119.339844 41.839844 C 119.503906 41.296875 119.695312 40.761719 119.914062 40.238281 C 120.132812 39.714844 120.375 39.199219 120.640625 38.699219 C 120.910156 38.199219 121.199219 37.710938 121.515625 37.238281 C 121.832031 36.765625 122.171875 36.3125 122.53125 35.871094 C 122.890625 35.433594 123.273438 35.011719 123.671875 34.609375 C 124.074219 34.210938 124.496094 33.828125 124.933594 33.46875 C 125.375 33.109375 125.828125 32.769531 126.300781 32.453125 C 126.773438 32.136719 127.261719 31.847656 127.761719 31.578125 C 128.261719 31.3125 128.777344 31.070312 129.300781 30.851562 C 129.824219 30.632812 130.359375 30.441406 130.902344 30.277344 C 131.445312 30.113281 131.996094 29.976562 132.554688 29.863281 C 133.109375 29.753906 133.671875 29.671875 134.238281 29.613281 C 134.804688 29.558594 135.371094 29.53125 135.9375 29.53125 C 136.503906 29.53125 137.070312 29.558594 137.636719 29.613281 C 138.203125 29.671875 138.765625 29.753906 139.320312 29.863281 C 139.878906 29.976562 140.429688 30.113281 140.972656 30.277344 C 141.515625 30.441406 142.050781 30.632812 142.574219 30.851562 C 143.097656 31.070312 143.613281 31.3125 144.113281 31.578125 C 144.613281 31.847656 145.101562 32.136719 145.574219 32.453125 C 146.046875 32.769531 146.5 33.109375 146.941406 33.46875 C 147.378906 33.828125 147.800781 34.210938 148.203125 34.609375 C 148.601562 35.011719 148.984375 35.433594 149.34375 35.871094 C 149.703125 36.3125 150.042969 36.765625 150.359375 37.238281 C 150.675781 37.710938 150.964844 38.199219 151.234375 38.699219 C 151.5 39.199219 151.742188 39.714844 151.960938 40.238281 C 152.179688 40.761719 152.371094 41.296875 152.535156 41.839844 C 152.699219 42.382812 152.835938 42.933594 152.949219 43.492188 C 153.058594 44.046875 153.140625 44.609375 153.199219 45.175781 C 153.253906 45.742188 153.28125 46.308594 153.28125 46.875 Z M 153.28125 46.875 " fill-opacity="1" fill-rule="nonzero"/><path fill="#ffffff" d="M 256.40625 328.125 C 256.40625 328.691406 256.378906 329.257812 256.324219 329.824219 C 256.265625 330.390625 256.183594 330.953125 256.074219 331.507812 C 255.960938 332.066406 255.824219 332.617188 255.660156 333.160156 C 255.496094 333.703125 255.304688 334.238281 255.085938 334.761719 C 254.867188 335.285156 254.625 335.800781 254.359375 336.300781 C 254.089844 336.800781 253.800781 337.289062 253.484375 337.761719 C 253.167969 338.234375 252.828125 338.6875 252.46875 339.128906 C 252.109375 339.566406 251.726562 339.988281 251.328125 340.390625 C 250.925781 340.789062 250.503906 341.171875 250.066406 341.53125 C 249.625 341.890625 249.171875 342.230469 248.699219 342.546875 C 248.226562 342.863281 247.738281 343.152344 247.238281 343.421875 C 246.738281 343.6875 246.222656 343.929688 245.699219 344.148438 C 245.175781 344.367188 244.640625 344.558594 244.097656 344.722656 C 243.554688 344.886719 243.003906 345.023438 242.445312 345.136719 C 241.890625 345.246094 241.328125 345.328125 240.761719 345.386719 C 240.195312 345.441406 239.628906 345.46875 239.0625 345.46875 C 238.496094 345.46875 237.929688 345.441406 237.363281 345.386719 C 236.796875 345.328125 236.234375 345.246094 235.679688 345.136719 C 235.121094 345.023438 234.570312 344.886719 234.027344 344.722656 C 233.484375 344.558594 232.949219 344.367188 232.425781 344.148438 C 231.902344 343.929688 231.386719 343.6875 230.886719 343.421875 C 230.386719 343.152344 229.898438 342.863281 229.425781 342.546875 C 228.953125 342.230469 228.5 341.890625 228.058594 341.53125 C 227.621094 341.171875 227.199219 340.789062 226.796875 340.390625 C 226.398438 339.988281 226.015625 339.566406 225.65625 339.128906 C 225.296875 338.6875 224.957031 338.234375 224.640625 337.761719 C 224.324219 337.289062 224.035156 336.800781 223.765625 336.300781 C 223.5 335.800781 223.257812 335.285156 223.039062 334.761719 C 222.820312 334.238281 222.628906 333.703125 222.464844 333.160156 C 222.300781 332.617188 222.164062 332.066406 222.050781 331.507812 C 221.941406 330.953125 221.859375 330.390625 221.800781 329.824219 C 221.746094 329.257812 221.71875 328.691406 221.71875 328.125 C 221.71875 327.558594 221.746094 326.992188 221.800781 326.425781 C 221.859375 325.859375 221.941406 325.296875 222.050781 324.742188 C 222.164062 324.183594 222.300781 323.632812 222.464844 323.089844 C 222.628906 322.546875 222.820312 322.011719 223.039062 321.488281 C 223.257812 320.964844 223.5 320.449219 223.765625 319.949219 C 224.035156 319.449219 224.324219 318.960938 224.640625 318.488281 C 224.957031 318.015625 225.296875 317.5625 225.65625 317.121094 C 226.015625 316.683594 226.398438 316.261719 226.796875 315.859375 C 227.199219 315.460938 227.621094 315.078125 228.058594 314.71875 C 228.5 314.359375 228.953125 314.019531 229.425781 313.703125 C 229.898438 313.386719 230.386719 313.097656 230.886719 312.828125 C 231.386719 312.5625 231.902344 312.320312 232.425781 312.101562 C 232.949219 311.882812 233.484375 311.691406 234.027344 311.527344 C 234.570312 311.363281 235.121094 311.226562 235.679688 311.113281 C 236.234375 311.003906 236.796875 310.921875 237.363281 310.863281 C 237.929688 310.808594 238.496094 310.78125 239.0625 310.78125 C 239.628906 310.78125 240.195312 310.808594 240.761719 310.863281 C 241.328125 310.921875 241.890625 311.003906 242.445312 311.113281 C 243.003906 311.226562 243.554688 311.363281 244.097656 311.527344 C 244.640625 311.691406 245.175781 311.882812 245.699219 312.101562 C 246.222656 312.320312 246.738281 312.5625 247.238281 312.828125 C 247.738281 313.097656 248.226562 313.386719 248.699219 313.703125 C 249.171875 314.019531 249.625 314.359375 250.066406 314.71875 C 250.503906 315.078125 250.925781 315.460938 251.328125 315.859375 C 251.726562 316.261719 252.109375 316.683594 252.46875 317.121094 C 252.828125 317.5625 253.167969 318.015625 253.484375 318.488281 C 253.800781 318.960938 254.089844 319.449219 254.359375 319.949219 C 254.625 320.449219 254.867188 320.964844 255.085938 321.488281 C 255.304688 322.011719 255.496094 322.546875 255.660156 323.089844 C 255.824219 323.632812 255.960938 324.183594 256.074219 324.742188 C 256.183594 325.296875 256.265625 325.859375 256.324219 326.425781 C 256.378906 326.992188 256.40625 327.558594 256.40625 328.125 Z M 256.40625 328.125 " fill-opacity="1" fill-rule="nonzero"/><path stroke-linecap="butt" transform="matrix(9.374999, 0, 0, 9.374999, 0.0000045, 0)" fill="none" stroke-linejoin="miter" d="M 10 9.500001 L 20.000001 9.500001 " stroke="#ffffff" stroke-width="1" stroke-opacity="1" stroke-miterlimit="4"/><path stroke-linecap="butt" transform="matrix(9.374999, 0, 0, 9.374999, 0.0000045, 0)" fill="none" stroke-linejoin="miter" d="M 20.000001 30.500002 L 30.000001 30.500002 " stroke="#ffffff" stroke-width="1" stroke-opacity="1" stroke-miterlimit="4"/><path stroke-linecap="butt" transform="matrix(9.374999, 0, 0, 9.374999, 0.0000045, 0)" fill="none" stroke-linejoin="miter" d="M 9.5 30.000002 C 9.5 20.000001 12 20.000001 19.500001 20.000001 C 28.000001 20.000001 30.500002 20.000001 30.500002 10.000001 " stroke="#ffffff" stroke-width="1" stroke-opacity="1" stroke-miterlimit="4"/></svg>