<svg xmlns="http://www.w3.org/2000/svg" xmlns:xlink="http://www.w3.org/1999/xlink" width="500" zoomAndPan="magnify" viewBox="0 0 375 374.999991" height="500" preserveAspectRatio="xMidYMid meet" version="1.0"><defs><clipPath id="f2810b2874"><path d="M 0.0625 72.953125 L 374.9375 72.953125 L 374.9375 297.878906 L 0.0625 297.878906 Z M 0.0625 72.953125 " clip-rule="nonzero"/></clipPath></defs><g clip-path="url(#f2810b2874)"><path fill="#172554" d="M 187.5 72.953125 C 137.515625 72.953125 106.277344 97.945312 93.78125 147.929688 C 112.523438 122.9375 134.394531 113.566406 159.382812 119.8125 C 173.644531 123.375 183.835938 133.726562 195.117188 145.171875 C 213.492188 163.828125 234.761719 185.417969 281.21875 185.417969 C 331.203125 185.417969 362.441406 160.425781 374.9375 110.441406 C 356.195312 135.433594 334.324219 144.804688 309.335938 138.558594 C 295.074219 134.996094 284.882812 124.644531 273.601562 113.199219 C 255.226562 94.542969 233.957031 72.953125 187.5 72.953125 Z M 93.78125 185.417969 C 43.796875 185.417969 12.558594 210.410156 0.0625 260.390625 C 18.804688 235.398438 40.675781 226.027344 65.664062 232.277344 C 79.925781 235.84375 90.117188 246.1875 101.398438 257.636719 C 119.773438 276.289062 141.042969 297.878906 187.5 297.878906 C 237.484375 297.878906 268.722656 272.886719 281.21875 222.902344 C 262.476562 247.894531 240.605469 257.269531 215.617188 251.019531 C 201.355469 247.457031 191.164062 237.109375 179.882812 225.660156 C 161.507812 207.007812 140.238281 185.417969 93.78125 185.417969 Z M 93.78125 185.417969 " fill-opacity="1" fill-rule="evenodd"/></g></svg>